<?xml version="1.0" standalone="no"?>
<!DOCTYPE svg PUBLIC "-//W3C//DTD SVG 1.1//EN" "http://www.w3.org/Graphics/SVG/1.1/DTD/svg11.dtd" >
<svg xmlns="http://www.w3.org/2000/svg" xmlns:xlink="http://www.w3.org/1999/xlink" version="1.1">
<metadata></metadata>
<defs>
<font id="heimat_monobold" horiz-adv-x="1187" >
<font-face units-per-em="2048" ascent="1638" descent="-410" />
<missing-glyph horiz-adv-x="500" />
<glyph horiz-adv-x="0" />
<glyph horiz-adv-x="682" />
<glyph unicode=" " />
<glyph unicode="!" d="M420 131q0 68 43 109q46 43 131 43q86 0 129 -43q45 -39 45 -109q0 -69 -45 -111q-43 -40 -129 -40q-85 0 -131 40q-43 43 -43 111zM469 500v831h250v-831h-250z" />
<glyph unicode="&#x22;" d="M236 852v479h249v-479h-249zM702 852v479h250v-479h-250z" />
<glyph unicode="#" d="M84 309v211h149l33 291h-125v211h152l35 309h227l-35 -309h236l35 309h227l-35 -309h123v-211h-150l-34 -291h125v-211h-150l-37 -309h-227l37 309h-238l-35 -309h-227l35 309h-121zM459 520h237l33 291h-235z" />
<glyph unicode="$" d="M100 903q0 177 106 288.5t288 135.5v203h190v-205q293 -44 387 -328h-248q-55 98 -147 119v-309l41 -2q370 -3 370 -352q0 -190 -109 -310.5t-294 -140.5v-197h-197v199q-288 43 -383 324h248q51 -94 144 -115v365h-31q-365 0 -365 325zM342 930q0 -70 35.5 -95.5 t118.5 -25.5v307q-72 -13 -113 -63.5t-41 -122.5zM676 211q76 17 121 76.5t45 144.5q0 77 -39.5 110t-126.5 33v-364z" />
<glyph unicode="%" d="M2 985q0 151 61 258q62 109 170 109q111 0 170 -109q62 -109 62 -258t-62 -258q-57 -106 -170 -106q-110 0 -170 106q-61 107 -61 258zM168 985q0 -186 65 -186q66 0 66 186q0 189 -66 189q-65 0 -65 -189zM231 0l484 1331h186l-483 -1331h-187zM666 346q0 149 59 258 q61 107 172 107q108 0 170 -109q61 -107 61 -256q0 -151 -61 -258q-61 -108 -170 -108q-112 0 -172 106q-59 109 -59 260zM834 346q0 -186 63 -186q66 0 66 186t-66 186q-63 0 -63 -186z" />
<glyph unicode="&#x26;" d="M43 403q0 192 158 320q-105 99 -105 256q0 158 97 266q98 107 245 107q146 0 240 -107q98 -104 98 -266q0 -155 -104 -256q43 -25 112 -129l138 223h252l-259 -414l252 -403h-252l-129 209q-104 -135 -180 -182q-77 -47 -182 -47q-174 0 -277 118q-104 119 -104 305z M266 403q0 -89 46.5 -147.5t119.5 -58.5q105 0 225 206q-71 119 -119.5 163t-105.5 44q-72 0 -119 -58t-47 -149zM313 979q0 -74 34 -119t91 -45q54 0 87.5 46t33.5 118t-33.5 118t-87.5 46q-55 0 -90 -46t-35 -118z" />
<glyph unicode="'" d="M469 852v479h250v-479h-250z" />
<glyph unicode="(" d="M201 520q0 362 141 635q139 270 354 410h285q-524 -383 -524 -1045q0 -658 524 -1044h-285q-214 139 -354 411q-141 273 -141 633z" />
<glyph unicode=")" d="M207 -524q524 386 524 1044q0 662 -524 1045h285q215 -140 354 -410q141 -273 141 -635q0 -360 -141 -633q-140 -272 -354 -411h-285z" />
<glyph unicode="*" d="M170 858l246 111l-246 108l76 146l262 -119l-8 227h188l-8 -227l260 119l78 -146l-246 -108l246 -111l-78 -145l-260 118l8 -227h-188l8 227l-260 -118z" />
<glyph unicode="+" d="M152 520v209h327v332h223v-332h334v-209h-334v-332h-223v332h-327z" />
<glyph unicode="," d="M285 -123h71q73 0 106.5 34.5t33.5 111.5v264h247v-271q0 -160 -88.5 -246.5t-255.5 -86.5h-114v194z" />
<glyph unicode="-" d="M266 420v207h656v-207h-656z" />
<glyph unicode="." d="M418 131.5q0 65.5 43 108.5t121 43q77 0 120 -43q44 -43 44 -108.5t-44 -108.5q-43 -43 -120 -43q-78 0 -121 43t-43 108.5z" />
<glyph unicode="/" d="M31 -410l872 1844h254l-872 -1844h-254z" />
<glyph unicode="0" d="M84 666q0 189 43 325q75 244 276 326q88 35 190.5 35t188.5 -35q207 -83 281 -326q43 -136 43 -325q0 -192 -43 -328q-76 -242 -281 -324q-86 -35 -188.5 -35t-190.5 35q-200 82 -276 324q-43 136 -43 328zM346 666q0 -247 66.5 -363.5t181.5 -116.5q250 0 250 480 q0 479 -250 479q-115 0 -181.5 -116t-66.5 -363z" />
<glyph unicode="1" d="M197 846v248l409 245h199v-1339h-250v1059z" />
<glyph unicode="2" d="M131 1030q44 149 169.5 234.5t299.5 85.5q201 0 311 -107q111 -108 111 -258q0 -106 -59 -221q-57 -107 -226 -289l-243 -264h542v-211h-864v209l375 401q211 230 211 363q0 78 -49 125t-127 47q-124 0 -189 -115h-262z" />
<glyph unicode="3" d="M135 1032q51 149 173.5 234.5t287.5 85.5q199 0 314.5 -102.5t115.5 -266.5q0 -100 -55.5 -183t-143.5 -112q217 -76 217 -319q0 -163 -114 -277q-112 -112 -334 -112q-165 0 -286 85t-171 234h264q62 -115 197 -115q84 0 133 51.5t49 137.5q0 97 -65.5 151t-177.5 54 h-45v206h38q107 0 169.5 52.5t62.5 138.5q0 75 -48 123.5t-126 48.5q-131 0 -193 -115h-262z" />
<glyph unicode="4" d="M131 264v178l217 889h254l-196 -858h288v326h250v-326h135v-209h-135v-264h-250v264h-563z" />
<glyph unicode="5" d="M135 299h262q65 -115 197 -115q86 0 139 64.5t53 167.5q0 118 -59 183t-154 65q-103 0 -153 -62h-246v729h825v-211h-571v-278q74 30 166 30q217 0 334 -129q119 -125 119 -327q0 -186 -117 -312q-112 -124 -330 -124q-169 0 -291.5 85t-173.5 234z" />
<glyph unicode="6" d="M125 408q0 109 49 309l148 614h266l-125 -538q51 45 143 45q204 0 330 -123q127 -121 127 -307q0 -188 -129 -308q-126 -120 -340 -120q-213 0 -342 120q-127 121 -127 308zM391 408q0 -93 58 -155.5t145 -62.5q88 0 146.5 63t58.5 155q0 94 -58.5 155.5t-146.5 61.5 t-145.5 -61.5t-57.5 -155.5z" />
<glyph unicode="7" d="M156 1118v213h854v-196l-453 -1135h-266l448 1118h-583z" />
<glyph unicode="8" d="M127 383q0 207 176 293q-166 82 -166 282q0 165 117 279q121 115 340 115q220 0 338 -115q119 -113 119 -279q0 -200 -166 -282q178 -88 178 -293q0 -170 -123 -287q-119 -116 -346 -116t-346 116q-121 118 -121 287zM396 385q0 -79 55 -133q57 -54 143 -54t143 54 q57 56 57 133t-57 131q-57 55 -143 55.5t-143 -53.5q-55 -54 -55 -133zM406 956q0 -74 54.5 -125t133.5 -51q81 0 134.5 51t53.5 125t-53.5 125.5t-134.5 51.5q-79 0 -133.5 -51.5t-54.5 -125.5z" />
<glyph unicode="9" d="M125 924q0 186 127 307q130 121 342 121q213 0 340 -121q129 -120 129 -307q0 -110 -49 -310l-150 -614h-266l127 539q-51 -45 -143 -45q-206 0 -332 120q-125 122 -125 310zM389 924q0 -94 58.5 -155.5t146.5 -61.5t145.5 61.5t57.5 155.5q0 93 -58 155t-145 62 q-88 0 -146.5 -62.5t-58.5 -154.5z" />
<glyph unicode=":" d="M418 131.5q0 65.5 43 108.5t121 43q77 0 120 -43q44 -43 44 -108.5t-44 -108.5q-43 -43 -120 -43q-78 0 -121 43t-43 108.5zM418 768q0 66 43 109t121 43q77 0 120 -43q44 -43 44 -109t-44 -109q-43 -43 -120 -43q-78 0 -121 43t-43 109z" />
<glyph unicode=";" d="M272 -123h72q73 0 106 34.5t33 111.5v264h248v-271q0 -160 -88.5 -246.5t-255.5 -86.5h-115v194zM434 768q0 66 43 109t121 43t121 -43q44 -43 44 -109t-44 -109q-43 -43 -121 -43t-121 43t-43 109z" />
<glyph unicode="&#x3c;" d="M152 502v209l884 413v-223l-647 -295l647 -295v-223z" />
<glyph unicode="=" d="M152 322v208h884v-208h-884zM152 731v209h884v-209h-884z" />
<glyph unicode="&#x3e;" d="M152 88v223l647 295l-647 295v223l884 -413v-209z" />
<glyph unicode="?" d="M98 1030q44 150 174 234q131 88 301 88q210 0 342 -111q134 -110 134 -297q0 -212 -150 -338t-465 -117v207q359 -9 359 242q0 94 -60 151.5t-158 57.5q-151 0 -221 -117h-256zM389 113q-12 58 24 101t109 50q150 15 174 -114q12 -58 -24 -101.5t-109 -50.5 q-150 -15 -174 115z" />
<glyph unicode="@" d="M63 475q0 178 30 320.5t81 236t121.5 156t147.5 89t163 26.5q242 0 382 -183t140 -536q0 -257 -74.5 -400t-191.5 -143q-55 0 -84.5 21t-54.5 77q-60 -106 -160 -106q-114 0 -182 113t-68 327t68 327t182 113q89 0 123 -79v61h176v-643q0 -57 33 -57q13 -2 26 11.5t26 45 t23 76.5t16.5 111.5t6.5 144.5q0 294 -104 446t-283 152q-173 0 -289 -168t-116 -539q0 -350 116 -524q120 -176 287 -176q91 0 171 49t112 117h153q-38 -117 -161 -203q-125 -90 -275 -90q-228 0 -385 207q-156 205 -156 620zM494 473q0 -266 94 -266q96 0 96 266 q0 268 -96 268q-94 0 -94 -268z" />
<glyph unicode="A" d="M45 0l393 1331h312l393 -1331h-258l-97 319h-389l-96 -319h-258zM451 530h286l-143 492z" />
<glyph unicode="B" d="M172 0v1331h426q202 0 314 -96t112 -272q0 -184 -133 -267q184 -94 184 -305q0 -177 -123 -284t-350 -107h-430zM420 211h174q106 0 165.5 48.5t59.5 133.5q0 86 -60 134t-165 48h-174v-364zM420 782h174q82 0 128 50.5t46 121.5q0 166 -178 166h-170v-338z" />
<glyph unicode="C" d="M96 666q0 181 42.5 318.5t117.5 217.5q144 150 367 150q173 0 296 -96.5t177 -278.5h-262q-62 160 -211 160q-269 0 -269 -471t269 -471q150 0 211 159h262q-54 -182 -177 -278t-296 -96q-224 0 -367 149q-75 80 -117.5 218t-42.5 319z" />
<glyph unicode="D" d="M137 0v1331h367q290 0 448 -180q160 -183 160 -485q0 -303 -160 -486q-158 -180 -448 -180h-367zM385 209h119q173 0 261.5 122t88.5 335t-88.5 334.5t-261.5 121.5h-119v-913z" />
<glyph unicode="E" d="M190 0v1331h814v-209h-564v-346h535v-207h-535v-362h568v-207h-818z" />
<glyph unicode="F" d="M197 0v1331h827v-209h-580v-366h549v-209h-549v-547h-247z" />
<glyph unicode="G" d="M92 666q0 181 41.5 319t116.5 217q144 150 364 150q173 0 296.5 -98t172.5 -277h-258q-59 160 -213 160q-264 0 -264 -471t262 -471q107 0 167.5 94t60.5 278v15h-248v209h504v-187q0 -286 -121 -457q-118 -167 -363 -167q-225 0 -372 163q-146 166 -146 523z" />
<glyph unicode="H" d="M119 0v1331h250v-545h450v545h250v-1331h-250v575h-450v-575h-250z" />
<glyph unicode="I" d="M160 0v193h309v946h-309v192h868v-192h-309v-946h309v-193h-868z" />
<glyph unicode="J" d="M92 307h262q25 -53 75.5 -82.5t107.5 -29.5q190 0 190 247v889h248v-895q0 -217 -113 -336.5t-325 -119.5q-152 0 -271.5 84t-173.5 243z" />
<glyph unicode="K" d="M119 0v1331h248v-669l489 669h303l-323 -426l270 -905h-279l-188 676l-272 -371v-305h-248z" />
<glyph unicode="L" d="M190 0v1331h248v-1124h609v-207h-857z" />
<glyph unicode="M" d="M80 0v1331h244l270 -626l270 626h244v-1331h-221v934l-195 -485h-196l-197 485v-934h-219z" />
<glyph unicode="N" d="M123 0v1331h242l466 -925v925h234v-1331h-242l-467 926v-926h-233z" />
<glyph unicode="O" d="M70 666q0 176 43 309q80 243 284 336q97 39 197.5 39t193 -37.5t168.5 -124.5t117 -213q45 -131 45 -309q0 -179 -45 -310q-77 -243 -285 -336q-91 -41 -195 -41t-196 41q-204 93 -284 336q-43 133 -43 310zM328 666q0 -233 78 -355q76 -116 188 -116t188 116 q80 121 80 355t-80 352q-76 119 -188 119t-188 -119q-78 -119 -78 -352z" />
<glyph unicode="P" d="M164 0v1331h452q221 0 346 -114.5t125 -315.5q0 -202 -125 -316t-346 -114h-204v-471h-248zM412 680h204q100 0 157.5 57t57.5 164t-57.5 164t-157.5 57h-204v-442z" />
<glyph unicode="Q" d="M70 666q0 170 43 306.5t118 217.5q153 162 363 162t360 -162q77 -81 120.5 -217.5t43.5 -306.5q0 -307 -125 -478q-123 -170 -313 -200l-154 -205h166q142 0 195 127h243q-53 -320 -417 -320h-457v177l186 239q-172 53 -272 222t-100 438zM328 666q0 -233 78 -355 q76 -116 188 -116t188 116q80 121 80 355t-80 352q-76 119 -188 119t-188 -119q-78 -119 -78 -352z" />
<glyph unicode="R" d="M141 0v1331h512q222 0 334.5 -109.5t112.5 -308.5q0 -281 -221 -376l151 -537h-266l-129 494h-244v-494h-250zM391 702h248q102 0 153.5 55t51.5 156q0 99 -51.5 154t-153.5 55h-248v-420z" />
<glyph unicode="S" d="M106 913q0 199 127 320q128 119 336 119q384 0 492 -342h-256q-68 133 -234 133q-97 0 -158 -57t-61 -144q0 -72 36.5 -99.5t119.5 -29.5l192 -2q383 -3 383 -352q0 -227 -135 -353q-129 -123 -348 -126h-4q-182 0 -308 88q-128 89 -179 254h253q78 -134 240 -134 q99 0 164 67t65 171q0 149 -163 152l-195 2q-189 5 -278 85.5t-89 247.5z" />
<glyph unicode="T" d="M90 1122v209h1010v-209h-381v-1122h-250v1122h-379z" />
<glyph unicode="U" d="M115 543v788h250v-788q0 -353 229 -353t229 353v788h250v-788q0 -277 -128 -419t-351 -142t-351 142t-128 419z" />
<glyph unicode="V" d="M53 1331h262l279 -1018l278 1018h263l-385 -1331h-312z" />
<glyph unicode="W" d="M20 1331h238l98 -975l136 492h204l135 -492l99 975h237l-149 -1331h-254l-170 616l-170 -616h-254z" />
<glyph unicode="X" d="M43 0l406 670l-402 661h275l268 -469l270 469h273l-398 -659l410 -672h-275l-278 481l-275 -481h-274z" />
<glyph unicode="Y" d="M37 1331h289l268 -497l270 497h287l-432 -727v-604h-250v604z" />
<glyph unicode="Z" d="M145 0v180l574 942h-572v209h879v-180l-573 -944h591v-207h-899z" />
<glyph unicode="[" d="M313 -522v2087h600v-207h-352v-1673h352v-207h-600z" />
<glyph unicode="\" d="M31 1434h254l872 -1844h-254z" />
<glyph unicode="]" d="M252 -313h352v1671h-352v207h600v-2087h-600v209z" />
<glyph unicode="^" d="M82 549l371 782h280l373 -782h-277l-235 518l-238 -518h-274z" />
<glyph unicode="_" d="M139 -82h912v-209h-912v209z" />
<glyph unicode="`" d="M328 1417h243l289 -307h-246z" />
<glyph unicode="a" d="M143 305q0 133 101 227q105 97 311 97q145 0 213 -51v67q0 82 -42.5 117t-131.5 35q-141 0 -168 -84h-250q58 278 418 278q222 0 320 -86t98 -287v-618h-238v45q-83 -65 -221 -65q-210 0 -311 94q-99 94 -99 231zM388 305q0 -54 44 -92q45 -39 146 -39t147 37 q49 38 49 93.5t-49 92.5q-45 39 -147 39q-101 0 -146 -39q-44 -38 -44 -92z" />
<glyph unicode="b" d="M176 0v1434h240v-529q85 88 221 88q204 0 323 -130.5t119 -377.5q0 -246 -119 -375.5t-323 -129.5q-148 0 -221 88v-68h-240zM416 485q0 -149 55.5 -227t151.5 -78q98 0 153 79t55 226q0 150 -55 229t-153 79q-96 0 -151.5 -79t-55.5 -229z" />
<glyph unicode="c" d="M139 485q0 247 129 377.5t350 130.5q178 0 286.5 -82.5t135.5 -218.5h-252q-37 101 -172 101q-103 0 -166 -80t-63 -228q0 -149 63.5 -227t172.5 -78q137 0 174 101h252q-27 -136 -138 -218.5t-293 -82.5q-222 0 -350.5 129t-128.5 376z" />
<glyph unicode="d" d="M109 485q0 247 119 377.5t323 130.5q136 0 221 -88v529h240v-1434h-240v68q-73 -88 -221 -88q-204 0 -323 129.5t-119 375.5zM356 485q0 -147 55.5 -226t153.5 -79q96 0 151.5 78t55.5 227q0 150 -55.5 229t-151.5 79q-98 0 -153.5 -79t-55.5 -229z" />
<glyph unicode="e" d="M131 475q0 235 133 377q132 141 342 141q205 0 328 -135t123 -358l-4 -88h-670q12 -111 73 -171.5t154 -60.5q138 0 178 101h252q-37 -138 -146.5 -219.5t-287.5 -81.5q-207 0 -340 124q-135 126 -135 371zM389 598h418q-10 100 -65 151.5t-142 51.5q-83 0 -141 -53 t-70 -150z" />
<glyph unicode="f" d="M102 0v195h181v878q0 183 111.5 282t305.5 99q140 0 249 -69.5t159 -202.5h-258q-43 73 -160 73q-80 0 -124 -43.5t-44 -128.5v-147h381v-193h-381v-548h320v-195h-740z" />
<glyph unicode="g" d="M55 197q0 89 52 145.5t118 56.5h19q-90 72 -90 207q0 171 127 266q126 99 327 99h545v-193h-156q66 -78 66 -172q0 -156 -114 -254t-308 -98h-242q-77 0 -77 -57q0 -60 77 -60h342q159 0 240.5 -77t81.5 -197q0 -130 -105 -213.5t-307 -83.5q-203 0 -311 102 q-98 91 -98 234q0 53 2 71q-87 7 -138 68.5t-51 155.5zM399 606q0 -75 57.5 -120.5t151.5 -45.5t150.5 45.5t56.5 120.5q0 74 -57.5 120t-149.5 46t-150.5 -46.5t-58.5 -119.5zM479 -100q0 -64 31 -95q47 -41 141 -41q164 0 164 99q0 92 -137 92h-197q0 -8 -1 -30t-1 -25z " />
<glyph unicode="h" d="M172 0v1434h240v-531q64 88 219 88q395 0 395 -432v-559h-240v543q0 118 -46.5 175.5t-145.5 57.5q-87 0 -134.5 -47.5t-47.5 -138.5v-590h-240z" />
<glyph unicode="i" d="M150 0v195h337v559h-323v194h565v-753h318v-195h-897zM452 1198q-20 37 -20 74q0 38 22 77q38 69 120 69q9 0 18 -1q9 1 18 1q83 0 120 -68q20 -38 20 -76t-20 -76q-37 -69 -120 -69q-9 0 -18 1q-9 -1 -18 -1q-85 1 -122 69z" />
<glyph unicode="j" d="M20 -156h281q48 -69 168 -69q154 0 154 176v803h-430v194h669v-973q0 -401 -393 -401q-166 0 -273 64.5t-176 205.5zM588 1198q-21 37 -21 74q0 39 21 77q38 69 121 69q9 0 18 -1q9 1 18 1q83 0 120 -68q21 -38 21 -76t-21 -76q-37 -69 -120 -69q-9 0 -18 1q-9 -1 -18 -1 q-85 0 -121 69z" />
<glyph unicode="k" d="M158 0v1434h241v-760l377 297h352l-329 -260l272 -711h-278l-203 565l-191 -147v-418h-241z" />
<glyph unicode="l" d="M236 322v1112h241v-1117q0 -141 154 -141q98 0 151 74h258q-105 -273 -422 -273q-196 0 -289 91.5t-93 253.5z" />
<glyph unicode="m" d="M63 0v971h207v-68q43 88 154 88q128 0 199 -127q77 127 211 127q299 0 299 -432v-559h-207v561q0 215 -119 215q-51 0 -81 -45.5t-30 -126.5v-604h-196v561q0 215 -117 215q-113 0 -113 -172v-604h-207z" />
<glyph unicode="n" d="M172 0v971h240v-68q64 88 219 88q395 0 395 -432v-559h-240v543q0 233 -192 233q-87 0 -134.5 -47.5t-47.5 -138.5v-590h-240z" />
<glyph unicode="o" d="M121 485q0 256 137 381q139 127 336 127q195 0 334 -127t139 -381q0 -106 -27 -192.5t-72 -143.5t-107 -96t-128.5 -56t-138.5 -17t-138.5 17t-128.5 56t-107 96t-72 143.5t-27 192.5zM369 485q0 -146 63.5 -223.5t161.5 -77.5q99 0 162 77.5t63 223.5t-63 224.5 t-162 78.5q-97 0 -161 -78.5t-64 -224.5z" />
<glyph unicode="p" d="M176 -410v1381h240v-66q76 88 221 88q203 0 320.5 -130t117.5 -378q0 -247 -117.5 -376t-320.5 -129q-135 0 -221 86v-476h-240zM416 485q0 -151 54 -228t153 -77q98 0 153 79t55 226q0 148 -55 227t-153 79t-152.5 -78t-54.5 -228z" />
<glyph unicode="q" d="M121 485q0 256 137 381q139 127 336 127q195 0 334 -127t139 -381q0 -207 -96.5 -332t-257.5 -159v-119q0 -100 80 -100q63 0 104 71h242q-37 -129 -137 -200.5t-222 -71.5q-307 0 -307 297v123q-162 34 -257 159t-95 332zM369 485q0 -146 63.5 -223.5t161.5 -77.5 q99 0 162 77.5t63 223.5t-63 224.5t-162 78.5q-97 0 -161 -78.5t-64 -224.5z" />
<glyph unicode="r" d="M61 0v195h175v415q0 184 109.5 282.5t303.5 98.5q138 0 245 -69.5t155 -202.5h-258q-44 72 -154 72q-162 0 -162 -170v-426h369v-195h-783z" />
<glyph unicode="s" d="M145 643q0 154 117.5 251t325.5 97q352 0 440 -282h-256q-50 90 -194 90q-79 0 -125.5 -31t-46.5 -82q0 -75 139 -78l186 -6q326 -15 326 -260q0 -157 -127 -260q-126 -102 -324 -102q-183 0 -294 63.5t-158 216.5h262q41 -84 184 -84q87 0 141 37.5t54 95.5q0 43 -36 65 t-114 23l-184 6q-316 9 -316 240z" />
<glyph unicode="t" d="M221 326v811h240v-201h442v-193h-442v-426q0 -141 157 -141q107 0 154 74h270q-103 -275 -430 -275q-219 0 -305 95t-86 256z" />
<glyph unicode="u" d="M162 412v559h239v-543q0 -231 193 -231q88 0 135 46.5t47 137.5v590h240v-971h-240v68q-64 -88 -219 -88q-395 0 -395 432z" />
<glyph unicode="v" d="M63 971h261l270 -672l270 672h258l-397 -971h-262z" />
<glyph unicode="w" d="M51 971h234l100 -660l117 361h186l115 -361l100 660h236l-166 -971h-244l-135 422l-135 -422h-242z" />
<glyph unicode="x" d="M78 0l373 489l-369 482h280l232 -295l229 295h281l-369 -484l375 -487h-279l-239 303l-232 -303h-282z" />
<glyph unicode="y" d="M172 426v545h240v-545q0 -117 44.5 -173t141.5 -56q186 0 186 229v545h242v-545q0 -387 -311 -434v-117q0 -100 80 -100q63 0 104 71h238q-40 -130 -137 -201t-218 -71q-307 0 -307 297v121q-303 52 -303 434z" />
<glyph unicode="z" d="M172 772v199h821v-178l-481 -592h504v-201h-834v184l477 588h-487z" />
<glyph unicode="{" d="M193 418v209h59q97 0 139 26q68 41 68 148v428q0 189 98 262q95 74 338 74h80v-207h-90q-101 0 -140 -33q-36 -26 -36 -108v-482q0 -161 -172 -213q172 -52 172 -213v-481q0 -83 36 -109q38 -32 140 -32h90v-207h-80q-243 0 -338 74q-98 73 -98 262v428q0 106 -68 147 q-43 27 -139 27h-59z" />
<glyph unicode="|" d="M469 -410v1844h250v-1844h-250z" />
<glyph unicode="}" d="M190 -313h93q105 0 137 32q39 26 39 109v481q0 164 172 213q-172 52 -172 213v482q0 82 -39 108q-33 33 -137 33h-93v207h80q240 0 340 -74q97 -75 97 -262v-428q0 -108 67 -148q45 -26 139 -26h60v-209h-60q-93 0 -139 -27q-67 -40 -67 -147v-428q0 -187 -97 -262 q-100 -74 -340 -74h-80v207z" />
<glyph unicode="~" d="M131 487q67 295 289 295q60 0 162 -30l47 -15q83 -22 108 -22q73 0 107 108l215 -37q-67 -294 -291 -294q-60 0 -162 30l-45 15q-86 22 -110 22q-75 0 -105 -108z" />
<glyph unicode="&#xa0;" />
<glyph unicode="&#xa1;" d="M420 840q0 69 45 110t129 41t129 -41t45 -110q0 -68 -45.5 -110t-128.5 -42t-128.5 42t-45.5 110zM469 -360v833h250v-833h-250z" />
<glyph unicode="&#xa2;" d="M121 668q0 214 102.5 341t280.5 154v199h196v-193q150 -17 239.5 -96t113.5 -201h-246q-27 81 -113 97v-607q94 15 121 99h246q-24 -123 -114.5 -201.5t-246.5 -95.5v-193h-196v199q-181 30 -282 156.5t-101 341.5zM365 668q0 -230 151 -289v575q-151 -59 -151 -286z" />
<glyph unicode="&#xa3;" d="M166 0v858q0 243 121 368.5t325 125.5q155 0 272.5 -88t164.5 -238h-254q-62 121 -183 121q-196 0 -196 -254v-162h311v-180h-311v-342h555v-209h-805z" />
<glyph unicode="&#xa4;" d="M90 172l158 160q-56 94 -56 206.5t56 206.5l-158 158l113 115l153 -154q98 76 238 76q139 0 237 -76l154 154l113 -115l-158 -158q56 -94 56 -206.5t-56 -206.5l158 -160l-113 -115l-154 154q-103 -74 -237 -74q-135 0 -238 74l-153 -154zM389 539q0 -91 57 -154 q58 -61 148 -61q89 0 147 61q58 64 58 154t-58 151q-59 62 -147 62q-89 0 -148 -62q-57 -60 -57 -151z" />
<glyph unicode="&#xa5;" d="M37 1331h289l268 -497l270 497h287l-365 -608h226v-158h-303v-137h303v-158h-293v-270h-250v270h-291v158h301v137h-301v158h223z" />
<glyph unicode="&#xa6;" d="M469 352h250v-762h-250v762zM469 672v762h250v-762h-250z" />
<glyph unicode="&#xa7;" d="M141 453q0 194 142 303q-113 70 -113 245q0 146 111 248q112 103 317 103q350 0 406 -281h-250q-35 84 -170 84q-82 0 -125 -39t-43 -102q0 -126 198 -135q200 -11 315 -115.5t115 -294.5q0 -196 -143 -303q117 -76 117 -246q0 -147 -113 -248q-111 -102 -319 -102 q-349 0 -402 280h248q35 -83 168 -83q82 0 126 39t44 102q0 126 -199 135q-190 9 -313 113q-117 102 -117 297zM387 461q0 -95 62 -154q62 -57 145.5 -57t144.5 57q62 59 62 154q0 94 -62 153q-61 57 -145 57t-145 -57q-62 -59 -62 -153z" />
<glyph unicode="&#xa8;" d="M292 1274q0 51 32 88t90 37t90 -37t32 -88t-32 -88t-90 -37t-90 37t-32 88zM649 1274q0 52 34.5 88.5t88.5 36.5q76 4 108 -60.5t0 -129t-108 -60.5q-54 0 -88.5 36.5t-34.5 88.5z" />
<glyph unicode="&#xa9;" d="M68 666q0 299 149 491q151 195 379 195q224 0 375 -195q149 -192 149 -491q0 -300 -149 -492q-150 -194 -375 -194q-229 0 -379 194q-149 192 -149 492zM209 666q0 -244 106 -394q108 -153 281 -153q170 0 278 153q109 154 109 394q0 239 -109 393q-108 153 -278 153 q-173 0 -281 -153q-106 -150 -106 -393zM350 672q0 177 66.5 266.5t177.5 89.5q80 0 140.5 -54.5t86.5 -152.5h-139q-24 80 -88 80q-109 0 -109 -229q0 -232 109 -232q64 0 88 82h139q-26 -98 -86.5 -152.5t-140.5 -54.5q-111 0 -177.5 89t-66.5 268z" />
<glyph unicode="&#xaa;" d="M213 928q0 87 90 144.5t260 57.5q91 0 170 -24v27q0 88 -145 88q-112 0 -142 -50h-213q53 179 355 179q187 0 270.5 -54t83.5 -180v-379h-205v17q-76 -29 -174 -29q-172 0 -261 56.5t-89 146.5zM422 928q0 -74 156 -74q50 0 87 11t54 27t17 35.5t-17 35.5t-54 27t-87 11 q-156 0 -156 -73z" />
<glyph unicode="&#xab;" d="M139 479q0 176 121 271q119 98 287 92v-199q-79 0 -133 -44t-54 -120q0 -78 53.5 -121t133.5 -43v-198q-165 -6 -287 90q-121 100 -121 272zM639 479q0 176 121 271q119 98 287 92v-199q-78 0 -132.5 -44t-54.5 -120q0 -78 54.5 -121t132.5 -43v-198q-165 -6 -287 90 q-121 100 -121 272z" />
<glyph unicode="&#xac;" d="M152 520v209h884v-516h-223v307h-661z" />
<glyph unicode="&#xad;" d="M266 420v207h656v-207h-656z" />
<glyph unicode="&#xae;" d="M68 666q0 299 149 491q151 195 379 195q224 0 375 -195q149 -192 149 -491q0 -300 -149 -492q-150 -194 -375 -194q-229 0 -379 194q-149 192 -149 492zM209 666q0 -244 106 -394q108 -153 281 -153q170 0 278 153q109 154 109 394q0 239 -109 393q-108 153 -278 153 q-173 0 -281 -153q-106 -150 -106 -393zM375 328v688h213q123 0 190.5 -58t67.5 -159q0 -139 -111 -197l88 -274h-139l-74 250h-104v-250h-131zM506 700h88q115 0 115 99q0 44 -30.5 70t-84.5 26h-88v-195z" />
<glyph unicode="&#xaf;" d="M356 1165v183h475v-183h-475z" />
<glyph unicode="&#xb0;" d="M240 1018q0 146 100 239q103 95 254 95t254 -95q100 -93 100 -239q0 -147 -100 -240q-101 -94 -254 -94t-254 94q-100 93 -100 240zM429 1018.5q0 -70.5 44 -117.5q45 -45 121 -45t121 45q44 47 44 117.5t-44 114.5q-47 47 -121 47t-121 -47q-44 -44 -44 -114.5z" />
<glyph unicode="&#xb1;" d="M152 39v209h884v-209h-884zM152 774v209h327v332h223v-332h334v-209h-334v-332h-223v332h-327z" />
<glyph unicode="&#xb4;" d="M328 1110l284 307h248l-289 -307h-243z" />
<glyph unicode="&#xb5;" d="M166 -410v1381h242v-543q0 -118 45.5 -174.5t144.5 -56.5q88 0 135 46.5t47 137.5v590h240v-971h-240v68q-64 -88 -219 -88q-104 0 -153 38v-428h-242z" />
<glyph unicode="&#xb6;" d="M49 901q0 202 107.5 316t298.5 114h635v-1741h-183v1532h-127v-1532h-180v1532h-145q-83 0 -129.5 -57t-46.5 -164t46.5 -164t129.5 -57h49v-209h-49q-192 0 -299 113.5t-107 316.5z" />
<glyph unicode="&#xb7;" d="M418 641q0 66 43 109t121 43q77 0 120 -43q44 -43 44 -109t-44 -109q-43 -43 -120 -43q-78 0 -121 43t-43 109z" />
<glyph unicode="&#xb8;" d="M340 -281h176q18 -49 78 -49q36 0 59 19t23 49q0 38 -46.5 60.5t-135.5 21.5v127q164 12 260 -47.5t96 -161.5q0 -97 -73.5 -158t-186.5 -61q-97 0 -167 51t-83 149z" />
<glyph unicode="&#xba;" d="M178 1036q0 160 119 236q122 78 287 78q160 0 282 -78q121 -77 121 -236q0 -157 -121 -237q-122 -78 -282 -78q-165 0 -287 78q-119 79 -119 237zM387 1036q0 -87 54 -132.5t143 -45.5q88 0 141 45t53 133q0 87 -54 132.5t-140 45.5q-89 0 -143 -45.5t-54 -132.5z" />
<glyph unicode="&#xbb;" d="M141 113v198q78 0 132.5 44t54.5 120q0 78 -54.5 121t-132.5 43v199q165 6 285 -93q123 -95 123 -270q0 -173 -123 -272q-122 -96 -285 -90zM641 113v198q78 0 132 44t54 120q0 78 -54 121t-132 43v199q167 6 287 -93q121 -95 121 -270q0 -172 -121 -272 q-122 -96 -287 -90z" />
<glyph unicode="&#xbc;" d="M29 1001v177l182 153h115v-819h-150v614zM283 0l327 1331h154l-328 -1331h-153zM666 158v121l90 540h151l-78 -512h105v195h147v-195h58v-149h-58v-158h-147v158h-268z" />
<glyph unicode="&#xbd;" d="M29 1001v177l182 153h115v-819h-150v614zM268 0l326 1331h156l-328 -1331h-154zM690 614q23 103 81 160t142 57q94 0 147.5 -65t53.5 -166q0 -68 -27 -133q-22 -59 -98 -180l-86 -135h211v-152h-403v143l149 236q98 148 98 219q0 84 -55 84q-43 0 -61 -68h-152z" />
<glyph unicode="&#xbe;" d="M18 1126q23 103 80.5 160t137.5 57q93 0 148.5 -64.5t55.5 -168.5q0 -123 -63 -174q72 -60 72 -191q0 -106 -56.5 -175.5t-152.5 -69.5q-80 0 -137 57t-80 160h151q18 -70 66 -70q55 0 55 101q0 108 -80 108h-37v150h33q78 0 78 100q0 88 -53 88q-47 0 -62 -68h-156z M340 0l328 1331h155l-327 -1331h-156zM688 158v121l90 540h152l-78 -512h104v195h148v-195h57v-149h-57v-158h-148v158h-268z" />
<glyph unicode="&#xbf;" d="M127 29q0 217 153 338.5t461 115.5v-209q-360 9 -360 -239q0 -94 60.5 -152.5t158.5 -58.5q151 0 221 119h256q-47 -150 -176 -236q-131 -88 -301 -88q-208 0 -340 111q-133 109 -133 299zM459 840q0 69 45 110t129 41t129 -41t45 -110q0 -68 -45.5 -110t-128.5 -42 t-128.5 42t-45.5 110z" />
<glyph unicode="&#xc0;" d="M45 0l393 1331h312l393 -1331h-258l-97 319h-389l-96 -319h-258zM205 1827h244l288 -307h-245zM451 530h286l-143 492z" />
<glyph unicode="&#xc1;" d="M45 0l393 1331h312l393 -1331h-258l-97 319h-389l-96 -319h-258zM451 530h286l-143 492zM457 1520l284 307h248l-289 -307h-243z" />
<glyph unicode="&#xc2;" d="M45 0l393 1331h312l393 -1331h-258l-97 319h-389l-96 -319h-258zM195 1528l286 299h226l286 -299h-258l-141 147l-141 -147h-258zM451 530h286l-143 492z" />
<glyph unicode="&#xc3;" d="M45 0l393 1331h312l393 -1331h-258l-97 319h-389l-96 -319h-258zM225 1528q55 260 236 260q41 0 125 -23l35 -10q69 -16 84 -16q69 0 90 98l168 -22q-55 -261 -236 -261q-49 0 -125 21l-35 10q-65 19 -84 19q-69 0 -90 -99zM451 530h286l-143 492z" />
<glyph unicode="&#xc4;" d="M45 0l393 1331h312l393 -1331h-258l-97 319h-389l-96 -319h-258zM293 1683.5q0 53.5 31 88.5q32 37 90 37t90 -37q35 -37 35 -88.5t-35 -88.5q-32 -37 -90 -37t-90 35q-31 37 -31 90.5zM451 530h286l-143 492zM667 1619.5q-31 64.5 0 128.5t105 60q77 4 109 -60.5 t0 -128.5t-109 -60q-74 -4 -105 60.5z" />
<glyph unicode="&#xc5;" d="M45 0l393 1331h312l393 -1331h-258l-97 319h-389l-96 -319h-258zM350 1696q0 106 70 164q71 59 174 59q101 0 172 -59q72 -60 72 -164q0 -106 -72 -166q-69 -57 -172 -57q-105 0 -174 57q-70 58 -70 166zM451 530h286l-143 492zM512 1695.5q0 -48.5 25 -71.5 q26 -23 56.5 -23t55.5 23q26 23 26 71.5t-26 71.5q-25 23 -55.5 23t-56.5 -23q-25 -23 -25 -71.5z" />
<glyph unicode="&#xc6;" d="M47 0l383 1331h678v-209h-283v-346h265v-207h-265v-362h283v-207h-512v319h-209l-90 -319h-250zM434 530h162v576z" />
<glyph unicode="&#xc7;" d="M96 666q0 181 42.5 318.5t117.5 217.5q144 150 367 150q173 0 296 -96.5t177 -278.5h-262q-62 160 -211 160q-269 0 -269 -471t269 -471q150 0 211 159h262q-54 -182 -177 -278t-296 -96q-224 0 -367 149q-75 80 -117.5 218t-42.5 319zM352 -281h178q18 -49 78 -49 q35 0 57.5 18.5t22.5 49.5q0 85 -180 82v127q163 12 258.5 -47.5t95.5 -161.5q0 -98 -72.5 -158.5t-185.5 -60.5q-96 0 -166 51t-86 149z" />
<glyph unicode="&#xc8;" d="M190 0v1331h814v-209h-564v-346h535v-207h-535v-362h568v-207h-818zM229 1827h244l289 -307h-246z" />
<glyph unicode="&#xc9;" d="M190 0v1331h814v-209h-564v-346h535v-207h-535v-362h568v-207h-818zM483 1520l285 307h248l-289 -307h-244z" />
<glyph unicode="&#xca;" d="M190 0v1331h814v-209h-564v-346h535v-207h-535v-362h568v-207h-818zM221 1528l287 299h225l287 -299h-258l-141 147l-142 -147h-258z" />
<glyph unicode="&#xcb;" d="M190 0v1331h814v-209h-564v-346h535v-207h-535v-362h568v-207h-818zM319 1683.5q0 53.5 31 88.5q32 37 90 37t90 -37q35 -37 35 -88.5t-35 -88.5q-32 -37 -90 -37t-90 35q-31 37 -31 90.5zM694 1619.5q-31 64.5 0 128.5t105 60q77 4 109 -60.5t0 -128.5t-109 -60 q-74 -4 -105 60.5z" />
<glyph unicode="&#xcc;" d="M160 0v193h309v946h-309v192h868v-192h-309v-946h309v-193h-868zM203 1827h243l289 -307h-246z" />
<glyph unicode="&#xcd;" d="M160 0v193h309v946h-309v192h868v-192h-309v-946h309v-193h-868zM455 1520l284 307h248l-289 -307h-243z" />
<glyph unicode="&#xce;" d="M160 0v193h309v946h-309v192h868v-192h-309v-946h309v-193h-868zM193 1528l286 299h226l286 -299h-258l-141 147l-141 -147h-258z" />
<glyph unicode="&#xcf;" d="M160 0v193h309v946h-309v192h868v-192h-309v-946h309v-193h-868zM291 1683.5q0 53.5 31 88.5q32 37 90 37t90 -37q35 -37 35 -88.5t-35 -88.5q-32 -37 -90 -37t-90 35q-31 37 -31 90.5zM665 1619.5q-31 64.5 0 128.5t105 60q77 4 109 -60.5t0 -128.5t-109 -60 q-74 -4 -105 60.5z" />
<glyph unicode="&#xd0;" d="M20 590v180h117v561h367q290 0 448 -180q160 -183 160 -485q0 -303 -160 -486q-158 -180 -448 -180h-367v590h-117zM385 209h119q173 0 261.5 122t88.5 335t-88.5 334.5t-261.5 121.5h-119v-352h227v-180h-227v-381z" />
<glyph unicode="&#xd1;" d="M123 0v1331h242l466 -925v925h234v-1331h-242l-467 926v-926h-233zM227 1528q55 260 236 260q41 0 125 -23l35 -10q69 -16 84 -16q69 0 90 98l168 -22q-55 -261 -236 -261q-49 0 -125 21l-35 10q-65 19 -84 19q-69 0 -90 -99z" />
<glyph unicode="&#xd2;" d="M70 666q0 176 43 309q80 243 284 336q97 39 197.5 39t193 -37.5t168.5 -124.5t117 -213q45 -131 45 -309q0 -179 -45 -310q-77 -243 -285 -336q-91 -41 -195 -41t-196 41q-204 93 -284 336q-43 133 -43 310zM205 1827h244l288 -307h-245zM328 666q0 -233 78 -355 q76 -116 188 -116t188 116q80 121 80 355t-80 352q-76 119 -188 119t-188 -119q-78 -119 -78 -352z" />
<glyph unicode="&#xd3;" d="M70 666q0 176 43 309q80 243 284 336q97 39 197.5 39t193 -37.5t168.5 -124.5t117 -213q45 -131 45 -309q0 -179 -45 -310q-77 -243 -285 -336q-91 -41 -195 -41t-196 41q-204 93 -284 336q-43 133 -43 310zM328 666q0 -233 78 -355q76 -116 188 -116t188 116 q80 121 80 355t-80 352q-76 119 -188 119t-188 -119q-78 -119 -78 -352zM457 1520l284 307h248l-289 -307h-243z" />
<glyph unicode="&#xd4;" d="M70 666q0 176 43 309q80 243 284 336q97 39 197.5 39t193 -37.5t168.5 -124.5t117 -213q45 -131 45 -309q0 -179 -45 -310q-77 -243 -285 -336q-91 -41 -195 -41t-196 41q-204 93 -284 336q-43 133 -43 310zM195 1528l286 299h226l286 -299h-258l-141 147l-141 -147h-258 zM328 666q0 -233 78 -355q76 -116 188 -116t188 116q80 121 80 355t-80 352q-76 119 -188 119t-188 -119q-78 -119 -78 -352z" />
<glyph unicode="&#xd5;" d="M70 666q0 176 43 309q80 243 284 336q97 39 197.5 39t193 -37.5t168.5 -124.5t117 -213q45 -131 45 -309q0 -179 -45 -310q-77 -243 -285 -336q-91 -41 -195 -41t-196 41q-204 93 -284 336q-43 133 -43 310zM225 1528q55 260 236 260q41 0 125 -23l35 -10q69 -16 84 -16 q69 0 90 98l168 -22q-55 -261 -236 -261q-49 0 -125 21l-35 10q-65 19 -84 19q-69 0 -90 -99zM328 666q0 -233 78 -355q76 -116 188 -116t188 116q80 121 80 355t-80 352q-76 119 -188 119t-188 -119q-78 -119 -78 -352z" />
<glyph unicode="&#xd6;" d="M70 666q0 176 43 309q80 243 284 336q97 39 197.5 39t193 -37.5t168.5 -124.5t117 -213q45 -131 45 -309q0 -179 -45 -310q-77 -243 -285 -336q-91 -41 -195 -41t-196 41q-204 93 -284 336q-43 133 -43 310zM293 1683.5q0 53.5 31 88.5q32 37 90 37t90 -37 q35 -37 35 -88.5t-35 -88.5q-32 -37 -90 -37t-90 35q-31 37 -31 90.5zM328 666q0 -233 78 -355q76 -116 188 -116t188 116q80 121 80 355t-80 352q-76 119 -188 119t-188 -119q-78 -119 -78 -352zM667 1619.5q-31 64.5 0 128.5t105 60q77 4 109 -60.5t0 -128.5t-109 -60 q-74 -4 -105 60.5z" />
<glyph unicode="&#xd7;" d="M186 360l265 265l-265 264l144 143l262 -264l266 264l141 -143l-262 -264l262 -265l-141 -145l-266 264l-262 -262z" />
<glyph unicode="&#xd8;" d="M70 666q0 170 43 306.5t118 217.5q153 162 363 162q112 0 203 -49l63 131h215l-119 -246q162 -186 162 -522q0 -170 -44 -307t-120 -218q-149 -161 -360 -161q-113 0 -199 45l-71 -152h-213l122 266q-163 184 -163 527zM328 666q0 -164 51 -269l315 705q-44 35 -100 35 q-116 0 -191 -122.5t-75 -348.5zM496 223q48 -28 98 -28q116 0 192 123t76 348q0 142 -47 260z" />
<glyph unicode="&#xd9;" d="M115 543v788h250v-788q0 -353 229 -353t229 353v788h250v-788q0 -277 -128 -419t-351 -142t-351 142t-128 419zM188 1827h244l289 -307h-246z" />
<glyph unicode="&#xda;" d="M115 543v788h250v-788q0 -353 229 -353t229 353v788h250v-788q0 -277 -128 -419t-351 -142t-351 142t-128 419zM440 1520l285 307h248l-289 -307h-244z" />
<glyph unicode="&#xdb;" d="M115 543v788h250v-788q0 -353 229 -353t229 353v788h250v-788q0 -277 -128 -419t-351 -142t-351 142t-128 419zM178 1528l287 299h225l287 -299h-258l-141 147l-142 -147h-258z" />
<glyph unicode="&#xdc;" d="M115 543v788h250v-788q0 -353 229 -353t229 353v788h250v-788q0 -277 -128 -419t-351 -142t-351 142t-128 419zM276 1683.5q0 53.5 31 88.5q32 37 90 37t90 -37q35 -37 35 -88.5t-35 -88.5q-32 -37 -90 -37t-90 35q-31 37 -31 90.5zM651 1619.5q-31 64.5 0 128.5t105 60 q77 4 109 -60.5t0 -128.5t-109 -60q-74 -4 -105 60.5z" />
<glyph unicode="&#xdd;" d="M37 1331h289l268 -497l270 497h287l-432 -727v-604h-250v604zM457 1520l284 307h248l-289 -307h-243z" />
<glyph unicode="&#xde;" d="M164 0v1331h248v-227h204q221 0 346 -114.5t125 -315.5q0 -202 -125 -316t-346 -114h-204v-244h-248zM412 453h204q100 0 157.5 57t57.5 164t-57.5 164t-157.5 57h-204v-442z" />
<glyph unicode="&#xdf;" d="M88 0v983q0 220 126.5 345.5t342.5 125.5q182 0 313 -98q134 -96 134 -299q0 -150 -119 -238q235 -88 235 -405q0 -232 -106 -332q-108 -102 -264 -102q-265 0 -353 278h246q31 -78 107 -78q122 0 122 234q0 262 -247 262h-150v192h88q86 0 138.5 51.5t52.5 137.5 q0 92 -52.5 145t-144.5 53q-110 0 -167.5 -73.5t-57.5 -198.5v-983h-244z" />
<glyph unicode="&#xe0;" d="M143 305q0 133 101 227q105 97 311 97q145 0 213 -51v67q0 82 -42.5 117t-131.5 35q-141 0 -168 -84h-250q58 278 418 278q222 0 320 -86t98 -287v-618h-238v45q-83 -65 -221 -65q-210 0 -311 94q-99 94 -99 231zM211 1417h244l288 -307h-245zM388 305q0 -54 44 -92 q45 -39 146 -39t147 37q49 38 49 93.5t-49 92.5q-45 39 -147 39q-101 0 -146 -39q-44 -38 -44 -92z" />
<glyph unicode="&#xe1;" d="M143 305q0 133 101 227q105 97 311 97q145 0 213 -51v67q0 82 -42.5 117t-131.5 35q-141 0 -168 -84h-250q58 278 418 278q222 0 320 -86t98 -287v-618h-238v45q-83 -65 -221 -65q-210 0 -311 94q-99 94 -99 231zM388 305q0 -54 44 -92q45 -39 146 -39t147 37 q49 38 49 93.5t-49 92.5q-45 39 -147 39q-101 0 -146 -39q-44 -38 -44 -92zM467 1110l285 307h247l-288 -307h-244z" />
<glyph unicode="&#xe2;" d="M143 305q0 133 101 227q105 97 311 97q145 0 213 -51v67q0 82 -42.5 117t-131.5 35q-141 0 -168 -84h-250q58 278 418 278q222 0 320 -86t98 -287v-618h-238v45q-83 -65 -221 -65q-210 0 -311 94q-99 94 -99 231zM205 1118l287 299h225l287 -299h-259l-141 148l-141 -148 h-258zM388 305q0 -54 44 -92q45 -39 146 -39t147 37q49 38 49 93.5t-49 92.5q-45 39 -147 39q-101 0 -146 -39q-44 -38 -44 -92z" />
<glyph unicode="&#xe3;" d="M143 305q0 133 101 227q105 97 311 97q145 0 213 -51v67q0 82 -42.5 117t-131.5 35q-141 0 -168 -84h-250q58 278 418 278q222 0 320 -86t98 -287v-618h-238v45q-83 -65 -221 -65q-210 0 -311 94q-99 94 -99 231zM236 1118q55 260 235 260q45 0 125 -22l35 -10 q73 -17 84 -17q69 0 90 98l168 -22q-55 -260 -236 -260q-52 0 -125 20l-34 11q-61 18 -84 18q-70 0 -91 -98zM388 305q0 -54 44 -92q45 -39 146 -39t147 37q49 38 49 93.5t-49 92.5q-45 39 -147 39q-101 0 -146 -39q-44 -38 -44 -92z" />
<glyph unicode="&#xe4;" d="M143 305q0 133 101 227q105 97 311 97q145 0 213 -51v67q0 82 -42.5 117t-131.5 35q-141 0 -168 -84h-250q58 278 418 278q222 0 320 -86t98 -287v-618h-238v45q-83 -65 -221 -65q-210 0 -311 94q-99 94 -99 231zM302 1274q0 51 32 88t90 37t90 -37t32 -88t-32 -88 t-90 -37t-90 37t-32 88zM388 305q0 -54 44 -92q45 -39 146 -39t147 37q49 38 49 93.5t-49 92.5q-45 39 -147 39q-101 0 -146 -39q-44 -38 -44 -92zM659 1274q0 52 34.5 88.5t88.5 36.5q76 4 108 -60.5t0 -129t-108 -60.5q-54 0 -88.5 36.5t-34.5 88.5z" />
<glyph unicode="&#xe5;" d="M143 305q0 133 101 227q105 97 311 97q145 0 213 -51v67q0 82 -42.5 117t-131.5 35q-141 0 -168 -84h-250q58 278 418 278q222 0 320 -86t98 -287v-618h-238v45q-83 -65 -221 -65q-210 0 -311 94q-99 94 -99 231zM360 1286q0 106 70 164q71 59 174 59q101 0 172 -59 q72 -60 72 -164q0 -106 -72 -166q-69 -57 -172 -57q-105 0 -174 57q-70 58 -70 166zM388 305q0 -54 44 -92q45 -39 146 -39t147 37q49 38 49 93.5t-49 92.5q-45 39 -147 39q-101 0 -146 -39q-44 -38 -44 -92zM522 1286q0 -49 25 -72q26 -23 56.5 -23t55.5 23q26 23 26 72 t-26 72q-25 23 -55.5 23t-56.5 -23q-25 -23 -25 -72z" />
<glyph unicode="&#xe6;" d="M59 305q0 130 74 225q77 99 225 99q86 0 129 -49v75q0 142 -96 142q-75 0 -96 -84h-213q43 278 305 278q173 0 231 -123q67 125 199 125q143 0 227 -133t84 -360l-2 -88h-430q1 -112 33.5 -172t85.5 -60q74 0 92 101h211q-28 -138 -104 -219.5t-201 -81.5 q-138 0 -221 133q-77 -133 -236 -133q-143 0 -220 91.5t-77 233.5zM267 305q0 -34 11.5 -63t37.5 -48.5t61 -19.5q72 -5 102.5 63t0 136t-102.5 63q-35 0 -61 -19.5t-37.5 -48.5t-11.5 -63zM700 598h218q-6 203 -107 203q-45 0 -75 -52.5t-36 -150.5z" />
<glyph unicode="&#xe7;" d="M139 485q0 247 129 377.5t350 130.5q178 0 286.5 -82.5t135.5 -218.5h-252q-37 101 -172 101q-103 0 -166 -80t-63 -228q0 -149 63.5 -227t172.5 -78q137 0 174 101h252q-27 -136 -138 -218.5t-293 -82.5q-222 0 -350.5 129t-128.5 376zM354 -281h176q18 -49 78 -49 q36 0 59 19t23 49q0 38 -46.5 60.5t-135.5 21.5v127q164 12 260 -47.5t96 -161.5q0 -97 -73.5 -158t-186.5 -61q-97 0 -167 51t-83 149z" />
<glyph unicode="&#xe8;" d="M131 475q0 235 133 377q132 141 342 141q205 0 328 -135t123 -358l-4 -88h-670q12 -111 73 -171.5t154 -60.5q138 0 178 101h252q-37 -138 -146.5 -219.5t-287.5 -81.5q-207 0 -340 124q-135 126 -135 371zM211 1417h244l288 -307h-245zM389 598h418q-10 100 -65 151.5 t-142 51.5q-83 0 -141 -53t-70 -150z" />
<glyph unicode="&#xe9;" d="M131 475q0 235 133 377q132 141 342 141q205 0 328 -135t123 -358l-4 -88h-670q12 -111 73 -171.5t154 -60.5q138 0 178 101h252q-37 -138 -146.5 -219.5t-287.5 -81.5q-207 0 -340 124q-135 126 -135 371zM389 598h418q-10 100 -65 151.5t-142 51.5q-83 0 -141 -53 t-70 -150zM467 1110l285 307h247l-288 -307h-244z" />
<glyph unicode="&#xea;" d="M131 475q0 235 133 377q132 141 342 141q205 0 328 -135t123 -358l-4 -88h-670q12 -111 73 -171.5t154 -60.5q138 0 178 101h252q-37 -138 -146.5 -219.5t-287.5 -81.5q-207 0 -340 124q-135 126 -135 371zM205 1118l287 299h225l287 -299h-259l-141 148l-141 -148h-258z M389 598h418q-10 100 -65 151.5t-142 51.5q-83 0 -141 -53t-70 -150z" />
<glyph unicode="&#xeb;" d="M131 475q0 235 133 377q132 141 342 141q205 0 328 -135t123 -358l-4 -88h-670q12 -111 73 -171.5t154 -60.5q138 0 178 101h252q-37 -138 -146.5 -219.5t-287.5 -81.5q-207 0 -340 124q-135 126 -135 371zM304 1274q0 51 32 88t90 37t90 -37t32 -88t-32 -88t-90 -37 t-90 37t-32 88zM389 598h418q-10 100 -65 151.5t-142 51.5q-83 0 -141 -53t-70 -150zM662 1274q0 52 34 88.5t88 36.5q76 4 108 -60.5t0 -129t-108 -60.5q-54 0 -88 36.5t-34 88.5z" />
<glyph unicode="&#xec;" d="M150 0v195h337v559h-323v194h565v-753h318v-195h-897zM211 1417h244l288 -307h-245z" />
<glyph unicode="&#xed;" d="M150 0v195h337v559h-323v194h565v-753h318v-195h-897zM461 1110l284 307h248l-288 -307h-244z" />
<glyph unicode="&#xee;" d="M150 0v195h337v559h-323v194h565v-753h318v-195h-897zM205 1118l287 299h225l287 -299h-259l-141 148l-141 -148h-258z" />
<glyph unicode="&#xef;" d="M150 0v195h337v559h-323v194h565v-753h318v-195h-897zM302 1274q0 51 32 88t90 37t90 -37t32 -88t-32 -88t-90 -37t-90 37t-32 88zM659 1274q0 52 34.5 88.5t88.5 36.5q76 4 108 -60.5t0 -129t-108 -60.5q-54 0 -88.5 36.5t-34.5 88.5z" />
<glyph unicode="&#xf0;" d="M125 485q0 256 137 381q139 127 332 127q34 0 63 -16l-61 143h-254v180h182l-55 134h258l55 -134h211v-180h-137l145 -344q62 -145 62 -291q0 -256 -137 -381q-136 -124 -332 -124t-332 124q-137 125 -137 381zM373 485q0 -146 62 -223.5t159 -77.5t159 77.5t62 223.5 t-62 224.5t-159 78.5q-96 0 -158.5 -78.5t-62.5 -224.5z" />
<glyph unicode="&#xf1;" d="M172 0v971h240v-68q64 88 219 88q395 0 395 -432v-559h-240v543q0 233 -192 233q-87 0 -134.5 -47.5t-47.5 -138.5v-590h-240zM260 1118q55 260 236 260q45 0 125 -22l34 -10q73 -17 84 -17q69 0 90 98l168 -22q-55 -260 -235 -260q-52 0 -125 20l-35 11q-61 18 -84 18 q-69 0 -90 -98z" />
<glyph unicode="&#xf2;" d="M121 485q0 256 137 381q139 127 336 127q195 0 334 -127t139 -381q0 -106 -27 -192.5t-72 -143.5t-107 -96t-128.5 -56t-138.5 -17t-138.5 17t-128.5 56t-107 96t-72 143.5t-27 192.5zM201 1417h243l289 -307h-246zM369 485q0 -146 63.5 -223.5t161.5 -77.5 q99 0 162 77.5t63 223.5t-63 224.5t-162 78.5q-97 0 -161 -78.5t-64 -224.5z" />
<glyph unicode="&#xf3;" d="M121 485q0 256 137 381q139 127 336 127q195 0 334 -127t139 -381q0 -106 -27 -192.5t-72 -143.5t-107 -96t-128.5 -56t-138.5 -17t-138.5 17t-128.5 56t-107 96t-72 143.5t-27 192.5zM369 485q0 -146 63.5 -223.5t161.5 -77.5q99 0 162 77.5t63 223.5t-63 224.5 t-162 78.5q-97 0 -161 -78.5t-64 -224.5zM457 1110l284 307h248l-289 -307h-243z" />
<glyph unicode="&#xf4;" d="M121 485q0 256 137 381q139 127 336 127q195 0 334 -127t139 -381q0 -106 -27 -192.5t-72 -143.5t-107 -96t-128.5 -56t-138.5 -17t-138.5 17t-128.5 56t-107 96t-72 143.5t-27 192.5zM195 1118l286 299h226l286 -299h-258l-141 148l-141 -148h-258zM369 485 q0 -146 63.5 -223.5t161.5 -77.5q99 0 162 77.5t63 223.5t-63 224.5t-162 78.5q-97 0 -161 -78.5t-64 -224.5z" />
<glyph unicode="&#xf5;" d="M121 485q0 256 137 381q139 127 336 127q195 0 334 -127t139 -381q0 -106 -27 -192.5t-72 -143.5t-107 -96t-128.5 -56t-138.5 -17t-138.5 17t-128.5 56t-107 96t-72 143.5t-27 192.5zM225 1118q55 260 236 260q45 0 125 -22l35 -10q73 -17 84 -17q69 0 90 98l168 -22 q-55 -260 -236 -260q-52 0 -125 20l-35 11q-61 18 -84 18q-69 0 -90 -98zM369 485q0 -146 63.5 -223.5t161.5 -77.5q99 0 162 77.5t63 223.5t-63 224.5t-162 78.5q-97 0 -161 -78.5t-64 -224.5z" />
<glyph unicode="&#xf6;" d="M121 485q0 256 137 381q139 127 336 127q195 0 334 -127t139 -381q0 -106 -27 -192.5t-72 -143.5t-107 -96t-128.5 -56t-138.5 -17t-138.5 17t-128.5 56t-107 96t-72 143.5t-27 192.5zM292 1274q0 51 32 88t90 37t90 -37t32 -88t-32 -88t-90 -37t-90 37t-32 88zM369 485 q0 -146 63.5 -223.5t161.5 -77.5q99 0 162 77.5t63 223.5t-63 224.5t-162 78.5q-97 0 -161 -78.5t-64 -224.5zM649 1274q0 52 34.5 88.5t88.5 36.5q76 4 108 -60.5t0 -129t-108 -60.5q-54 0 -88.5 36.5t-34.5 88.5z" />
<glyph unicode="&#xf7;" d="M152 520v209h884v-209h-884zM436 1010q0 67 43 109t117 42q72 0 115 -43t43 -108t-43 -107.5t-115 -42.5q-74 0 -117 41.5t-43 108.5zM455.5 160q-41.5 80 0 159.5t140.5 71.5q97 6 138 -72.5t0 -157.5t-138 -73q-99 -8 -140.5 72z" />
<glyph unicode="&#xf8;" d="M109 485q0 254 139 381t334 127q104 0 188 -41l84 140h201l-135 -228q135 -135 135 -379q0 -106 -27 -192.5t-72 -143.5t-107 -96t-128.5 -56t-138.5 -17q-96 0 -179 30l-81 -135h-199l133 223q-147 138 -147 387zM356 485q0 -92 41 -157l260 440q-33 20 -75 20 q-99 0 -162.5 -78.5t-63.5 -224.5zM516 197q27 -15 66 -15q99 0 162 78.5t63 224.5q0 84 -29 150z" />
<glyph unicode="&#xf9;" d="M162 412v559h239v-543q0 -231 193 -231q88 0 135 46.5t47 137.5v590h240v-971h-240v68q-64 -88 -219 -88q-395 0 -395 432zM195 1417h243l289 -307h-246z" />
<glyph unicode="&#xfa;" d="M162 412v559h239v-543q0 -231 193 -231q88 0 135 46.5t47 137.5v590h240v-971h-240v68q-64 -88 -219 -88q-395 0 -395 432zM444 1110l285 307h248l-289 -307h-244z" />
<glyph unicode="&#xfb;" d="M162 412v559h239v-543q0 -231 193 -231q88 0 135 46.5t47 137.5v590h240v-971h-240v68q-64 -88 -219 -88q-395 0 -395 432zM186 1118l287 299h225l287 -299h-258l-141 148l-142 -148h-258z" />
<glyph unicode="&#xfc;" d="M162 412v559h239v-543q0 -231 193 -231q88 0 135 46.5t47 137.5v590h240v-971h-240v68q-64 -88 -219 -88q-395 0 -395 432zM285 1274q0 51 32 88t90.5 37t90.5 -37t32 -88t-32 -88t-90.5 -37t-90.5 37t-32 88zM643 1274q0 52 34.5 88.5t88.5 36.5q76 4 108 -60.5t0 -129 t-108 -60.5q-54 0 -88.5 36.5t-34.5 88.5z" />
<glyph unicode="&#xfd;" d="M172 426v545h240v-545q0 -117 44.5 -173t141.5 -56q186 0 186 229v545h242v-545q0 -387 -311 -434v-117q0 -100 80 -100q63 0 104 71h238q-40 -130 -137 -201t-218 -71q-307 0 -307 297v121q-303 52 -303 434zM455 1110l284 307h248l-289 -307h-243z" />
<glyph unicode="&#xfe;" d="M176 -410v1844h240v-529q76 88 221 88q203 0 320.5 -130t117.5 -378q0 -247 -117.5 -376t-320.5 -129q-135 0 -221 86v-476h-240zM416 485q0 -151 54 -228t153 -77q98 0 153 79t55 226q0 148 -55 227t-153 79t-152.5 -78t-54.5 -228z" />
<glyph unicode="&#xff;" d="M172 426v545h240v-545q0 -117 44.5 -173t141.5 -56q186 0 186 229v545h242v-545q0 -387 -311 -434v-117q0 -100 80 -100q63 0 104 71h238q-40 -130 -137 -201t-218 -71q-307 0 -307 297v121q-303 52 -303 434zM296 1274q0 51 32 88t90 37t90 -37t32 -88t-32 -88t-90 -37 t-90 37t-32 88zM653 1274q0 52 34.5 88.5t88.5 36.5q76 4 108 -60.5t0 -129t-108 -60.5q-54 0 -88.5 36.5t-34.5 88.5z" />
<glyph unicode="&#x152;" d="M84 666q0 686 416 686q56 0 114 -21h494v-209h-285v-346h267v-207h-267v-362h285v-207h-494q-59 -20 -114 -20q-416 0 -416 686zM305 666q0 -471 199 -471q46 0 92 16v909q-49 17 -90 17q-201 0 -201 -471z" />
<glyph unicode="&#x153;" d="M29 485q0 249 94.5 378.5t249.5 129.5q150 0 241 -162q85 162 228 162q147 0 233 -133.5t86 -359.5l-2 -88h-438q10 -110 43.5 -171t77.5 -61q69 0 90 101h219q-31 -141 -108 -221t-205 -80q-150 0 -232 155q-85 -155 -233 -155q-155 0 -249.5 129t-94.5 376zM244 485 q0 -154 37 -227q37 -74 92 -74t92 74q37 73 37 227q0 155 -37 228q-37 75 -92 75t-92 -75q-37 -73 -37 -228zM727 598h217q-21 203 -106 203q-40 0 -70.5 -53t-40.5 -150z" />
<glyph unicode="&#x178;" d="M37 1331h289l268 -497l270 497h287l-432 -727v-604h-250v604zM293 1683.5q0 53.5 31 88.5q32 37 90 37t90 -37q35 -37 35 -88.5t-35 -88.5q-32 -37 -90 -37t-90 35q-31 37 -31 90.5zM667 1619.5q-31 64.5 0 128.5t105 60q77 4 109 -60.5t0 -128.5t-109 -60 q-74 -4 -105 60.5z" />
<glyph unicode="&#x2c6;" d="M195 1118l286 299h226l286 -299h-258l-141 148l-141 -148h-258z" />
<glyph unicode="&#x2dc;" d="M225 1118q55 260 236 260q45 0 125 -22l35 -10q73 -17 84 -17q69 0 90 98l168 -22q-55 -260 -236 -260q-52 0 -125 20l-35 11q-61 18 -84 18q-69 0 -90 -98z" />
<glyph unicode="&#x2000;" horiz-adv-x="959" />
<glyph unicode="&#x2001;" horiz-adv-x="1919" />
<glyph unicode="&#x2002;" horiz-adv-x="959" />
<glyph unicode="&#x2003;" horiz-adv-x="1919" />
<glyph unicode="&#x2004;" horiz-adv-x="639" />
<glyph unicode="&#x2005;" horiz-adv-x="479" />
<glyph unicode="&#x2006;" horiz-adv-x="319" />
<glyph unicode="&#x2007;" horiz-adv-x="319" />
<glyph unicode="&#x2008;" horiz-adv-x="239" />
<glyph unicode="&#x2009;" horiz-adv-x="383" />
<glyph unicode="&#x200a;" horiz-adv-x="106" />
<glyph unicode="&#x2010;" d="M266 420v207h656v-207h-656z" />
<glyph unicode="&#x2011;" d="M266 420v207h656v-207h-656z" />
<glyph unicode="&#x2012;" d="M266 420v207h656v-207h-656z" />
<glyph unicode="&#x2013;" d="M156 418v209h876v-209h-876z" />
<glyph unicode="&#x2014;" d="M45 418v209h1098v-209h-1098z" />
<glyph unicode="&#x2018;" d="M403 874v228q0 161 86 246.5t252 85.5h105v-191h-62q-72 0 -105.5 -35.5t-33.5 -113.5v-220h-242z" />
<glyph unicode="&#x2019;" d="M342 874v191h61q72 0 106 35.5t34 113.5v220h241v-226q0 -161 -86.5 -247.5t-251.5 -86.5h-104z" />
<glyph unicode="&#x201a;" d="M336 -127h61q142 0 142 150v219h241v-226q0 -161 -86.5 -247t-251.5 -86h-106v190z" />
<glyph unicode="&#x201c;" d="M176 874v228q0 161 81 246.5t235 85.5h90v-191h-45q-123 0 -123 -149v-220h-238zM649 874v228q0 161 81 246.5t235 85.5h90v-191h-45q-123 0 -123 -149v-220h-238z" />
<glyph unicode="&#x201d;" d="M133 874v191h45q123 0 123 149v220h238v-226q0 -161 -81 -247.5t-235 -86.5h-90zM606 874v191h45q123 0 123 149v220h238v-226q0 -161 -81 -247.5t-235 -86.5h-90z" />
<glyph unicode="&#x201e;" d="M125 -127h45q123 0 123 150v219h237v-226q0 -161 -80.5 -247t-234.5 -86h-90v190zM598 -127h45q123 0 123 150v219h238v-226q0 -161 -81 -247t-235 -86h-90v190z" />
<glyph unicode="&#x2022;" d="M330 641q0 102 67 166q68 65 185 65q116 0 184 -65t68 -166t-68 -166t-184 -65q-117 0 -185 65q-67 64 -67 166z" />
<glyph unicode="&#x2026;" d="M112 131.5q0 65.5 35 108.5q37 43 98.5 43t96.5 -43q37 -43 37 -108.5t-37 -108.5q-35 -43 -96.5 -43t-98.5 43q-35 43 -35 108.5zM461 131.5q0 65.5 35 108.5q37 43 98 43t96 -43q37 -43 37 -108.5t-37 -108.5q-35 -43 -96 -43t-98 43q-35 43 -35 108.5zM809 131.5 q0 65.5 35 108.5q37 43 98 43t96 -43q37 -43 37 -108.5t-37 -108.5q-35 -43 -96 -43t-98 43q-35 43 -35 108.5z" />
<glyph unicode="&#x202f;" horiz-adv-x="383" />
<glyph unicode="&#x2039;" d="M274 479q0 178 177 273q181 96 464 90v-199q-368 0 -368 -164t368 -164v-198q-285 -9 -464 86q-177 95 -177 276z" />
<glyph unicode="&#x203a;" d="M272 117v198q369 0 369 164t-369 164v199q285 6 463 -90q178 -94 178 -273q0 -182 -178 -276q-177 -95 -463 -86z" />
<glyph unicode="&#x205f;" horiz-adv-x="479" />
<glyph unicode="&#x20ac;" d="M121 666q0 182 42 320.5t116 215.5q141 150 335 150q163 0 281 -97t172 -278h-248q-74 160 -211 160q-164 0 -217 -246h318v-156h-342q-2 -14 -2 -69l2 -70h342v-156h-318q52 -245 217 -245q138 0 211 159h248q-53 -181 -171.5 -277.5t-281.5 -96.5q-191 0 -335 147 q-74 80 -116 218.5t-42 320.5z" />
<glyph unicode="&#x2122;" d="M43 1208v123h403v-123h-133v-567h-137v567h-133zM522 641v690h148l145 -350l146 350h147v-690h-137v436l-92 -223h-127l-93 223v-436h-137z" />
<glyph unicode="&#x25fc;" horiz-adv-x="972" d="M0 0v973h973v-973h-973z" />
<glyph unicode="&#xfb01;" d="M35 0v195h135v841q0 198 112.5 307t321.5 109q168 0 278 -73.5t146 -217.5h-248q-53 90 -178 90q-190 0 -190 -223v-92h221v-193h-221v-548h196v-195h-573zM786 0v942h242v-942h-242z" />
<glyph unicode="&#xfb02;" d="M59 0v195h107v878q0 185 103.5 283t295.5 98q191 0 292 -94t101 -281v-727q0 -79 24 -118t83 -39h96v-195h-123q-164 0 -241.5 78t-77.5 244v768q0 165 -154 165q-157 0 -157 -170v-149h165v-193h-165v-548h161v-195h-510z" />
</font>
</defs>
</svg>
