<?xml version="1.0" encoding="utf-8"?>
<!-- Generator: Adobe Illustrator 16.1.0, SVG Export Plug-In . SVG Version: 6.00 Build 0)  -->
<!DOCTYPE svg PUBLIC "-//W3C//DTD SVG 1.1//EN" "http://www.w3.org/Graphics/SVG/1.1/DTD/svg11.dtd">
<svg version="1.1" id="Layer_1" xmlns="http://www.w3.org/2000/svg" xmlns:xlink="http://www.w3.org/1999/xlink" x="0px" y="0px"
	 width="92.333px" height="113.333px" viewBox="0 0 92.333 113.333" enable-background="new 0 0 92.333 113.333"
	 xml:space="preserve">
<g>
	<polygon fill="#FFFFFF" points="55.333,0 55.333,26 43.332,26 43.332,11 0.332,11 0.332,47 43.332,47 43.332,58 0.332,58 0.332,93 
		44.332,93 44.332,78 57.333,78 57.333,93 92.333,93 92.333,0 	"/>
</g>
<g>
	<path fill="#FFFFFF" d="M33.241,101.633c-0.431-0.111-0.909-0.159-1.419-0.159c-1.897,0-2.774,1.147-2.774,3.173v0.669
		c0,2.472,1.037,3.604,2.934,3.604c0.478,0,0.973-0.064,1.435-0.191v-1.562h1.738v2.121c-0.51,0.557-1.658,1.195-3.333,1.195
		c-2.966,0-4.927-1.945-4.927-5.406v-0.031c0-3.174,1.754-5.215,4.768-5.215c1.754,0,2.87,0.574,3.364,1.102v2.152h-1.786V101.633z"
		/>
	<path fill="#FFFFFF" d="M36.559,106.29v-0.031c0-2.473,1.642-3.938,3.938-3.938s3.938,1.468,3.938,3.923v0.031
		c0,2.902-1.866,4.146-3.938,4.146C38.425,110.42,36.559,109.176,36.559,106.29z M42.395,106.513v-0.574
		c0-1.467-0.766-2.265-1.897-2.265c-1.132,0-1.882,0.798-1.882,2.265v0.574c0,1.944,0.83,2.583,1.882,2.583
		C41.55,109.096,42.395,108.458,42.395,106.513z"/>
	<path fill="#FFFFFF" d="M45.473,109.145c0-0.702,0.574-1.275,1.244-1.275c0.686,0,1.244,0.573,1.244,1.275
		c0,0.669-0.559,1.244-1.244,1.244C46.047,110.388,45.473,109.814,45.473,109.145z"/>
	<path fill="#FFFFFF" d="M55.743,101.713h-3.27v2.744h3.684v1.53h-3.684v2.774h3.396v-1.467h1.689v2.949h-8.053v-1.435h0.91v-7.208
		h-0.91v-1.546h7.941v3.028h-1.705V101.713z"/>
	<path fill="#FFFFFF" d="M64.336,108.81h0.99l-1.867-2.854l-1.914,2.854h1.084v1.435h-3.778v-1.435h0.78l2.552-3.795l-2.345-3.413
		h-0.75v-1.546h4.099v1.546h-0.974l1.675,2.473l1.659-2.473h-1.006v-1.546h3.668v1.546h-0.766l-2.296,3.35l2.552,3.858h0.78v1.435
		h-4.146v-1.435H64.336z"/>
	<path fill="#FFFFFF" d="M69.665,100.056h4.065v1.546h-1.004v7.208h1.004v1.435h-4.065v-1.435h1.004v-7.208h-1.004V100.056z"/>
	<path fill="#FFFFFF" d="M80.172,101.57c-0.399-0.112-0.83-0.159-1.229-0.159c-1.021,0-1.833,0.287-1.833,1.371
		c0,0.463,0.159,0.812,0.669,1.037c0.957,0.446,2.615,0.43,3.572,1.068c0.812,0.51,1.132,1.275,1.132,2.359
		c0,2.232-1.657,3.237-3.778,3.237c-1.754,0-2.981-0.493-3.588-1.052v-2.201h1.754v1.516c0.51,0.144,1.068,0.238,1.658,0.238
		c1.164,0,1.93-0.415,1.93-1.516c0-0.479-0.16-0.78-0.623-1.004c-0.67-0.383-2.375-0.479-3.332-1.004
		c-0.909-0.51-1.293-1.371-1.293-2.521c0-2.185,1.754-3.108,3.572-3.108c1.483,0,2.584,0.398,3.125,0.908v2.152H80.17v-1.323H80.172
		z"/>
	<path fill="#FFFFFF" d="M90.713,101.667h-1.707v7.144h1.164v1.435h-4.385v-1.435h1.164v-7.144h-1.707v1.785h-1.707v-3.396h8.883
		v3.396h-1.707v-1.785H90.713z"/>
</g>
</svg>
