<?xml version="1.0" standalone="no"?>
<!DOCTYPE svg PUBLIC "-//W3C//DTD SVG 1.1//EN" "http://www.w3.org/Graphics/SVG/1.1/DTD/svg11.dtd" >
<svg xmlns="http://www.w3.org/2000/svg" xmlns:xlink="http://www.w3.org/1999/xlink" version="1.1">
<metadata></metadata>
<defs>
<font id="kaasregular" horiz-adv-x="1269" >
<font-face units-per-em="2048" ascent="1624" descent="-424" />
<missing-glyph horiz-adv-x="409" />
<glyph unicode="&#xfb01;" horiz-adv-x="1482" d="M35 -211v1552l282 283h1131v-424h-848v-70h211v-423h-211v-848zM883 0v1130h565v-1130h-565z" />
<glyph unicode="&#xfb02;" horiz-adv-x="1482" d="M35 -211v1552l282 283h637v-211l211 211h283v-1624h-565v1200h-283v-70h211v-423h-211v-848z" />
<glyph unicode="&#xfb03;" horiz-adv-x="2330" d="M35 -211v1552l282 283h637v-211l211 211h1131v-424h-848v-70h211v-423h-211v-848l-565 -70v1411h-283v-70h211v-423h-211v-848zM1731 0v1130h565v-1130h-565z" />
<glyph unicode="&#xfb04;" horiz-adv-x="2330" d="M35 -211v1552l282 283h637v-211l211 211h637v-211l211 211h283v-1624h-565v1200h-283v-70h211v-423h-211v-848l-565 -70v1411h-283v-70h211v-423h-211v-848z" />
<glyph horiz-adv-x="0" />
<glyph horiz-adv-x="682" />
<glyph unicode=" "  horiz-adv-x="409" />
<glyph unicode="&#x09;" horiz-adv-x="409" />
<glyph unicode="&#xa0;" horiz-adv-x="409" />
<glyph unicode="!" horiz-adv-x="634" d="M35 0v352h565v-352h-565zM35 1483h565l-72 -1059h-424z" />
<glyph unicode="&#x22;" d="M35 1200v424h565v-424l-141 -362h-285zM670 1200v424h565v-424l-141 -362h-283z" />
<glyph unicode="#" horiz-adv-x="1163" d="M35 283l35 213h143l35 209h-139l34 213h140l49 282h280l-49 -282h142l49 282h280l-49 -282h143l-34 -213h-144l-35 -209h140l-35 -213h-141l-48 -283h-280l47 283h-141l-47 -283h-281l47 283h-141zM494 496h141l35 209h-142z" />
<glyph unicode="$" horiz-adv-x="987" d="M35 0v424h352v70h-352v424l282 282h158l43 141h377l-43 -141h100v-424h-352v-69h352v-424l-282 -283h-158l-43 -141h-377l43 141h-100z" />
<glyph unicode="%" horiz-adv-x="2752" d="M35 1024q0 77 6.5 142.5t24.5 132t47 118.5t75.5 98.5t108 77.5t147.5 48.5t191 17.5q91 0 167 -11t133.5 -29.5t102.5 -49t76.5 -63t54 -78.5t35 -88t20 -99t9.5 -105t2 -112t-2 -112t-9.5 -105t-20 -99t-35 -88t-54 -78.5t-76.5 -63t-102.5 -49t-133.5 -29.5t-167 -11 q-105 0 -191 17.5t-147.5 48.5t-108 77.5t-75.5 98.5t-47 118.5t-24.5 132t-6.5 142.5zM596 972.5q0 -14.5 1 -40.5t3.5 -40.5t6.5 -31t11.5 -24t16.5 -7.5t16 8.5t11.5 25.5t7 33.5t3.5 43.5t1 42v42v42t-1 42t-3.5 43.5t-7 33.5t-11.5 25.5t-16 8.5t-16.5 -7.5t-11.5 -24 t-6.5 -31t-3.5 -40.5t-1 -40v-42v-10v-10v-41.5zM723 -424l1149 2048h158l-1149 -2048h-158zM1518 176q0 64 2 112t9.5 105t20 99t35 88t54 78.5t76.5 63t102.5 49t133.5 29.5t167 11q105 0 191 -17.5t147.5 -48.5t108 -77.5t75.5 -98.5t47 -118.5t24.5 -132t6.5 -142.5 t-6.5 -142.5t-24.5 -132t-47 -118.5t-75.5 -98.5t-108 -77.5t-147.5 -48.5t-191 -17.5q-91 0 -167 11t-133.5 29.5t-102.5 49t-76.5 63t-54 78.5t-35 88t-20 99t-9.5 105t-2 112zM2079 134q0 -15 1 -42t3.5 -43t7 -33.5t11.5 -25.5t16 -8q14 0 22.5 16t12 49t4 55.5 t0.5 63.5v10v10v41.5t-1 40.5t-3.5 40.5t-6.5 31t-11.5 24t-16.5 7.5t-16 -8.5t-11.5 -25.5t-7 -33.5t-3.5 -43.5t-1 -42v-42v-42z" />
<glyph unicode="&#x26;" horiz-adv-x="1462" d="M35 283v354l69 70l-69 71v422l282 283h918l-72 -494h-563v-71h827l-51 -353h-141v-282l-283 -283h-635zM600 424h70v141h-70v-141z" />
<glyph unicode="'" horiz-adv-x="634" d="M35 1200v424h565v-424l-141 -362h-285z" />
<glyph unicode="(" horiz-adv-x="776" d="M35 -141v1482l280 283h426v-283h-141v-1482h141v-283h-426z" />
<glyph unicode=")" horiz-adv-x="776" d="M35 -141h141v1482h-141v283h426l280 -283v-1482l-280 -283h-426v283z" />
<glyph unicode="*" horiz-adv-x="1341" d="M35 459v565l424 -70l-70 424h565l-71 -424l424 70v-565l-424 71l71 -424h-565l70 424z" />
<glyph unicode="+" horiz-adv-x="1411" d="M35 389v422h459v461h424v-461h458v-422h-458v-461h-424v461h-459z" />
<glyph unicode="," horiz-adv-x="634" d="M35 0v494h565v-494l-141 -293h-389l141 293h-176z" />
<glyph unicode="-" horiz-adv-x="704" d="M35 424v494l635 141v-494z" />
<glyph unicode="." horiz-adv-x="634" d="M35 0v494h565v-494h-565z" />
<glyph unicode="/" horiz-adv-x="1376" d="M35 -424l848 2048h458l-847 -2048h-459z" />
<glyph unicode="0" d="M35 600q0 77 6.5 142.5t24.5 132t47 118.5t75.5 98.5t108 77.5t147.5 48.5t191 17.5q91 0 167 -11t133.5 -29.5t102.5 -49t76.5 -63t54 -78.5t35 -88t20 -99t9.5 -105t2 -112t-2 -112t-9.5 -105t-20 -99t-35 -88t-54 -78.5t-76.5 -63t-102.5 -49t-133.5 -29.5t-167 -11 q-105 0 -191 17.5t-147.5 48.5t-108 77.5t-75.5 98.5t-47 118.5t-24.5 132t-6.5 142.5zM596 548.5q0 -14.5 1 -40t3.5 -40.5t6.5 -31t11.5 -23.5t16.5 -7.5t16 8t11.5 25.5t7 33.5t3.5 43t1 42v42v42t-1 42t-3.5 43.5t-7 33.5t-11.5 25.5t-16 8.5t-16.5 -7.5t-11.5 -24 t-6.5 -31t-3.5 -40.5t-1 -40v-42v-3v-3v-4v-10v-41.5z" />
<glyph unicode="1" horiz-adv-x="880" d="M35 494v424q113 28 174 69q40 26 84.5 79.5t68.5 93.5l25 40h424v-1200h-565v565z" />
<glyph unicode="2" horiz-adv-x="1306" d="M37 352q176 13 282 21q133 11 168 18q113 25 150 114q22 54 22 136q0 14 1 44t0.5 44t-2.5 32.5t-9 26t-18 7.5q-13 0 -21.5 -15t-11.5 -47t-3.5 -52.5t-0.5 -61.5v-19l6 -145h-541q-3 13 -7 36.5t-10 87t-5 117.5q1 73 9 132t26 116t47.5 100.5t74.5 80.5t105.5 60.5 t143 36.5t184.5 13q92 0 168 -7.5t134 -21t104 -35t78 -45.5t55 -57t36.5 -65.5t21.5 -75t10.5 -80.5t2.5 -88q0 -70 -17.5 -130t-44 -100.5t-62.5 -72.5t-69 -50t-68.5 -31t-54.5 -17.5t-34 -6.5h385v-352h-1166z" />
<glyph unicode="3" d="M35 213h565q0 -86 4 -100q7 -24 29 -25q11 0 18 6t9.5 21.5t3 27.5t0.5 38v9q0 29 -12.5 46.5t-49.5 17.5h-403l-70 344h446q63 0 83 26.5t20 96.5q0 74 -31 74q-13 0 -24 -23.5t-13 -54.5l-2 -76h-563q-10 49 -10 145q0 80 15.5 143.5t57 122t107.5 98t172.5 62.5 t247.5 23q116 0 208.5 -16t154.5 -41t107 -64.5t69.5 -78.5t38.5 -91.5t18 -94t4 -95.5q0 -72 -24 -127.5t-56 -85t-72 -49t-64 -25t-40 -6.5q1 0 15 -3t24.5 -5.5t30 -9t35 -14t35.5 -20.5t35.5 -27.5t31 -36.5t26 -46.5t17 -57.5t6.5 -71q0 -54 -4 -94t-18 -90t-38.5 -86 t-69.5 -72.5t-107 -59t-154.5 -37t-208.5 -14.5q-90 0 -163 6.5t-130 18t-101 32t-76 43t-54.5 56.5t-36.5 67t-22.5 80t-12 90t-4.5 103z" />
<glyph unicode="4" horiz-adv-x="1482" d="M35 283l352 917h848v-848h213l-72 -352h-141v-264h-565v264h-566zM569 352h101v383z" />
<glyph unicode="5" horiz-adv-x="1290" d="M35 236h586q-9 -148 32 -148q31 0 31 127q0 47 -28 60.5t-109 13.5h-481l75 911h1114l-30 -498h-629l-10 -67q87 5 168.5 0.5t153.5 -14t132 -37.5t103.5 -70t67.5 -111t24 -161q0 -66 -6 -119.5t-22.5 -109.5t-44 -98.5t-73 -81t-108 -63t-150 -39t-196.5 -14.5 q-108 0 -194 12.5t-147.5 34t-107 57t-73.5 75.5t-45 96.5t-24 113t-9 130.5z" />
<glyph unicode="6" horiz-adv-x="1329" d="M35 702q0 375 180 578t526 203q100 0 194 -18.5t156.5 -44.5t110.5 -52t70 -44l22 -19l-108 -406q-7 6 -21 16.5t-59 37t-93 47t-120.5 37t-144.5 16.5q-52 0 -89 -7.5t-52.5 -18.5t-23.5 -22t-8 -19v-7q105 18 173 18q225 0 356 -134.5t131 -342.5q0 -59 -6 -111 t-23.5 -109.5t-45.5 -104.5t-74.5 -91t-107.5 -74t-148.5 -47.5t-194.5 -17.5q-163 0 -278 45.5t-186 139.5t-103.5 229t-32.5 323zM606 488q0 -34 0.5 -49.5t4 -34.5t12 -26t22.5 -7q26 0 32.5 28.5t6.5 98.5q0 37 -0.5 53.5t-4 36t-12 26.5t-22.5 7t-22.5 -6.5t-12 -24.5 t-4 -33t-0.5 -49v-10v-10z" />
<glyph unicode="7" horiz-adv-x="1335" d="M35 1200h1265v-508l-499 -956h-674l500 956h-574z" />
<glyph unicode="8" d="M35 383q0 68 21.5 122t51.5 82.5t60.5 48t51.5 24.5l22 6q-8 3 -22 10.5t-50 38t-63 70t-49.5 111.5t-22.5 157q0 197 170 313.5t438 116.5q294 0 443 -102.5t149 -317.5q0 -64 -19.5 -116.5t-45 -82.5t-57 -51.5t-49.5 -29t-28 -9.5l2 -1q100 -52 153 -164 q44 -94 44 -216q0 -200 -160.5 -314t-447.5 -114q-128 0 -234 25t-187 75t-126 131t-45 187zM600 393q0 -27 1.5 -38.5t9.5 -20.5t26 -8q6 0 10.5 1.5t7.5 5t5.5 6t4 8t2 9t1 10t0.5 9.5v9.5v8.5q0 31 -8 57t-16 36l-9 10q-4 -4 -10 -11.5t-15.5 -34t-9.5 -57.5zM600 1053 q0 -30 8.5 -55.5t17.5 -35.5l9 -10q35 33 35 101q0 39 -6.5 54t-30.5 15q-12 -1 -19.5 -7t-10 -19.5t-3 -19.5t-0.5 -23z" />
<glyph unicode="9" horiz-adv-x="1331" d="M35 -104l110 405q7 -6 21 -16.5t58.5 -37t92.5 -47t121 -37t146 -16.5q52 0 89 7.5t52.5 18.5t23.5 22t7 19v7q-104 -18 -172 -18q-225 0 -357.5 134.5t-132.5 342.5q0 59 6 111t23.5 109.5t45.5 104.5t74.5 91t108 74t149.5 47.5t195 17.5q163 0 278 -45.5t186 -139.5 t103.5 -229t32.5 -323q0 -375 -180 -578t-526 -203q-100 0 -194 18.5t-157 44.5t-111 52.5t-70 45.5zM647 700q0 -36 0.5 -52t4 -35t12 -26t22.5 -7t22.5 7t12 26t4 35t0.5 52q0 37 -0.5 54.5t-4 38t-12 28.5t-22.5 8q-26 0 -32.5 -29t-6.5 -100z" />
<glyph unicode=":" horiz-adv-x="634" d="M35 0v494h565v-494h-565zM35 707v493h565v-493h-565z" />
<glyph unicode=";" horiz-adv-x="634" d="M35 0v494h565v-494l-141 -293h-389l141 293h-176zM35 707v493h565v-493h-565z" />
<glyph unicode="&#x3c;" horiz-adv-x="1411" d="M35 389v422l1341 461v-424l-915 -248l915 -248v-424z" />
<glyph unicode="=" horiz-adv-x="1411" d="M35 141v424h1341v-424h-1341zM35 635v424h1341v-424h-1341z" />
<glyph unicode="&#x3e;" horiz-adv-x="1411" d="M35 -72v424l915 248l-915 248v424l1341 -461v-422z" />
<glyph unicode="?" horiz-adv-x="845" d="M35 0v352h565v-352h-565zM35 989v494h493l283 -283v-493l-283 -283h-424v424h213v141h-282z" />
<glyph unicode="@" horiz-adv-x="1988" d="M35 553q0 149 33 279.5t90.5 229.5t136 180t169 136.5t191 93.5t199.5 55t197 17q214 0 386.5 -62t284.5 -172.5t172 -259.5t60 -325q0 -138 -35.5 -250.5t-91 -183.5t-127.5 -119t-142.5 -68t-138.5 -20q-112 0 -182.5 39.5t-103.5 101.5q-136 -141 -293 -141 q-155 0 -244.5 113.5t-89.5 332.5q0 133 41 241.5t108.5 175.5t149.5 102.5t168 35.5q38 0 72 -7.5t56 -17.5t38.5 -20.5t24.5 -17.5l7 -8q11 15 15 30h319l-63 -563q-10 -106 22 -106q67 0 115.5 87.5t48.5 254.5q0 87 -15 158t-55.5 138t-106.5 112t-173.5 72.5 t-249.5 27.5q-133 0 -251 -46.5t-207 -132.5t-141 -217.5t-52 -291.5q0 -142 51 -252.5t138 -176.5t195.5 -99.5t231.5 -33.5q156 0 295 18.5t200 36.5l62 19v-266q-8 -5 -24 -13.5t-73 -30.5t-121.5 -39t-169.5 -30.5t-218 -13.5q-192 0 -356.5 58t-288 168t-194 282.5 t-70.5 388.5zM905 582q0 -62 17 -102t51 -40q25 0 47 14.5t36.5 35t25 41t15.5 35.5l5 14l-2 -7l18 148q-28 33 -102 33q-47 0 -79 -50.5t-32 -121.5z" />
<glyph unicode="A" horiz-adv-x="1411" d="M35 918l71 565h988l282 -283v-1200h-565v281h-70v-281h-565v776l565 142h-706zM741 705h70v213h-70v-213z" />
<glyph unicode="B" horiz-adv-x="1411" d="M35 918l69 565h990l282 -283v-424l-69 -69l69 -72v-352l-282 -283h-918v776l565 142h-706zM741 424h70v141h-70v-141zM741 776h70v142h-70v-142z" />
<glyph unicode="C" d="M35 283v917l282 283h635l283 -283v-389l-565 -70v318h-70v-635h70v246l565 71v-458l-283 -283h-635z" />
<glyph unicode="D" horiz-adv-x="1411" d="M35 918l69 565h990l282 -283v-917l-282 -283h-918v776l565 142h-706zM741 424h70v494h-70v-494z" />
<glyph unicode="E" horiz-adv-x="1200" d="M35 283v917l282 283h848l-71 -494h-494v-71h424v-353h-424v-71h565l-71 -494h-777z" />
<glyph unicode="F" horiz-adv-x="1298" d="M35 918l69 565h1160l-99 -565h-354v-72h295v-422h-295v-565l-565 -70v987l213 142h-424z" />
<glyph unicode="G" d="M35 283v917l282 283h635l283 -283v-424l-565 -69v352h-70v-635h70v211l565 72v-848l-565 -70v211h-353z" />
<glyph unicode="H" d="M35 0v1200l282 283h918l-70 -494h-565v-71h352l283 -283v-707l-565 -69v635h-70v-494h-565z" />
<glyph unicode="I" horiz-adv-x="917" d="M35 0l71 494h211v354l213 141h-495l71 494h494l283 -283v-917l-283 -283h-565z" />
<glyph unicode="J" horiz-adv-x="917" d="M35 989l71 494h494l283 -283v-1554l-566 -70v1272l213 141h-495z" />
<glyph unicode="K" d="M35 0v1200l282 283h918l-70 -494h-565v-282h70v211l565 -70v-283l-70 -71l70 -70v-565l-565 -70v494h-70v-283h-565z" />
<glyph unicode="L" horiz-adv-x="1177" d="M16 0l72 494h70v706l282 283h566l-72 -565h-211v-283l-213 -141h633v-494h-1127z" />
<glyph unicode="M" horiz-adv-x="2189" d="M35 918v565h424l282 -283v283h353l282 -283v283h355l282 -283v-635h141v-565h-423l-283 283v635h-72v-918h-565v918h-70v-918h-565v918h-141z" />
<glyph unicode="N" horiz-adv-x="1552" d="M35 918v565h424l282 -283v283h353l282 -283v-635h142v-565h-424l-283 283v635h-70v-918h-565v918h-141z" />
<glyph unicode="O" d="M35 283v917l282 283h635l283 -283v-917l-283 -283h-635zM600 424h70v635h-70v-635z" />
<glyph unicode="P" horiz-adv-x="1480" d="M35 424h211v352l565 142h-776l69 565h1059l283 -283v-917l-283 -283h-352v-213l-565 -70v283h-142zM811 424h70v494h-70v-494z" />
<glyph unicode="Q" d="M35 283v917l282 283h635l283 -283v-917l-221 -222h434l-72 -423h-848l62 362h-273zM600 424h70v635h-70v-635z" />
<glyph unicode="R" horiz-adv-x="1462" d="M16 707h211v69l566 142h-707l72 565h987l282 -283v-493l-71 -72l71 -70v-665l-565 -70v453h-69v-283h-566v283h-141zM793 707h69v211h-69v-211z" />
<glyph unicode="S" d="M35 283v213l565 69h-283l-282 213v422l282 283h635l283 -283v-213l-565 -69v141h-70v-141h352l283 -213v-422l-283 -283h-635zM600 424h70v141h-70v-141z" />
<glyph unicode="T" horiz-adv-x="1298" d="M35 918l69 565h1160l-99 -565h-282v-353h141v-565h-424l-283 283v493l164 142h-446z" />
<glyph unicode="U" horiz-adv-x="1552" d="M35 918v565h424l282 -283v-635h70v918h565v-918h142v-565h-424l-144 143l-139 -143h-352l-283 283v635h-141z" />
<glyph unicode="V" horiz-adv-x="1411" d="M35 918v565h424l211 -211v211h424l282 -283v-917l-282 -283h-635l-283 283v635h-141zM741 424h70v494h-70v-494z" />
<glyph unicode="W" horiz-adv-x="2045" d="M35 918v565h424l211 -211v211h424l211 -211v211h424l282 -283v-917l-282 -283h-1270l-283 283v635h-141zM741 424h70v494h-70v-494zM1376 424h70v494h-70v-494z" />
<glyph unicode="X" horiz-adv-x="1478" d="M35 0v707h352v69h-352v707h704v-283l283 283h422v-707h-352v-69h352v-707h-705v283l-282 -283h-422z" />
<glyph unicode="Y" horiz-adv-x="1411" d="M35 918v565h424l211 -211v211h424l282 -283v-1341l-282 -283h-918l72 424h563v70h-352l-283 282v566h-141zM741 494h70v424h-70v-424z" />
<glyph unicode="Z" d="M35 283v458l635 246h-635v496h917l283 -283v-459l-635 -245h635v-496h-918z" />
<glyph unicode="[" horiz-adv-x="776" d="M35 -424v2048h706v-283h-141v-1482h141v-283h-706z" />
<glyph unicode="\" horiz-adv-x="1376" d="M35 1624h459l847 -2048h-458z" />
<glyph unicode="]" horiz-adv-x="776" d="M35 -141h141v1482h-141v283h706v-2048h-706v283z" />
<glyph unicode="^" horiz-adv-x="1136" d="M35 1272l289 352h495l283 -352h-424l-111 141l-102 -141h-430z" />
<glyph unicode="_" horiz-adv-x="634" d="M35 -211h565v-213h-565v213z" />
<glyph unicode="`" d="M176 1272v352l776 -141v-211h-776z" />
<glyph unicode="a" d="M35 283v635l282 282h918v-1200h-918zM600 424h70v352h-70v-352z" />
<glyph unicode="b" d="M35 0v1554l565 70v-424h352l283 -282v-635l-283 -283h-917zM600 424h70v352h-70v-352z" />
<glyph unicode="c" horiz-adv-x="845" d="M35 283v635l282 282h494v-424h-211v-352h211v-424h-494z" />
<glyph unicode="d" d="M0 1059l137 565l1098 -424v-917l-281 -283h-637l-282 283v563l336 84zM600 424h70v401l-70 25v-426z" />
<glyph unicode="e" d="M35 283v635l282 282h635l283 -282v-494h-287v-424h-631zM600 424h70v352h-70v-352z" />
<glyph unicode="f" horiz-adv-x="845" d="M35 -211v1552l282 283h494v-424h-211v-70h211v-423h-211v-848z" />
<glyph unicode="g" d="M35 352v566l282 282h918v-1341l-283 -283h-848l72 424h494v70h-353zM600 494h70v282h-70v-282z" />
<glyph unicode="h" d="M35 0v1554l565 70v-424h352l283 -282v-1059l-565 -70v987h-70v-776h-565z" />
<glyph unicode="i" horiz-adv-x="634" d="M35 0v1059h565v-1059h-565zM35 1128v347l565 69v-416h-565z" />
<glyph unicode="j" horiz-adv-x="634" d="M35 -424v1483h565v-1413zM35 1128v347l565 69v-416h-565z" />
<glyph unicode="k" d="M35 0v1554l565 70v-424h352l283 -282v-283l-70 -72l70 -69v-582l-565 -70v441h-70v-283h-565zM600 637h70v139h-70v-139z" />
<glyph unicode="l" horiz-adv-x="634" d="M35 0v1554l565 70v-1624h-565z" />
<glyph unicode="m" horiz-adv-x="1906" d="M35 0v1200h1554l283 -282v-918h-565v776h-72v-776h-565v776h-70v-776h-565z" />
<glyph unicode="n" d="M35 0v1200h917l283 -282v-918h-565v776h-70v-776h-565z" />
<glyph unicode="o" d="M35 283v635l282 282h635l283 -282v-635l-283 -283h-635zM600 424h70v352h-70v-352z" />
<glyph unicode="p" d="M37 -354v1554h917l283 -282v-635l-283 -283h-352v-424zM602 424h70v352h-70v-352z" />
<glyph unicode="q" d="M35 283v635l282 282h918v-1554l-565 -70v424h-353zM600 424h70v352h-70v-352z" />
<glyph unicode="r" horiz-adv-x="845" d="M35 0v918l282 282h494v-424h-211v-776h-565z" />
<glyph unicode="s" horiz-adv-x="987" d="M35 0v424h352v70h-352v424l282 282h635v-424h-352v-69h352v-424l-282 -283h-635z" />
<glyph unicode="t" horiz-adv-x="845" d="M35 283v1058l565 70v-211h211v-424h-211v-352h211v-424h-494z" />
<glyph unicode="u" d="M35 283v917h565v-776h70v776h565v-1200h-918z" />
<glyph unicode="v" d="M35 283v917h565v-776h70v776h565v-917l-283 -283h-635z" />
<glyph unicode="w" horiz-adv-x="1906" d="M35 283v917h565v-776h70v776h565v-776h72v776h565v-917l-283 -283h-1272z" />
<glyph unicode="x" horiz-adv-x="1339" d="M35 0v565h282v70h-282v565h635v-282l282 282h353v-565h-283v-70h283v-565h-635v283l-283 -283h-352z" />
<glyph unicode="y" d="M35 352v848h565v-706h70v706h565v-1341l-283 -283h-848l72 424h494v70h-353z" />
<glyph unicode="z" horiz-adv-x="1093" d="M35 283v282l459 211h-459v424h741l283 -282v-283l-459 -211h459v-424h-742z" />
<glyph unicode="{" horiz-adv-x="845" d="M35 459v282h69v600l281 283h426v-283h-141v-669l-70 -72l70 -70v-671h141v-283h-426l-281 283v600h-69z" />
<glyph unicode="|" horiz-adv-x="493" d="M35 -424v2048h424v-2048h-424z" />
<glyph unicode="}" horiz-adv-x="845" d="M35 -141h141v671l70 70l-70 72v669h-141v283h426l280 -283v-600h70v-282h-70v-600l-280 -283h-426v283z" />
<glyph unicode="~" d="M172 539l55 379l729 -70l142 26l-56 -378l-729 69z" />
<glyph unicode="&#xa1;" horiz-adv-x="634" d="M35 -283l69 1059h424l72 -1059h-565zM35 848v352h565v-352h-565z" />
<glyph unicode="&#xa2;" horiz-adv-x="987" d="M35 283v635l282 282h158l43 141h377l-43 -141h100v-424h-352v-352h352v-424h-440l-43 -141h-377l86 282z" />
<glyph unicode="&#xa3;" horiz-adv-x="1056" d="M35 0v424h69v70h-69v213h69v211l283 282h635l-72 -424h-280v-69h280v-213h-280v-70h352v-424h-987z" />
<glyph unicode="&#xa4;" d="M0 1075l297 185l133 -236q94 23 205 23q121 0 207 -21l131 234l297 -185l-191 -252q27 -77 27 -223q0 -157 -33 -240l176 -239l-297 -182l-131 229q-82 -16 -186 -16q-107 0 -186 18l-132 -231l-297 182l183 246q-39 89 -39 233q0 134 33 217zM595.5 549q0.5 -24 3 -41 t10.5 -26t22 -9q15 0 23.5 7.5t12.5 29.5t5 37t2 55q2 85 -5 102q-8 19 -30 19q-27 0 -34 -26.5t-9 -94.5q-1 -29 -0.5 -53z" />
<glyph unicode="&#xa5;" d="M35 705v495h565v-424h70v424h565v-495l-281 -281h211v-213h-247v-211h-566v211h-248v213h211z" />
<glyph unicode="&#xa6;" horiz-adv-x="493" d="M35 -424v991h424v-991h-424zM35 637v987h424v-987h-424z" />
<glyph unicode="&#xa7;" d="M35 72l565 69h-283l-282 283v213h2l139 139l-141 144v280l282 283h635l283 -283v-213l-565 -69v141h-70v-141h352l283 -283v-213h-2l-139 -139l141 -144v-280l-283 -283h-635l-282 283v213zM600 0h70v141h-70v-141zM600 457h70v141h-70v-141z" />
<glyph unicode="&#xa8;" d="M176 1272v352h424v-352h-424zM670 1272v352h424v-352h-424z" />
<glyph unicode="&#xa9;" horiz-adv-x="1499" d="M35 600q0 114 29 219.5t88.5 197t145 159t205 106.5t261.5 39q322 0 511 -194.5t189 -526.5q0 -163 -55.5 -297t-152 -223t-228.5 -137.5t-285 -48.5q-160 0 -292.5 51.5t-223.5 144.5t-141.5 223.5t-50.5 286.5zM229 600q0 -231 141.5 -381.5t372.5 -150.5 q114 0 210.5 33.5t170 97.5t115 166.5t41.5 232.5q0 255 -139 400t-381 145q-249 0 -390 -147.5t-141 -395.5zM354 600q0 107 34 189.5t94 132.5t136 75t166 25q55 0 107 -13.5t87 -33t62.5 -39.5t40.5 -34l13 -13l-72 -250q-11 7 -28.5 17t-62.5 27t-79 17q-49 0 -81 -31 t-32 -69q0 -45 32 -73.5t85 -28.5q35 0 81.5 15t75.5 29l29 15l31 -270q-5 -4 -13.5 -11t-37 -24.5t-60 -30.5t-80 -24t-98.5 -11q-71 0 -133.5 14.5t-117.5 46t-94.5 79t-62 117.5t-22.5 157z" />
<glyph unicode="&#xaa;" d="M35 918v423l282 283h918v-989h-918zM600 1059h70v141h-70v-141z" />
<glyph unicode="&#xab;" horiz-adv-x="987" d="M35 291v635l424 282v-424l-213 -180l213 -172v-432zM528 291v635l424 282v-424l-211 -180l211 -172v-432z" />
<glyph unicode="&#xac;" horiz-adv-x="1411" d="M35 389v422h1341v-811h-422v389h-919z" />
<glyph unicode="&#xad;" horiz-adv-x="704" d="M35 424v494l635 141v-494z" />
<glyph unicode="&#xae;" horiz-adv-x="1507" d="M35 600q0 145 46 273t134 229t230 160t321 59q321 0 514 -195.5t193 -525.5q0 -214 -98 -375.5t-263 -245t-371 -83.5q-160 0 -292.5 51.5t-223 143.5t-140.5 222.5t-50 286.5zM229 600q0 -231 141.5 -381.5t372.5 -150.5q114 0 210.5 33.5t170 97.5t115 166.5 t41.5 232.5q0 255 -139 400t-381 145q-249 0 -390 -147.5t-141 -395.5zM403 229v754h441q120 0 204.5 -66.5t84.5 -195.5q0 -143 -115 -207q28 -44 59 -115.5t49 -120.5l17 -49h-318l-77 226h-35v-226h-310zM713 653q16 -2 59 -2q19 0 29 14.5t10 34.5q0 22 -11 35t-30 13 h-57v-95z" />
<glyph unicode="&#xaf;" d="M176 1272v352h918v-352h-918z" />
<glyph unicode="&#xb0;" d="M35 1024q0 77 6.5 142.5t24.5 132t47 118.5t75.5 98.5t108 77.5t147.5 48.5t191 17.5q91 0 167 -11t133.5 -29.5t102.5 -49t76.5 -63t54 -78.5t35 -88t20 -99t9.5 -105t2 -112t-2 -112t-9.5 -105t-20 -99t-35 -88t-54 -78.5t-76.5 -63t-102.5 -49t-133.5 -29.5t-167 -11 q-105 0 -191 17.5t-147.5 48.5t-108 77.5t-75.5 98.5t-47 118.5t-24.5 132t-6.5 142.5zM596 972.5q0 -14.5 1 -40.5t3.5 -40.5t6.5 -31t11.5 -24t16.5 -7.5t16 8.5t11.5 25.5t7 33.5t3.5 43.5t1 42v42v42t-1 42t-3.5 43.5t-7 33.5t-11.5 25.5t-16 8.5t-16.5 -7.5t-11.5 -24 t-6.5 -31t-3.5 -40.5t-1 -40v-42v-10v-10v-41.5z" />
<glyph unicode="&#xb1;" d="M35 176h1200v-424h-1200v424zM35 635v424h389v389h424v-389h387v-424h-387v-387h-424v387h-389z" />
<glyph unicode="&#xb2;" horiz-adv-x="1306" d="M37 776q176 13 282 21q133 11 168 18q113 25 150 114q22 54 22 136q0 14 1 44t0.5 44t-2.5 32.5t-9 26t-18 7.5q-13 0 -21.5 -15t-11.5 -47t-3.5 -52.5t-0.5 -61.5v-19l6 -145h-541q-3 13 -7 36.5t-10 87t-5 117.5q1 73 9 132t26 116t47.5 100.5t74.5 80.5t105.5 60.5 t143 36.5t184.5 13q92 0 168 -7.5t134 -21t104 -35t78 -45.5t55 -57t36.5 -65.5t21.5 -75t10.5 -80.5t2.5 -88q0 -70 -17.5 -130t-44 -100.5t-62.5 -72.5t-69 -50t-68.5 -31t-54.5 -17.5t-34 -6.5h385v-352h-1166z" />
<glyph unicode="&#xb3;" d="M35 885h565q0 -86 4 -100q7 -24 29 -25q11 0 18 6t9.5 21.5t3 27.5t0.5 38v9q0 29 -12.5 46.5t-49.5 17.5h-403v196h403q37 0 49.5 17.5t12.5 46.5v9q0 26 -0.5 38t-3 27.5t-9.5 21.5t-18 6q-23 0 -28.5 -21t-4.5 -76v-9.5v-8.5v-10h-541q-42 166 -8 276t175.5 165 t408.5 55q116 0 208 -13t153 -32.5t105 -52t67.5 -63.5t37 -74.5t16.5 -76.5t3 -79q0 -141 -117 -246q127 -111 127 -252q0 -42 -4 -75t-18 -74.5t-38.5 -72.5t-69.5 -62.5t-107 -51.5t-154.5 -32.5t-208.5 -12.5q-90 0 -163 6.5t-130 18t-101 32t-76 43t-54.5 56.5 t-36.5 67t-22.5 80t-12 90t-4.5 103z" />
<glyph unicode="&#xb4;" d="M317 1272v211l777 141v-352h-777z" />
<glyph unicode="&#xb5;" horiz-adv-x="1355" d="M35 -424v1624h473v-762q0 -69 34.5 -92.5t104.5 -23.5q89 0 143 50.5t54 135.5v692h477v-1202h-389l-88 164q-2 -8 -6 -21.5t-25.5 -47.5t-52 -59.5t-91 -47t-137.5 -21.5q-62 0 -102 4l76 -82v-311h-471z" />
<glyph unicode="&#xb6;" d="M35 424v776l282 283h918v-1907l-565 70v495h-353z" />
<glyph unicode="&#xb7;" horiz-adv-x="634" d="M35 459v493h565v-493h-565z" />
<glyph unicode="&#xb8;" d="M424 -72h424v-211l-424 -141v352z" />
<glyph unicode="&#xb9;" horiz-adv-x="845" d="M35 918v423q113 29 174 70q40 26 84.5 79.5t68.5 93.5l25 40h424v-1200h-565v565z" />
<glyph unicode="&#xba;" d="M35 918v423l282 283h635l283 -283v-423l-283 -283h-635zM600 1059h70v141h-70v-141z" />
<glyph unicode="&#xbb;" horiz-adv-x="987" d="M35 0v432l211 172l-211 180v424l424 -282v-635zM528 0v432l213 172l-213 180v424l424 -282v-635z" />
<glyph unicode="&#xbc;" horiz-adv-x="2539" d="M35 918v423q113 29 174 70q40 26 84.5 79.5t68.5 93.5l25 40h424v-1200h-565v565zM436 -424l1149 2048h158l-1149 -2048h-158zM1092 141l352 635h848v-565h213l-72 -352h-141v-283h-566v283h-565zM1626 211h100v213z" />
<glyph unicode="&#xbd;" horiz-adv-x="2508" d="M35 918v423q113 29 174 70q40 26 84.5 79.5t68.5 93.5l25 40h424v-1200h-565v565zM436 -424l1149 2048h158l-1149 -2048h-158zM1239 -72q177 13 283 21q133 11 168 18q113 25 150 114q22 54 22 136q0 13 0.5 32.5t0.5 31.5v28t-2 25.5t-5 19t-9 13.5t-14 4 q-13 0 -21.5 -15t-11.5 -47t-3.5 -52.5t-0.5 -61.5v-19l6 -145h-540q-3 13 -7 36.5t-10.5 87t-5.5 117.5q1 73 9 132t26 116t47.5 100.5t74.5 80.5t105.5 60.5t143 36.5t184.5 13q92 0 168 -7.5t134 -21t104 -35t78 -45.5t55 -57t36.5 -65.5t21.5 -75t10.5 -80.5t2.5 -88 q0 -70 -17.5 -130t-44 -100t-62.5 -72.5t-69 -50.5t-68.5 -31t-54.5 -17.5t-34 -6.5h385v-352h-1165z" />
<glyph unicode="&#xbe;" horiz-adv-x="2867" d="M35 885h565q0 -86 4 -100q7 -24 29 -25q11 0 18 6t9.5 21.5t3 27.5t0.5 38v9q0 29 -12.5 46.5t-49.5 17.5h-403v196h403q37 0 49.5 17.5t12.5 46.5v9q0 26 -0.5 38t-3 27.5t-9.5 21.5t-18 6q-23 0 -28.5 -21t-4.5 -76v-9.5v-8.5v-10h-541q-42 166 -8 276t175.5 165 t408.5 55q116 0 208 -13t153 -32.5t105 -52t67.5 -63.5t37 -74.5t16.5 -76.5t3 -79q0 -141 -117 -246q127 -111 127 -252q0 -42 -4 -75t-18 -74.5t-38.5 -72.5t-69.5 -62.5t-107 -51.5t-154.5 -32.5t-208.5 -12.5q-90 0 -163 6.5t-130 18t-101 32t-76 43t-54.5 56.5 t-36.5 67t-22.5 80t-12 90t-4.5 103zM764 -424l1149 2048h158l-1149 -2048h-158zM1419 141l353 635h847v-565h213l-71 -352h-142v-283h-565v283h-565zM1954 211h100v213z" />
<glyph unicode="&#xbf;" horiz-adv-x="845" d="M35 0v494l282 282h424v-424h-213v-141h283v-494h-494zM246 848v352h565v-352h-565z" />
<glyph unicode="&#xc0;" horiz-adv-x="1411" d="M35 918l71 565h988l282 -283v-1200h-565v281h-70v-281h-565v776l565 142h-706zM389 1554v353l776 -142v-211h-776zM741 705h70v213h-70v-213z" />
<glyph unicode="&#xc1;" horiz-adv-x="1411" d="M35 918l71 565h988l282 -283v-1200h-565v281h-70v-281h-565v776l565 142h-706zM389 1554v211l776 142v-353h-776zM741 705h70v213h-70v-213z" />
<glyph unicode="&#xc2;" horiz-adv-x="1411" d="M35 918l71 565h988l282 -283v-1200h-565v281h-70v-281h-565v776l565 142h-706zM248 1554l284 353h488l285 -353h-426l-103 121l-102 -121h-426zM741 705h70v213h-70v-213z" />
<glyph unicode="&#xc3;" horiz-adv-x="1411" d="M35 918l71 565h988l282 -283v-1200h-565v281h-70v-281h-565v776l565 142h-706zM313 1528l56 379h729l141 26l-55 -379h-729zM741 705h70v213h-70v-213z" />
<glyph unicode="&#xc4;" horiz-adv-x="1411" d="M35 918l71 565h988l282 -283v-1200h-565v281h-70v-281h-565v776l565 142h-706zM317 1554v353h424v-353h-424zM741 705h70v213h-70v-213zM811 1554v353h424v-353h-424z" />
<glyph unicode="&#xc5;" horiz-adv-x="1411" d="M35 918l71 565h988l282 -283v-1200h-565v281h-70v-281h-565v776l565 142h-706zM563 1731q0 95 58 153t155 58t155 -58t58 -153t-58 -153t-155 -58t-155 58t-58 153zM649 1731q0 -56 35.5 -92.5t91.5 -36.5t91.5 36.5t35.5 92.5t-35.5 92.5t-91.5 36.5t-91.5 -36.5 t-35.5 -92.5zM741 705h70v213h-70v-213z" />
<glyph unicode="&#xc6;" horiz-adv-x="1976" d="M35 918l71 565h1836l-72 -494h-494v-71h424v-353h-424v-71h566l-72 -494h-1059v281h-70v-281h-565v776l565 142h-706zM741 705h70v213h-70v-213z" />
<glyph unicode="&#xc7;" d="M35 283v917l282 283h635l283 -283v-389l-565 -70v318h-70v-635h70v246l565 71v-458l-283 -283h-635zM424 -72h424v-211l-424 -141v352z" />
<glyph unicode="&#xc8;" horiz-adv-x="1200" d="M35 283v917l282 283h848l-71 -494h-494v-71h424v-353h-424v-71h565l-71 -494h-777zM211 1554v353l776 -142v-211h-776z" />
<glyph unicode="&#xc9;" horiz-adv-x="1200" d="M35 283v917l282 283h848l-71 -494h-494v-71h424v-353h-424v-71h565l-71 -494h-777zM213 1554v211l776 142v-353h-776z" />
<glyph unicode="&#xca;" horiz-adv-x="1200" d="M35 283v917l282 283h848l-71 -494h-494v-71h424v-353h-424v-71h565l-71 -494h-777zM72 1554l284 353h488l284 -353h-426l-102 121l-102 -121h-426z" />
<glyph unicode="&#xcb;" horiz-adv-x="1200" d="M35 283v917l282 283h848l-71 -494h-494v-71h424v-353h-424v-71h565l-71 -494h-777zM141 1554v353h424v-353h-424zM635 1554v353h424v-353h-424z" />
<glyph unicode="&#xcc;" horiz-adv-x="917" d="M35 0l71 494h211v354l213 141h-495l71 494h494l283 -283v-917l-283 -283h-565zM72 1554v353l776 -142v-211h-776z" />
<glyph unicode="&#xcd;" horiz-adv-x="917" d="M35 0l71 494h211v354l213 141h-495l71 494h494l283 -283v-917l-283 -283h-565zM72 1554v211l776 142v-353h-776z" />
<glyph unicode="&#xce;" horiz-adv-x="917" d="M-70 1554l285 353h487l285 -353h-426l-102 121l-103 -121h-426zM35 0l71 494h211v354l213 141h-495l71 494h494l283 -283v-917l-283 -283h-565z" />
<glyph unicode="&#xcf;" horiz-adv-x="917" d="M0 1554v353h424v-353h-424zM35 0l71 494h211v354l213 141h-495l71 494h494l283 -283v-917l-283 -283h-565zM494 1554v353h424v-353h-424z" />
<glyph unicode="&#xd0;" horiz-adv-x="1411" d="M35 918l69 565h990l282 -283v-917l-282 -283h-918v494h-65v213h65v69l565 142h-706zM741 424h70v494h-70v-494z" />
<glyph unicode="&#xd1;" horiz-adv-x="1552" d="M35 918v565h424l282 -283v283h353l282 -283v-635h142v-565h-424l-283 283v635h-70v-918h-565v918h-141zM313 1528l56 379h729l141 26l-55 -379h-729z" />
<glyph unicode="&#xd2;" d="M35 283v917l282 283h635l283 -283v-917l-283 -283h-635zM246 1554v353l776 -142v-211h-776zM600 424h70v635h-70v-635z" />
<glyph unicode="&#xd3;" d="M35 283v917l282 283h635l283 -283v-917l-283 -283h-635zM248 1554v211l776 142v-353h-776zM600 424h70v635h-70v-635z" />
<glyph unicode="&#xd4;" d="M35 283v917l282 283h635l283 -283v-917l-283 -283h-635zM106 1554l285 353h488l284 -353h-426l-102 121l-103 -121h-426zM600 424h70v635h-70v-635z" />
<glyph unicode="&#xd5;" d="M35 283v917l282 283h635l283 -283v-917l-283 -283h-635zM172 1528l55 379h729l142 26l-56 -379h-729zM600 424h70v635h-70v-635z" />
<glyph unicode="&#xd6;" d="M35 283v917l282 283h635l283 -283v-917l-283 -283h-635zM176 1554v353h424v-353h-424zM600 424h70v635h-70v-635zM670 1554v353h424v-353h-424z" />
<glyph unicode="&#xd7;" horiz-adv-x="1318" d="M35 276l323 324l-323 324l299 301l325 -326l324 326l301 -301l-326 -324l326 -324l-301 -301l-324 326l-325 -326z" />
<glyph unicode="&#xd8;" d="M35 283v917l282 283h304l43 141h514l-86 -283l143 -141v-917l-283 -283h-303l-43 -141h-514l86 282zM600 424h70v635h-70v-635z" />
<glyph unicode="&#xd9;" horiz-adv-x="1552" d="M35 918v565h424l282 -283v-635h70v918h565v-918h142v-565h-424l-144 143l-139 -143h-352l-283 283v635h-141zM387 1554v353l776 -142v-211h-776z" />
<glyph unicode="&#xda;" horiz-adv-x="1552" d="M35 918v565h424l282 -283v-635h70v918h565v-918h142v-565h-424l-144 143l-139 -143h-352l-283 283v635h-141zM387 1554v211l776 142v-353h-776z" />
<glyph unicode="&#xdb;" horiz-adv-x="1552" d="M35 918v565h424l282 -283v-635h70v918h565v-918h142v-565h-424l-144 143l-139 -143h-352l-283 283v635h-141zM248 1554l284 353h488l285 -353h-426l-103 121l-102 -121h-426z" />
<glyph unicode="&#xdc;" horiz-adv-x="1552" d="M35 918v565h424l282 -283v-635h70v918h565v-918h142v-565h-424l-144 143l-139 -143h-352l-283 283v635h-141zM317 1554v353h424v-353h-424zM811 1554v353h424v-353h-424z" />
<glyph unicode="&#xdd;" horiz-adv-x="1411" d="M35 918v565h424l211 -211v211h424l282 -283v-1341l-282 -283h-918l72 424h563v70h-352l-283 282v566h-141zM317 1554v211l777 142v-353h-777zM741 494h70v424h-70v-424z" />
<glyph unicode="&#xde;" horiz-adv-x="1480" d="M35 424h211v352h-211l69 424h142v141l565 142v-283h352l283 -282v-635l-283 -283h-352v-213l-565 -70v283h-142zM811 424h70v352h-70v-352z" />
<glyph unicode="&#xdf;" horiz-adv-x="1298" d="M35 -211v1552l282 283h494l-70 -354h-141v-70h381l283 -282v-283l-209 -211h209v-424h-312l-282 283v282l209 211h-279v-917z" />
<glyph unicode="&#xe0;" d="M35 283v635l282 282h918v-1200h-918zM246 1272v352l776 -141v-211h-776zM600 424h70v352h-70v-352z" />
<glyph unicode="&#xe1;" d="M35 283v635l282 282h918v-1200h-918zM248 1272v211l776 141v-352h-776zM600 424h70v352h-70v-352z" />
<glyph unicode="&#xe2;" d="M35 283v635l282 282h918v-1200h-918zM106 1272l285 352h488l284 -352h-426l-102 121l-103 -121h-426zM600 424h70v352h-70v-352z" />
<glyph unicode="&#xe3;" d="M35 283v635l282 282h918v-1200h-918zM172 1245l55 379h729l142 27l-56 -379h-729zM600 424h70v352h-70v-352z" />
<glyph unicode="&#xe4;" d="M35 283v635l282 282h918v-1200h-918zM176 1272v352h424v-352h-424zM600 424h70v352h-70v-352zM670 1272v352h424v-352h-424z" />
<glyph unicode="&#xe5;" d="M35 283v635l282 282h918v-1200h-918zM422 1448q0 95 58 153t155 58t155 -58t58 -153t-58 -153t-155 -58t-155 58t-58 153zM508 1448q0 -56 35.5 -92.5t91.5 -36.5t91.5 36.5t35.5 92.5t-35.5 92.5t-91.5 36.5t-91.5 -36.5t-35.5 -92.5zM600 424h70v352h-70v-352z" />
<glyph unicode="&#xe6;" horiz-adv-x="1904" d="M35 283v211l282 282v424h1270l283 -282v-494h-287v-424h-1266zM600 424h70v352h-70v-352zM1235 424h70v352h-70v-352z" />
<glyph unicode="&#xe7;" horiz-adv-x="845" d="M35 283v635l282 282h494v-424h-211v-352h211v-424h-494zM211 -72h424v-211l-424 -141v352z" />
<glyph unicode="&#xe8;" d="M35 283v635l282 282h635l283 -282v-494h-287v-424h-631zM246 1272v352l776 -141v-211h-776zM600 424h70v352h-70v-352z" />
<glyph unicode="&#xe9;" d="M35 283v635l282 282h635l283 -282v-494h-287v-424h-631zM248 1272v211l776 141v-352h-776zM600 424h70v352h-70v-352z" />
<glyph unicode="&#xea;" d="M35 283v635l282 282h635l283 -282v-494h-287v-424h-631zM106 1272l285 352h488l284 -352h-426l-102 121l-103 -121h-426zM600 424h70v352h-70v-352z" />
<glyph unicode="&#xeb;" d="M35 283v635l282 282h635l283 -282v-494h-287v-424h-631zM176 1272v352h424v-352h-424zM600 424h70v352h-70v-352zM670 1272v352h424v-352h-424z" />
<glyph unicode="&#xec;" horiz-adv-x="634" d="M-176 1272v352l776 -141v-211h-776zM35 0v1200h565v-1200h-565z" />
<glyph unicode="&#xed;" horiz-adv-x="634" d="M35 0v1200h565v-1200h-565zM35 1272v211l776 141v-352h-776z" />
<glyph unicode="&#xee;" horiz-adv-x="634" d="M-211 1272l285 352h487l285 -352h-426l-103 121l-102 -121h-426zM35 0v1200h565v-1200h-565z" />
<glyph unicode="&#xef;" horiz-adv-x="634" d="M-141 1272v352h424v-352h-424zM35 0v1200h565v-1200h-565zM352 1272v352h424v-352h-424z" />
<glyph unicode="&#xf0;" d="M35 283v776l508 127l-56 55l-313 -78v213l141 35l-211 213h707l70 -72l284 72v-213l-112 -29l182 -182v-917l-281 -283h-637zM600 424h70v352h-70v-352z" />
<glyph unicode="&#xf1;" d="M35 0v1200h917l283 -282v-918h-565v776h-70v-776h-565zM172 1245l55 379h729l142 27l-56 -379h-729z" />
<glyph unicode="&#xf2;" d="M35 283v635l282 282h635l283 -282v-635l-283 -283h-635zM246 1272v352l776 -141v-211h-776zM600 424h70v352h-70v-352z" />
<glyph unicode="&#xf3;" d="M35 283v635l282 282h635l283 -282v-635l-283 -283h-635zM248 1272v211l776 141v-352h-776zM600 424h70v352h-70v-352z" />
<glyph unicode="&#xf4;" d="M35 283v635l282 282h635l283 -282v-635l-283 -283h-635zM106 1272l285 352h488l284 -352h-426l-102 121l-103 -121h-426zM600 424h70v352h-70v-352z" />
<glyph unicode="&#xf5;" d="M35 283v635l282 282h635l283 -282v-635l-283 -283h-635zM172 1245l55 379h729l142 27l-56 -379h-729zM600 424h70v352h-70v-352z" />
<glyph unicode="&#xf6;" d="M35 283v635l282 282h635l283 -282v-635l-283 -283h-635zM176 1272v352h424v-352h-424zM600 424h70v352h-70v-352zM670 1272v352h424v-352h-424z" />
<glyph unicode="&#xf7;" horiz-adv-x="1411" d="M35 389v422h1341v-422h-1341zM494 -72v389h424v-389h-424zM494 883v389h424v-389h-424z" />
<glyph unicode="&#xf8;" d="M35 283v635l282 282h304l43 141h514l-86 -282l143 -141v-635l-283 -283h-303l-43 -141h-514l86 282zM600 424h70v352h-70v-352z" />
<glyph unicode="&#xf9;" d="M35 283v917h565v-776h70v776h565v-1200h-918zM246 1272v352l776 -141v-211h-776z" />
<glyph unicode="&#xfa;" d="M35 283v917h565v-776h70v776h565v-1200h-918zM248 1272v211l776 141v-352h-776z" />
<glyph unicode="&#xfb;" d="M35 283v917h565v-776h70v776h565v-1200h-918zM106 1272l285 352h488l284 -352h-426l-102 121l-103 -121h-426z" />
<glyph unicode="&#xfc;" d="M35 283v917h565v-776h70v776h565v-1200h-918zM176 1272v352h424v-352h-424zM670 1272v352h424v-352h-424z" />
<glyph unicode="&#xfd;" d="M35 352v848h565v-706h70v706h565v-1341l-283 -283h-848l72 424h494v70h-353zM248 1272v211l776 141v-352h-776z" />
<glyph unicode="&#xfe;" d="M35 -354v1908l565 70v-424h352l283 -282v-635l-283 -283h-352v-424zM600 424h70v352h-70v-352z" />
<glyph unicode="&#xff;" d="M35 352v848h565v-706h70v706h565v-1341l-283 -283h-848l72 424h494v70h-353zM176 1272v352h424v-352h-424zM670 1272v352h424v-352h-424z" />
<glyph unicode="&#x152;" horiz-adv-x="1835" d="M35 283v917l282 283h1483l-71 -494h-494v-71h424v-353h-424v-71h565l-71 -494h-1412zM600 424h70v635h-70v-635z" />
<glyph unicode="&#x153;" horiz-adv-x="1904" d="M35 283v635l282 282h1270l283 -282v-494h-287v-424h-1266zM600 424h70v352h-70v-352zM1235 424h70v352h-70v-352z" />
<glyph unicode="&#x178;" horiz-adv-x="1411" d="M35 918v565h424l211 -211v211h424l282 -283v-1341l-282 -283h-918l72 424h563v70h-352l-283 282v566h-141zM246 1554v353h424v-353h-424zM739 1554v353h424v-353h-424zM741 494h70v424h-70v-424z" />
<glyph unicode="&#x2c6;" d="M106 1272l285 352h488l284 -352h-426l-102 121l-103 -121h-426z" />
<glyph unicode="&#x2dc;" d="M172 1245l55 379h729l142 27l-56 -379h-729z" />
<glyph unicode="&#x2000;" horiz-adv-x="971" />
<glyph unicode="&#x2001;" horiz-adv-x="1942" />
<glyph unicode="&#x2002;" horiz-adv-x="971" />
<glyph unicode="&#x2003;" horiz-adv-x="1942" />
<glyph unicode="&#x2004;" horiz-adv-x="647" />
<glyph unicode="&#x2005;" horiz-adv-x="485" />
<glyph unicode="&#x2006;" horiz-adv-x="323" />
<glyph unicode="&#x2007;" horiz-adv-x="323" />
<glyph unicode="&#x2008;" horiz-adv-x="242" />
<glyph unicode="&#x2009;" horiz-adv-x="388" />
<glyph unicode="&#x200a;" horiz-adv-x="107" />
<glyph unicode="&#x2010;" horiz-adv-x="704" d="M35 424v494l635 141v-494z" />
<glyph unicode="&#x2011;" horiz-adv-x="704" d="M35 424v494l635 141v-494z" />
<glyph unicode="&#x2012;" horiz-adv-x="704" d="M35 424v494l635 141v-494z" />
<glyph unicode="&#x2013;" horiz-adv-x="1024" d="M35 496v422h954v-422h-954z" />
<glyph unicode="&#x2014;" horiz-adv-x="2048" d="M35 496v422h1978v-422h-1978z" />
<glyph unicode="&#x2018;" horiz-adv-x="634" d="M35 838v493l141 293h389l-141 -293h176v-493h-565z" />
<glyph unicode="&#x2019;" horiz-adv-x="634" d="M35 1130v494h565v-494l-141 -292h-389l141 292h-176z" />
<glyph unicode="&#x201a;" horiz-adv-x="634" d="M35 2v494h565v-494l-141 -293h-389l141 293h-176z" />
<glyph unicode="&#x201c;" d="M35 838v493l141 293h387l-141 -293h178v-493h-565zM670 838v493l141 293h389l-141 -293h176v-493h-565z" />
<glyph unicode="&#x201d;" d="M35 1130v494h565v-494l-141 -292h-389l141 292h-176zM670 1130v494h565v-494l-141 -292h-387l141 292h-178z" />
<glyph unicode="&#x201e;" d="M35 -2v494h565v-494l-141 -293h-389l141 293h-176zM670 -2v494h565v-494l-141 -293h-387l141 293h-178z" />
<glyph unicode="&#x2022;" horiz-adv-x="1341" d="M35 459v565l424 -70l-70 424h565l-71 -424l424 70v-565l-424 71l71 -424h-565l70 424z" />
<glyph unicode="&#x2026;" horiz-adv-x="1904" d="M35 0v494h565v-494h-565zM670 0v494h565v-494h-565zM1305 0v494h565v-494h-565z" />
<glyph unicode="&#x202f;" horiz-adv-x="388" />
<glyph unicode="&#x2039;" horiz-adv-x="493" d="M35 291v635l424 282v-424l-213 -180l213 -172v-432z" />
<glyph unicode="&#x203a;" horiz-adv-x="493" d="M35 0v432l211 172l-211 180v424l424 -282v-635z" />
<glyph unicode="&#x205f;" horiz-adv-x="485" />
<glyph unicode="&#x20ac;" horiz-adv-x="1056" d="M35 494v213h69v211l283 282h635l-72 -424h-280v-69h280l-35 -213h-245v-70h352l-72 -424h-563l-283 283v211h-69z" />
<glyph unicode="&#x2122;" horiz-adv-x="1720" d="M35 1126v193h678v-193h-207v-460h-258v460h-213zM774 666v657h316l139 -379l141 379h316v-657h-261v311l-125 -332h-153l-115 332v-311h-258z" />
<glyph unicode="&#x25fc;" horiz-adv-x="1198" d="M0 0v1198h1198v-1198h-1198z" />
</font>
</defs>
</svg>
