<?xml version="1.0" encoding="utf-8"?>
<!-- Generator: Adobe Illustrator 17.0.2, SVG Export Plug-In . SVG Version: 6.00 Build 0)  -->
<!DOCTYPE svg PUBLIC "-//W3C//DTD SVG 1.1 Basic//EN" "http://www.w3.org/Graphics/SVG/1.1/DTD/svg11-basic.dtd">
<svg version="1.1" baseProfile="basic" id="Layer_1"
	 xmlns="http://www.w3.org/2000/svg" xmlns:xlink="http://www.w3.org/1999/xlink" x="0px" y="0px" width="54px" height="35px"
	 viewBox="0 0 54 35" xml:space="preserve">
<g>
	<path d="M0,0v35h54V0H0z M50.5,31h-47V4h47V31z"/>
	<rect x="4.5" y="5" width="45" height="25"/>
</g>
<g>
	<path fill="#FFFFFF" d="M37.6,15.516c0,0.522-0.001,0.905,0,1.289c0.002,0.37,0.111,0.605,0.553,0.559
		c0.357-0.038,0.72-0.044,1.079-0.064c0.705-0.04,1.34-0.32,1.573-0.949c0.262-0.709,0.25-1.518-0.268-2.184
		c-0.631-0.812-1.548-0.819-2.445-0.822c-0.23-0.001-0.365,0.183-0.402,0.453C37.602,14.415,37.578,15.032,37.6,15.516
		 M36.884,22.533c-0.441,0-0.883-0.003-1.324,0.001c-0.267,0.003-0.47-0.086-0.505-0.382c-0.035-0.287,0.182-0.317,0.386-0.381
		c0.764-0.243,0.764-0.249,0.764-1.089c-0.002-1.23-0.007-2.461-0.006-3.692c0.001-1.109-0.008-2.22,0.019-3.329
		c0.009-0.405-0.14-0.51-0.503-0.442c-0.169,0.031-0.345,0.021-0.518,0.023c-0.159,0.002-0.278-0.068-0.312-0.232
		c-0.035-0.169,0.066-0.275,0.204-0.337c0.099-0.044,0.209-0.082,0.316-0.084c1.606-0.03,3.213-0.028,4.804,0.223
		c1.115,0.177,2.093,1.114,2.239,2.056c0.149,0.959-0.5,2.035-1.571,2.597c-0.069,0.037-0.149,0.057-0.211,0.104
		c-0.13,0.098-0.157,0.198,0.022,0.279c0.143,0.065,0.283,0.141,0.429,0.202c1.321,0.551,1.774,1.972,1.72,3.078
		c-0.007,0.142-0.002,0.286,0.01,0.428c0.026,0.308,0.205,0.421,0.488,0.35c0.164-0.042,0.309-0.047,0.449,0.055
		c0.159,0.115,0.315,0.255,0.274,0.465c-0.041,0.21-0.255,0.229-0.419,0.23c-0.581,0.003-1.164,0.006-1.742-0.034
		c-0.336-0.023-0.516-0.226-0.514-0.611c0.005-0.876,0.021-1.754-0.174-2.618c-0.135-0.598-0.835-1.194-1.432-1.192
		c-0.552,0.003-1.104,0.026-1.656,0.017c-0.293-0.004-0.431,0.08-0.427,0.407c0.012,0.924-0.008,1.847,0.096,2.768
		c0.034,0.299,0.221,0.357,0.453,0.378c0.253,0.023,0.577,0.021,0.56,0.358c-0.018,0.35-0.33,0.412-0.64,0.406
		C37.737,22.527,37.31,22.533,36.884,22.533"/>
	<path fill="#FFFFFF" d="M10.614,16.17c0-0.862-0.014-1.725,0.007-2.587c0.008-0.34-0.063-0.525-0.437-0.462
		c-0.061,0.01-0.126,0.003-0.189,0.001c-0.231-0.009-0.528,0.047-0.538-0.301c-0.009-0.321,0.271-0.473,0.517-0.435
		c0.834,0.127,1.66-0.044,2.488-0.01c0.06,0.003,0.124,0.025,0.179,0.052c0.225,0.117,0.607,0.158,0.549,0.477
		c-0.055,0.301-0.416,0.236-0.654,0.208c-0.351-0.042-0.434,0.108-0.438,0.429c-0.01,0.945-0.037,1.89-0.073,2.835
		c-0.016,0.416,0.113,0.615,0.564,0.606c1.056-0.023,2.112-0.004,3.168-0.009c0.393-0.002,0.781,0.042,1.172,0.075
		c0.525,0.045,0.672-0.198,0.655-0.724c-0.03-0.901-0.121-1.803-0.046-2.705c0.033-0.401-0.1-0.573-0.506-0.472
		c-0.06,0.015-0.126,0.007-0.189,0.003c-0.219-0.011-0.48,0.018-0.46-0.323c0.016-0.275,0.208-0.379,0.455-0.378
		c0.789,0.004,1.577,0.016,2.365,0.026c0.218,0.003,0.44-0.021,0.651,0.021c0.23,0.046,0.429,0.208,0.37,0.468
		c-0.053,0.235-0.277,0.269-0.501,0.244c-0.694-0.078-0.663-0.074-0.665,0.637c-0.003,1.175-0.073,2.352-0.074,3.527
		c-0.002,1.338,0.042,2.676,0.062,4.014c0.004,0.282,0.132,0.411,0.412,0.388c0.094-0.009,0.189,0,0.284-0.002
		c0.215-0.003,0.44-0.002,0.424,0.304c-0.014,0.249-0.181,0.358-0.418,0.358c-0.883,0-1.766-0.002-2.649-0.002
		c-0.127,0-0.253,0.007-0.379,0c-0.249-0.014-0.383-0.176-0.375-0.405c0.007-0.216,0.187-0.265,0.381-0.256
		c0.141,0.007,0.284,0.011,0.425-0.004c0.23-0.023,0.359-0.126,0.365-0.397c0.019-1.065,0.05-2.129,0.095-3.193
		c0.016-0.365-0.116-0.485-0.471-0.441c-1.231,0.151-2.47,0.086-3.705,0.089c-0.343,0.001-0.686-0.054-1.029-0.076
		c-0.279-0.019-0.417,0.116-0.375,0.404c0.149,1.042-0.045,2.092,0.073,3.137c0.035,0.313,0.135,0.439,0.452,0.333
		c0.165-0.056,0.343-0.064,0.507,0.016c0.184,0.09,0.298,0.229,0.272,0.456c-0.029,0.245-0.208,0.253-0.384,0.253
		c-1.087,0.003-2.174,0.003-3.26-0.002c-0.272-0.001-0.418-0.171-0.392-0.429c0.024-0.242,0.22-0.384,0.444-0.31
		c0.498,0.165,0.672-0.068,0.699-0.517c0.068-1.08,0.154-2.159,0.148-3.242c-0.003-0.559,0-1.119,0-1.678
		C10.595,16.17,10.605,16.17,10.614,16.17"/>
	<path fill="#FFFFFF" d="M30.676,22.492c-1.21,0-2.284,0.031-3.357-0.011c-0.69-0.027-1.38-0.06-2.071-0.064
		c-0.338-0.002-0.662,0.114-1.016,0.016c-0.269-0.074-0.455-0.19-0.441-0.452c0.013-0.259,0.208-0.418,0.482-0.435
		c0.062-0.003,0.126-0.003,0.189-0.003c0.692,0,0.788-0.092,0.808-0.819c0.011-0.408-0.003-0.816,0.003-1.224
		c0.029-1.754,0.062-3.508,0.091-5.262c0.003-0.208-0.027-0.417-0.014-0.623c0.023-0.34-0.134-0.463-0.45-0.446
		c-0.172,0.009-0.348,0.012-0.519-0.01c-0.267-0.035-0.455-0.21-0.444-0.476c0.013-0.31,0.27-0.352,0.525-0.34
		c0.738,0.033,1.477,0.073,2.216,0.093c0.266,0.007,0.532-0.038,0.798-0.049c0.22-0.009,0.439-0.007,0.641,0.111
		c0.166,0.098,0.274,0.24,0.25,0.422c-0.029,0.212-0.221,0.235-0.401,0.251c-1.084,0.093-1.073,0.094-1.074,1.192
		c-0.003,2.151-0.016,4.301-0.031,6.452c-0.004,0.679,0.041,0.746,0.689,0.746c0.971-0.001,1.943-0.012,2.915-0.02
		c0.524-0.005,0.75-0.179,0.852-0.695c0.059-0.301,0.167-0.576,0.318-0.838c0.103-0.18,0.253-0.245,0.438-0.167
		c0.17,0.072,0.235,0.204,0.234,0.411c-0.003,0.754-0.429,1.392-0.543,2.115c-0.024,0.155-0.181,0.219-0.378,0.18
		C31.11,22.493,30.822,22.502,30.676,22.492"/>
</g>
</svg>
