<?xml version="1.0" encoding="utf-8"?>
<!-- Generator: Adobe Illustrator 17.0.2, SVG Export Plug-In . SVG Version: 6.00 Build 0)  -->
<!DOCTYPE svg PUBLIC "-//W3C//DTD SVG 1.1 Basic//EN" "http://www.w3.org/Graphics/SVG/1.1/DTD/svg11-basic.dtd">
<svg version="1.1" baseProfile="basic" id="Layer_1"
	 xmlns="http://www.w3.org/2000/svg" xmlns:xlink="http://www.w3.org/1999/xlink" x="0px" y="0px" width="161px" height="56px"
	 viewBox="0 0 161 56" xml:space="preserve">
<g>
	<rect x="5.172" y="5.4" width="150.657" height="45.2"/>
	<path d="M0,0v56h161V0H0z M156.828,51.6H4.172V4.4h152.657V51.6z"/>
</g>
<g>
	<g>
		<path fill="#FFFFFF" d="M137.184,32.028c0.834-0.009,1.669,0.004,2.501-0.087c0.257-0.029,0.446,0.064,0.504,0.317
			c0.056,0.238,0.027,0.453-0.308,0.44c-0.127-0.004-0.254-0.001-0.381,0c-0.568,0.002-0.677,0.125-0.537,0.682
			c0.329,1.31,0.731,2.598,1.213,3.861c0.25,0.656,0.449,1.334,0.658,2.005c0.042,0.138,0.041,0.306,0.213,0.328
			c0.195,0.025,0.273-0.152,0.324-0.293c0.248-0.676,0.471-1.362,0.722-2.037c0.293-0.792,0.556-1.595,0.87-2.382
			c0.217-0.543,0.359-1.128,0.545-1.692c0.075-0.229-0.028-0.4-0.316-0.391c-0.207,0.007-0.414,0.001-0.62,0.002
			c-0.261,0.003-0.487-0.044-0.487-0.371c0-0.32,0.217-0.429,0.492-0.466c0.094-0.012,0.191,0.002,0.286-0.004
			c0.584-0.034,1.171,0.039,1.755-0.093c0.29-0.065,0.601-0.034,0.859,0.171c0.163,0.129,0.161,0.299,0.132,0.473
			c-0.029,0.181-0.176,0.214-0.325,0.201c-0.518-0.043-0.755,0.178-0.932,0.683c-0.615,1.747-1.318,3.463-1.956,5.203
			c-0.384,1.046-0.875,2.035-1.414,3.007c-0.101,0.18-0.23,0.35-0.479,0.328c-0.248-0.023-0.348-0.216-0.411-0.409
			c-0.265-0.82-0.504-1.648-0.772-2.466c-0.372-1.133-0.763-2.259-1.143-3.39c-0.038-0.114-0.094-0.207-0.222-0.214
			c-0.159-0.009-0.21,0.113-0.257,0.234c-0.318,0.818-0.625,1.643-0.958,2.455c-0.457,1.114-0.722,2.305-1.392,3.332
			c-0.131,0.201-0.226,0.442-0.507,0.428c-0.279-0.014-0.393-0.241-0.471-0.472c-0.362-1.071-0.705-2.147-1.084-3.212
			c-0.495-1.39-1.019-2.771-1.528-4.156c-0.091-0.249-0.182-0.5-0.253-0.755c-0.119-0.423-0.28-0.768-0.83-0.698
			c-0.217,0.028-0.31-0.153-0.313-0.336c-0.003-0.225,0.103-0.38,0.358-0.421c0.36-0.058,0.718,0.038,1.072,0.047
			c0.585,0.015,1.159-0.102,1.739-0.05c0.123,0.011,0.253-0.016,0.359,0.085c0.165,0.158,0.212,0.352,0.162,0.562
			c-0.056,0.229-0.257,0.191-0.429,0.197c-0.657,0.025-0.69,0.034-0.513,0.65c0.253,0.888,0.531,1.769,0.865,2.634
			c0.413,1.068,0.769,2.156,1.146,3.237c0.051,0.147,0.055,0.32,0.282,0.31c0.197-0.009,0.27-0.144,0.319-0.301
			c0.5-1.571,1.058-3.119,1.746-4.621c0.085-0.186,0.098-0.387,0.121-0.592c0.1-0.869-0.423-1.264-1.168-1.195
			c-0.289,0.028-0.52-0.04-0.516-0.378c0.003-0.325,0.214-0.415,0.516-0.394C136.675,32.042,136.93,32.028,137.184,32.028"/>
		<path fill="#FFFFFF" d="M56.241,31.944c0.429,0,0.859-0.009,1.288,0.003c0.31,0.009,0.532,0.174,0.522,0.491
			c-0.01,0.318-0.245,0.409-0.533,0.34c-0.534-0.128-0.612,0.253-0.759,0.612c-0.602,1.466-1.221,2.925-1.842,4.382
			c-0.465,1.092-0.743,2.263-1.421,3.263c-0.15,0.221-0.293,0.449-0.457,0.659c-0.292,0.373-0.601,0.335-0.758-0.115
			c-0.165-0.473-0.262-0.969-0.413-1.447c-0.47-1.496-0.882-3.012-1.451-4.477c-0.042-0.111-0.072-0.28-0.225-0.263
			c-0.111,0.012-0.108,0.17-0.153,0.268c-0.76,1.639-1.335,3.351-2.027,5.016c-0.101,0.245-0.239,0.483-0.402,0.694
			c-0.302,0.392-0.737,0.331-0.909-0.129c-0.412-1.102-0.822-2.204-1.203-3.316c-0.561-1.632-1.102-3.27-1.639-4.91
			c-0.108-0.331-0.332-0.348-0.594-0.28c-0.307,0.081-0.519-0.017-0.572-0.312c-0.065-0.357,0.197-0.472,0.495-0.478
			c0.883-0.019,1.768,0.001,2.65-0.091c0.133-0.014,0.284,0.034,0.412,0.087c0.145,0.06,0.294,0.152,0.257,0.348
			c-0.036,0.195-0.17,0.283-0.367,0.311c-0.852,0.122-0.845,0.123-0.599,0.952c0.567,1.909,1.188,3.8,1.908,5.659
			c0.051,0.133,0.076,0.302,0.243,0.314c0.162,0.012,0.234-0.127,0.28-0.27c0.519-1.631,1.161-3.215,1.889-4.764
			c0.286-0.61-0.157-1.077-0.298-1.601c-0.038-0.144-0.212-0.101-0.336-0.112c-0.186-0.016-0.367,0.004-0.56-0.059
			c-0.259-0.085-0.249-0.256-0.233-0.444c0.018-0.199,0.168-0.251,0.343-0.242c0.905,0.046,1.798-0.073,2.694-0.169
			c0.134-0.014,0.277,0.045,0.417,0.066c0.258,0.038,0.493,0.135,0.446,0.437c-0.047,0.307-0.27,0.301-0.542,0.244
			c-0.342-0.071-0.543,0.08-0.503,0.467c0.066,0.628,0.27,1.225,0.446,1.823c0.435,1.471,0.912,2.93,1.37,4.395
			c0.036,0.116,0.033,0.277,0.192,0.285c0.151,0.007,0.186-0.144,0.231-0.261c0.458-1.187,0.923-2.369,1.372-3.559
			c0.337-0.893,0.644-1.797,0.989-2.688c0.108-0.278,0.058-0.382-0.237-0.378c-0.222,0.003-0.446-0.013-0.667,0.007
			c-0.266,0.024-0.396-0.106-0.416-0.34c-0.023-0.26,0.111-0.425,0.385-0.431c0.43-0.008,0.859-0.002,1.289-0.002
			C56.241,31.935,56.241,31.939,56.241,31.944"/>
		<path fill="#FFFFFF" d="M18.079,16.882c0-0.851-0.014-1.701,0.007-2.551c0.008-0.336-0.065-0.518-0.441-0.455
			c-0.062,0.01-0.127,0.003-0.19,0.001c-0.234-0.009-0.533,0.046-0.543-0.297c-0.01-0.316,0.273-0.466,0.521-0.429
			c0.841,0.125,1.674-0.043,2.51-0.01c0.061,0.002,0.125,0.024,0.18,0.051c0.228,0.115,0.613,0.156,0.554,0.471
			c-0.055,0.296-0.419,0.232-0.659,0.204c-0.353-0.041-0.437,0.107-0.441,0.423c-0.011,0.933-0.037,1.864-0.074,2.796
			c-0.017,0.409,0.113,0.606,0.568,0.597c1.064-0.023,2.13-0.004,3.195-0.009c0.397-0.002,0.787,0.04,1.182,0.074
			c0.529,0.044,0.677-0.195,0.66-0.713c-0.03-0.889-0.121-1.778-0.046-2.668c0.033-0.395-0.101-0.564-0.511-0.465
			c-0.06,0.015-0.126,0.007-0.19,0.004c-0.221-0.012-0.485,0.017-0.464-0.319c0.016-0.272,0.211-0.374,0.459-0.373
			c0.796,0.004,1.59,0.016,2.386,0.026c0.219,0.002,0.444-0.021,0.656,0.02c0.23,0.046,0.432,0.205,0.373,0.461
			c-0.055,0.232-0.279,0.266-0.506,0.241c-0.7-0.077-0.668-0.074-0.67,0.627c-0.003,1.16-0.074,2.319-0.075,3.478
			c-0.002,1.32,0.042,2.639,0.063,3.957c0.004,0.278,0.133,0.405,0.415,0.382c0.095-0.008,0.191,0,0.287-0.001
			c0.216-0.003,0.444-0.003,0.427,0.299c-0.013,0.245-0.182,0.352-0.421,0.352c-0.89,0-1.781-0.001-2.671-0.002
			c-0.127,0-0.254,0.007-0.382,0c-0.251-0.013-0.387-0.173-0.379-0.398c0.007-0.213,0.189-0.262,0.385-0.252
			c0.143,0.007,0.288,0.01,0.429-0.004c0.231-0.023,0.362-0.124,0.367-0.392c0.019-1.05,0.05-2.099,0.096-3.148
			c0.015-0.36-0.117-0.478-0.474-0.436c-1.243,0.149-2.492,0.085-3.737,0.088c-0.346,0.001-0.692-0.053-1.038-0.075
			c-0.282-0.018-0.421,0.115-0.38,0.398c0.15,1.028-0.044,2.063,0.074,3.093c0.036,0.309,0.136,0.432,0.456,0.328
			c0.166-0.054,0.346-0.063,0.511,0.016c0.187,0.089,0.301,0.226,0.275,0.449c-0.029,0.242-0.21,0.25-0.388,0.25
			c-1.095,0.002-2.192,0.003-3.288-0.001c-0.274-0.001-0.421-0.169-0.396-0.423c0.023-0.239,0.222-0.378,0.447-0.305
			c0.503,0.163,0.677-0.067,0.706-0.51c0.068-1.065,0.154-2.128,0.148-3.196c-0.003-0.551,0-1.104,0-1.655
			C18.061,16.882,18.07,16.882,18.079,16.882"/>
		<path fill="#FFFFFF" d="M137.698,19.388c0,0.848,0.001,1.695,0,2.544c0,0.2,0.093,0.381,0.295,0.347
			c0.577-0.095,1.151,0.031,1.735-0.043c1.413-0.178,2.492-0.844,3.141-2.071c0.489-0.923,0.497-1.958,0.333-2.984
			c-0.072-0.448-0.196-0.883-0.387-1.297c-0.38-0.825-1.036-1.317-1.898-1.584c-0.932-0.289-1.864-0.487-2.846-0.297
			c-0.253,0.048-0.418,0.141-0.437,0.406c-0.073,0.97-0.072,1.947-0.078,2.915C137.553,18.002,137.545,18.702,137.698,19.388
			 M136.078,20.453c0.056-1.925,0.118-3.917,0.093-5.911c-0.007-0.617-0.029-0.64-0.639-0.634c-0.111,0.002-0.222-0.002-0.333,0.001
			c-0.199,0.005-0.417,0.001-0.427-0.255c-0.008-0.227,0.149-0.38,0.373-0.425c0.232-0.047,0.486-0.133,0.702-0.083
			c0.755,0.176,1.51-0.004,2.264,0.034c0.499,0.025,1.008,0.02,1.509,0.031c1.741,0.039,3.286,0.585,4.381,1.988
			c0.785,1.008,1.089,2.195,0.996,3.477c-0.037,0.507-0.114,1.002-0.364,1.448c-0.87,1.554-2.155,2.549-3.945,2.875
			c-0.429,0.078-0.842-0.038-1.266-0.028c-1.295,0.028-2.592,0.011-3.887,0.008c-0.157,0-0.323-0.001-0.47-0.047
			c-0.182-0.057-0.277-0.217-0.253-0.407c0.024-0.191,0.143-0.311,0.354-0.31c0.016,0,0.032,0,0.047-0.005
			c0.27-0.09,0.638,0.264,0.81-0.097c0.112-0.236,0.047-0.555,0.055-0.839C136.083,21.022,136.078,20.77,136.078,20.453"/>
		<path fill="#FFFFFF" d="M60.93,16.237c0,0.514-0.001,0.893,0,1.271c0.001,0.365,0.112,0.596,0.557,0.551
			c0.36-0.037,0.726-0.043,1.088-0.063c0.712-0.04,1.352-0.316,1.586-0.936c0.266-0.699,0.252-1.497-0.271-2.153
			c-0.636-0.8-1.56-0.808-2.466-0.81c-0.231-0.001-0.367,0.181-0.406,0.445C60.932,15.151,60.908,15.76,60.93,16.237 M60.208,23.156
			c-0.445,0-0.89-0.003-1.336,0.001c-0.27,0.002-0.473-0.085-0.51-0.377c-0.034-0.282,0.184-0.311,0.39-0.375
			c0.771-0.239,0.77-0.245,0.769-1.074c-0.001-1.214-0.006-2.426-0.005-3.64c0-1.095-0.008-2.189,0.018-3.283
			c0.01-0.399-0.14-0.503-0.507-0.436c-0.171,0.03-0.348,0.021-0.523,0.023c-0.16,0.002-0.281-0.067-0.315-0.229
			c-0.035-0.167,0.067-0.271,0.206-0.332c0.1-0.043,0.212-0.08,0.319-0.082c1.619-0.03,3.241-0.028,4.845,0.22
			c1.124,0.174,2.11,1.098,2.257,2.027c0.15,0.946-0.505,2.006-1.584,2.562c-0.071,0.036-0.151,0.056-0.214,0.101
			c-0.131,0.097-0.157,0.196,0.022,0.275c0.145,0.064,0.286,0.139,0.433,0.199c1.332,0.543,1.789,1.944,1.735,3.035
			c-0.007,0.14-0.002,0.282,0.01,0.422c0.026,0.303,0.207,0.414,0.492,0.344c0.165-0.041,0.311-0.046,0.452,0.054
			c0.161,0.114,0.318,0.252,0.277,0.459c-0.04,0.206-0.256,0.226-0.423,0.227c-0.586,0.003-1.173,0.006-1.758-0.034
			c-0.338-0.023-0.519-0.223-0.517-0.602c0.004-0.864,0.02-1.73-0.176-2.582c-0.136-0.59-0.843-1.178-1.445-1.176
			c-0.556,0.003-1.113,0.026-1.669,0.018c-0.296-0.005-0.435,0.079-0.431,0.4c0.011,0.912-0.009,1.822,0.097,2.73
			c0.034,0.295,0.223,0.352,0.456,0.373c0.255,0.022,0.583,0.021,0.565,0.352c-0.017,0.345-0.333,0.407-0.644,0.401
			C61.067,23.15,60.638,23.156,60.208,23.156"/>
		<path fill="#FFFFFF" d="M117.978,16.486c0,0.402-0.007,0.731,0.003,1.06c0.008,0.286,0.095,0.524,0.425,0.597
			c0.448,0.1,0.916,0.076,1.344,0.008c0.85-0.134,1.404-0.64,1.558-1.538c0.18-1.058-0.355-2.55-1.871-2.551
			c-0.302,0-0.605,0.01-0.907-0.003c-0.415-0.019-0.616,0.2-0.563,0.573C118.055,15.279,117.93,15.918,117.978,16.486
			 M118.174,23.168c-0.707-0.076-1.413-0.019-2.12,0.005c-0.187,0.006-0.339-0.044-0.463-0.189
			c-0.084-0.099-0.183-0.193-0.126-0.331c0.05-0.125,0.168-0.169,0.301-0.201c0.275-0.067,0.665,0.168,0.81-0.185
			c0.1-0.245,0.024-0.559,0.027-0.844c0.019-1.846,0.043-3.692,0.051-5.539c0.002-0.421-0.092-0.844-0.075-1.264
			c0.019-0.456-0.191-0.594-0.599-0.556c-0.265,0.024-0.576,0.046-0.577-0.302c0-0.362,0.325-0.444,0.627-0.41
			c1.295,0.146,2.593-0.087,3.892,0.047c1.044,0.107,2.699,0.924,2.92,2.064c0.159,0.818,0.039,1.505-0.608,2.078
			c-0.298,0.264-0.61,0.504-0.954,0.7c-0.28,0.16-0.206,0.255,0.029,0.366c0.5,0.236,0.998,0.461,1.353,0.923
			c0.586,0.761,0.611,1.668,0.693,2.551c0.034,0.38,0.117,0.482,0.504,0.432c0.576-0.076,0.638,0.021,0.579,0.5
			c-0.03,0.248-0.161,0.278-0.348,0.274c-0.492-0.009-0.983-0.01-1.474-0.039c-0.507-0.03-0.735-0.286-0.741-0.79
			c-0.009-0.785,0.048-1.571-0.206-2.339c-0.269-0.812-0.919-1.277-1.778-1.241c-0.492,0.02-0.984,0.009-1.476,0.013
			c-0.246,0.001-0.394,0.106-0.381,0.368c0.042,0.879,0.097,1.756,0.124,2.635c0.012,0.386,0.15,0.575,0.563,0.573
			c0.233-0.001,0.45,0.132,0.437,0.402c-0.013,0.268-0.241,0.293-0.46,0.292c-0.031-0.001-0.063,0.006-0.095,0.007
			C118.46,23.168,118.318,23.168,118.174,23.168"/>
		<path fill="#FFFFFF" d="M72.101,33.839c0.002,0,0.005,0,0.007,0c-0.037,0.736-0.091,1.472-0.108,2.209
			c-0.014,0.624,0.127,0.744,0.745,0.732c0.302-0.006,0.606,0.011,0.906-0.014c1.138-0.096,1.806-0.815,1.779-1.957
			c-0.026-1.079-0.924-1.996-2.23-2.087c-0.959-0.067-1.15-0.064-1.088,0.929C72.115,33.713,72.105,33.776,72.101,33.839
			 M71.353,31.922c1.047-0.006,2.096,0.04,3.122,0.235c1.408,0.269,2.375,1.041,2.396,2.584c0.011,0.851-0.525,1.429-1.143,1.912
			c-0.587,0.459-0.59,0.406,0.044,0.798c0.929,0.573,1.496,1.382,1.49,2.516c-0.001,0.266,0.03,0.533,0.043,0.8
			c0.017,0.361,0.191,0.531,0.555,0.421c0.198-0.061,0.378-0.102,0.504,0.097c0.099,0.154,0.099,0.333,0.01,0.495
			c-0.118,0.215-0.31,0.145-0.504,0.131c-0.474-0.034-0.952-0.045-1.428-0.053c-0.607-0.01-0.638-0.064-0.629-0.648
			c0.014-0.892,0.071-1.785-0.236-2.659c-0.276-0.786-0.713-1.171-1.552-1.209c-0.429-0.019-0.859-0.02-1.288-0.02
			c-0.551-0.001-0.788,0.207-0.711,0.739c0.118,0.8,0.072,1.6,0.08,2.399c0.004,0.396,0.142,0.556,0.533,0.499
			c0.064-0.009,0.126-0.017,0.19-0.024c0.26-0.029,0.497-0.005,0.507,0.329c0.009,0.305-0.203,0.41-0.466,0.417
			c-0.445,0.011-0.89,0.007-1.336,0.003c-0.524-0.005-1.045,0.018-1.568,0.06c-0.287,0.024-0.583-0.113-0.568-0.435
			c0.013-0.31,0.328-0.371,0.584-0.339c0.501,0.063,0.609-0.133,0.609-0.61c-0.003-1.59,0.057-3.181,0.081-4.771
			c0.012-0.832-0.015-1.663,0.005-2.495c0.009-0.398-0.136-0.558-0.533-0.498c-0.078,0.012-0.159,0.002-0.238,0.001
			c-0.215-0.004-0.327-0.137-0.334-0.326c-0.007-0.216,0.111-0.352,0.35-0.351C70.399,31.923,70.875,31.922,71.353,31.922"/>
		<path fill="#FFFFFF" d="M121.024,38.971c0,0.517,0.001,1.035,0,1.552c-0.001,0.324,0.151,0.471,0.481,0.4
			c0.502-0.108,1.001-0.126,1.505-0.007c0.175,0.041,0.343-0.027,0.51-0.078c0.403-0.125,0.805-0.13,1.218-0.04
			c0.65,0.141,0.762,0.037,0.741-0.601c-0.008-0.251,0.002-0.504,0.012-0.755c0.011-0.269,0.154-0.457,0.421-0.491
			c0.274-0.035,0.349,0.196,0.371,0.399c0.06,0.587,0.131,1.178,0.126,1.767c-0.003,0.469-0.329,0.634-0.804,0.615
			c-1.111-0.046-2.222-0.052-3.334-0.06c-1.155-0.009-2.311-0.002-3.467-0.003c-0.157,0-0.312,0.008-0.465-0.065
			c-0.178-0.085-0.276-0.223-0.269-0.402c0.007-0.172,0.139-0.285,0.305-0.322c0.137-0.03,0.284-0.043,0.424-0.034
			c0.569,0.036,0.647-0.014,0.675-0.608c0.023-0.471-0.002-0.945,0-1.417c0.007-1.772,0.027-3.545,0.022-5.317
			c-0.003-0.861-0.022-0.863-0.877-0.904c-0.164-0.007-0.333,0.002-0.385-0.195c-0.043-0.169-0.061-0.342,0.061-0.496
			c0.072-0.091,0.151-0.166,0.279-0.144c1.026,0.179,2.061,0.034,3.09,0.081c0.608,0.027,1.217,0.095,1.821,0.07
			c0.467-0.02,1.009,0.111,1.313-0.481c0.142-0.277,0.501-0.183,0.531,0.155c0.065,0.719,0.293,1.419,0.247,2.151
			c-0.015,0.234-0.118,0.351-0.341,0.365c-0.24,0.015-0.444-0.043-0.51-0.313c-0.011-0.045-0.004-0.094-0.009-0.141
			c-0.091-0.843-0.089-0.868-0.924-0.944c-0.757-0.069-1.519-0.07-2.278-0.111c-0.412-0.022-0.558,0.158-0.555,0.562
			c0.008,0.918-0.023,1.836-0.03,2.755c-0.003,0.271,0.126,0.475,0.419,0.467c0.807-0.023,1.609-0.108,2.419-0.061
			c0.293,0.017,0.345-0.24,0.315-0.474c-0.04-0.323-0.009-0.597,0.402-0.579c0.382,0.018,0.415,0.275,0.401,0.605
			c-0.024,0.597,0.004,1.196,0.023,1.794c0.009,0.271-0.089,0.41-0.375,0.423c-0.291,0.013-0.446-0.11-0.486-0.394
			c-0.094-0.683-0.095-0.662-0.82-0.657c-0.537,0.004-1.075-0.07-1.613-0.08c-0.526-0.01-0.628,0.112-0.627,0.645
			c0,0.456,0,0.913,0,1.369C121,38.971,121.011,38.971,121.024,38.971"/>
		<path fill="#FFFFFF" d="M87.282,40.818c0.661,0.131,1.442-0.169,2.24-0.023c0.323,0.059,0.75-0.007,0.662-0.583
			c-0.043-0.286,0.049-0.59,0.069-0.887c0.014-0.228,0.146-0.374,0.351-0.363c0.201,0.01,0.367,0.112,0.414,0.372
			c0.115,0.643,0.015,1.281-0.007,1.921c-0.012,0.34-0.257,0.342-0.509,0.342c-1.028-0.002-2.055-0.001-3.083-0.001
			c-1.288,0.001-2.576-0.002-3.865,0.003c-0.251,0.001-0.511,0.006-0.527-0.319c-0.016-0.299,0.229-0.374,0.472-0.424
			c0.733-0.15,0.73-0.15,0.732-0.882c0.004-1.446-0.04-2.895,0.04-4.337c0.045-0.799-0.036-1.585-0.039-2.377
			c-0.002-0.57-0.105-0.646-0.663-0.666c-0.227-0.009-0.576,0.121-0.569-0.291c0.007-0.395,0.329-0.474,0.646-0.466
			c0.529,0.012,1.065,0.126,1.586,0.077c0.912-0.087,1.817,0.095,2.733-0.026c0.345-0.046,0.749,0.044,1.128,0.058
			c0.22,0.009,0.372-0.056,0.395-0.3c0.018-0.193,0.123-0.345,0.319-0.35c0.234-0.006,0.39,0.16,0.428,0.373
			c0.126,0.699,0.052,1.405,0.027,2.108c-0.005,0.138-0.105,0.226-0.254,0.232c-0.161,0.008-0.314,0.016-0.417-0.153
			c-0.124-0.204-0.114-0.422-0.102-0.64c0.017-0.308-0.127-0.495-0.429-0.508c-0.981-0.04-1.965,0.017-2.945-0.084
			c-0.138-0.014-0.332,0.051-0.361,0.294c-0.127,1.051-0.104,2.098,0.01,3.146c0.022,0.201,0.142,0.329,0.349,0.304
			c0.65-0.079,1.303,0,1.952-0.043c0.382-0.025,0.838,0.003,0.708-0.632c-0.028-0.139,0.036-0.356,0.286-0.361
			c0.23-0.004,0.443-0.006,0.542,0.268c0.095,0.263,0.042,0.53,0.065,0.795c0.032,0.39-0.006,0.782,0.082,1.174
			c0.061,0.273,0.006,0.577-0.359,0.594c-0.335,0.015-0.52-0.167-0.478-0.536c0.047-0.415-0.135-0.61-0.58-0.578
			c-0.65,0.046-1.297-0.065-1.946-0.088c-0.551-0.02-0.756,0.174-0.689,0.697c0.11,0.848,0.044,1.695,0.064,2.543
			c0.015,0.634,0.036,0.649,0.683,0.62C86.679,40.809,86.917,40.818,87.282,40.818"/>
		<path fill="#FFFFFF" d="M44.432,18.109c-0.358-1.037-0.691-2.068-1.081-3.077c-0.101-0.261-0.285-0.066-0.355,0.1
			c-0.399,0.939-0.787,1.881-1.183,2.821c-0.119,0.282-0.048,0.393,0.276,0.399c0.696,0.012,1.394-0.072,2.09,0.054
			C44.382,18.442,44.439,18.273,44.432,18.109 M43.04,19c-0.398,0-0.796,0.011-1.192-0.004c-0.257-0.009-0.414,0.077-0.507,0.324
			c-0.332,0.881-0.683,1.754-1.017,2.635c-0.096,0.253-0.097,0.469,0.289,0.459c0.17-0.005,0.346,0.041,0.512,0.091
			c0.197,0.061,0.254,0.224,0.233,0.415c-0.022,0.204-0.172,0.239-0.344,0.239c-0.906,0-1.812,0.005-2.718-0.003
			c-0.262-0.003-0.351-0.186-0.338-0.418c0.013-0.233,0.142-0.343,0.382-0.296c0.508,0.1,0.814-0.147,1.013-0.576
			c0.721-1.553,1.415-3.117,2.019-4.719c0.192-0.511,0.485-0.986,0.662-1.5c0.285-0.819,0.803-1.523,1.11-2.326
			c0.092-0.243,0.246-0.367,0.486-0.371c0.257-0.005,0.47,0.12,0.565,0.361c0.24,0.613,0.467,1.232,0.69,1.852
			c0.29,0.808,0.562,1.623,0.855,2.43c0.379,1.045,0.769,2.084,1.153,3.127c0.124,0.336,0.247,0.673,0.36,1.014
			c0.13,0.391,0.315,0.657,0.812,0.59c0.241-0.032,0.482,0.124,0.447,0.429c-0.03,0.263-0.197,0.42-0.49,0.404
			c-0.237-0.013-0.481,0.012-0.712-0.029c-0.632-0.113-1.259-0.092-1.885,0.011c-0.221,0.036-0.412-0.002-0.58-0.136
			c-0.121-0.096-0.163-0.236-0.126-0.383c0.039-0.161,0.16-0.221,0.323-0.214c0.126,0.006,0.255-0.011,0.381,0.002
			c0.331,0.034,0.403-0.155,0.321-0.404c-0.287-0.876-0.591-1.746-0.894-2.616c-0.108-0.307-0.325-0.43-0.664-0.404
			c-0.38,0.029-0.762,0.006-1.144,0.006C43.04,18.993,43.04,18.997,43.04,19"/>
		<path fill="#FFFFFF" d="M33.645,36.877c0.395-0.016,0.792-0.072,1.184,0.016c0.346,0.079,0.4-0.087,0.317-0.358
			c-0.267-0.866-0.505-1.742-0.91-2.56c-0.059-0.12-0.059-0.31-0.249-0.287c-0.153,0.02-0.23,0.17-0.269,0.305
			c-0.211,0.727-0.643,1.353-0.934,2.042c-0.343,0.814-0.319,0.843,0.574,0.842C33.454,36.877,33.549,36.877,33.645,36.877
			 M30.393,41.657c-0.461,0-0.924,0.014-1.384-0.005c-0.28-0.012-0.557-0.081-0.543-0.452c0.016-0.39,0.32-0.41,0.585-0.365
			c0.563,0.095,0.843-0.179,1.065-0.643c0.692-1.444,1.287-2.934,2.014-4.356c0.71-1.388,1.189-2.87,1.919-4.242
			c0.085-0.159,0.162-0.36,0.405-0.346c0.22,0.014,0.326,0.178,0.422,0.343c0.254,0.442,0.324,0.947,0.485,1.42
			c0.479,1.411,1.022,2.801,1.493,4.214c0.34,1.024,0.848,1.984,1.107,3.038c0.088,0.359,0.299,0.661,0.776,0.592
			c0.338-0.049,0.469,0.174,0.448,0.46c-0.02,0.28-0.156,0.439-0.505,0.399c-0.886-0.102-1.779-0.05-2.669-0.051
			c-0.111,0-0.224,0.02-0.332,0.003c-0.164-0.027-0.303-0.102-0.326-0.291c-0.014-0.112-0.024-0.229,0.084-0.301
			c0.135-0.092,0.304-0.17,0.437-0.043c0.245,0.232,0.363-0.075,0.539-0.112c0.151-0.031,0.07-0.203,0.035-0.323
			c-0.266-0.914-0.443-1.851-0.829-2.733c-0.133-0.305-0.265-0.444-0.621-0.432c-0.746,0.025-1.494,0.002-2.241-0.014
			c-0.391-0.008-0.657,0.108-0.804,0.508c-0.286,0.78-0.624,1.543-0.919,2.322c-0.212,0.561-0.098,0.705,0.498,0.703
			c0.079,0,0.157-0.028,0.235-0.024c0.215,0.009,0.502-0.045,0.508,0.273c0.006,0.293-0.206,0.452-0.499,0.459
			c-0.461,0.01-0.923,0.003-1.384,0.003V41.657z"/>
		<path fill="#FFFFFF" d="M100.52,18.345c0.205,0,0.332-0.002,0.459,0.001c0.611,0.015,0.568,0.016,0.384-0.585
			c-0.249-0.81-0.627-1.577-0.822-2.405c-0.039-0.169-0.063-0.432-0.299-0.427c-0.189,0.003-0.229,0.236-0.285,0.396
			c-0.322,0.919-0.617,1.847-1.047,2.724c-0.151,0.308-0.039,0.386,0.267,0.381C99.653,18.421,100.119,18.277,100.52,18.345
			 M103.745,23.156c-0.429,0-0.858,0-1.288,0c-0.298,0-0.561-0.078-0.564-0.425c-0.004-0.373,0.314-0.289,0.531-0.291
			c0.662-0.006,0.638,0.008,0.454-0.618c-0.253-0.86-0.601-1.681-0.926-2.513c-0.12-0.308-0.311-0.355-0.593-0.302
			c-0.77,0.146-1.55,0.096-2.321,0.041c-0.27-0.02-0.443,0.036-0.554,0.24c-0.516,0.947-0.714,2.006-1.052,3.016
			c-0.06,0.177,0.087,0.249,0.252,0.254c0.175,0.005,0.349,0.004,0.524,0.006c0.232,0.002,0.342,0.111,0.354,0.347
			c0.015,0.311-0.205,0.264-0.387,0.265c-0.604,0.004-1.207-0.01-1.811,0.006c-0.283,0.007-0.563,0.077-0.846,0.102
			c-0.262,0.024-0.488-0.032-0.492-0.358c-0.004-0.314,0.247-0.459,0.47-0.406c0.722,0.172,0.922-0.319,1.128-0.802
			c0.719-1.685,1.448-3.366,2.129-5.067c0.427-1.066,0.96-2.081,1.411-3.135c0.114-0.267,0.23-0.498,0.606-0.487
			c0.363,0.01,0.455,0.253,0.542,0.5c0.457,1.302,0.92,2.601,1.416,3.887c0.559,1.448,1.076,2.911,1.622,4.364
			c0.131,0.348,0.243,0.726,0.795,0.588c0.181-0.046,0.371,0.144,0.387,0.395c0.016,0.261-0.127,0.393-0.36,0.401
			c-0.476,0.017-0.952,0.005-1.429,0.005V23.156z"/>
		<path fill="#FFFFFF" d="M103.435,31.928c0.469-0.056,0.945,0.055,1.419-0.067c0.292-0.076,0.528,0.083,0.574,0.411
			c0.052,0.373-0.196,0.422-0.477,0.399c-0.341-0.029-0.483,0.123-0.616,0.438c-0.86,2.04-1.745,4.071-2.544,6.137
			c-0.299,0.772-0.559,1.559-0.937,2.3c-0.124,0.243-0.272,0.427-0.577,0.397c-0.302-0.029-0.42-0.227-0.498-0.492
			c-0.579-1.963-1.501-3.788-2.328-5.651c-0.35-0.788-0.669-1.591-0.966-2.399c-0.177-0.481-0.493-0.706-0.991-0.697
			c-0.25,0.004-0.463-0.043-0.462-0.337c0.001-0.258,0.202-0.314,0.427-0.341c0.868-0.107,1.732-0.132,2.602-0.006
			c0.213,0.03,0.433,0.012,0.656-0.052c0.235-0.068,0.447,0.044,0.487,0.317c0.04,0.28-0.115,0.406-0.388,0.41
			c-0.047,0.001-0.095,0-0.143,0.001c-0.855,0.013-0.852,0.012-0.534,0.842c0.754,1.962,1.562,3.903,2.393,5.835
			c0.054,0.124,0.055,0.315,0.235,0.301c0.138-0.011,0.142-0.184,0.188-0.299c0.538-1.34,1.124-2.665,1.6-4.026
			c0.241-0.69,0.557-1.364,0.681-2.095c0.069-0.404-0.065-0.603-0.499-0.557c-0.094,0.01-0.191,0.001-0.286,0.001
			c-0.271,0-0.54-0.028-0.543-0.375c-0.003-0.379,0.289-0.393,0.572-0.392C102.799,31.929,103.117,31.928,103.435,31.928"/>
		<path fill="#FFFFFF" d="M23.53,41.659c-1.22,0-2.304,0.03-3.385-0.011c-0.697-0.026-1.392-0.059-2.09-0.063
			c-0.34-0.002-0.667,0.112-1.025,0.016c-0.272-0.073-0.458-0.187-0.445-0.445c0.014-0.256,0.21-0.412,0.487-0.428
			c0.063-0.004,0.127-0.003,0.191-0.003c0.698,0,0.795-0.09,0.814-0.807c0.011-0.402-0.003-0.804,0.003-1.207
			c0.029-1.729,0.064-3.459,0.093-5.188c0.003-0.205-0.027-0.41-0.014-0.614c0.023-0.334-0.135-0.456-0.453-0.439
			c-0.174,0.009-0.351,0.012-0.524-0.01c-0.27-0.035-0.458-0.207-0.447-0.469c0.013-0.305,0.273-0.346,0.529-0.335
			c0.745,0.032,1.49,0.071,2.235,0.091c0.268,0.008,0.537-0.037,0.806-0.048c0.222-0.009,0.441-0.007,0.646,0.11
			c0.168,0.096,0.277,0.237,0.252,0.416c-0.029,0.209-0.223,0.231-0.405,0.247c-1.093,0.091-1.082,0.093-1.083,1.176
			c-0.002,2.12-0.016,4.241-0.031,6.361c-0.005,0.67,0.041,0.736,0.695,0.735c0.98,0,1.961-0.011,2.941-0.019
			c0.529-0.005,0.757-0.176,0.859-0.685c0.061-0.297,0.169-0.567,0.321-0.826c0.104-0.178,0.255-0.242,0.442-0.165
			c0.171,0.071,0.236,0.201,0.235,0.406c-0.002,0.743-0.433,1.372-0.548,2.085c-0.024,0.152-0.182,0.216-0.381,0.177
			C23.968,41.661,23.679,41.669,23.53,41.659"/>
		<path fill="#FFFFFF" d="M79.372,13.231c0.397,0,0.795,0.005,1.191-0.001c0.316-0.005,0.571,0.132,0.567,0.439
			c-0.004,0.314-0.322,0.23-0.53,0.236c-0.657,0.018-0.687,0.058-0.427,0.72c0.76,1.945,1.548,3.879,2.381,5.796
			c0.062,0.144,0.105,0.298,0.182,0.433c0.067,0.117,0.019,0.334,0.199,0.343c0.213,0.01,0.279-0.207,0.322-0.36
			c0.36-1.268,0.894-2.476,1.293-3.73c0.259-0.818,0.656-1.594,0.856-2.436c0.151-0.635,0.135-0.662-0.517-0.674
			c-0.111-0.002-0.225-0.002-0.332-0.025c-0.151-0.031-0.338-0.05-0.319-0.272c0.018-0.203,0.109-0.373,0.344-0.381
			c0.789-0.025,1.579-0.06,2.367-0.045c0.201,0.004,0.527,0.034,0.521,0.369c-0.006,0.353-0.282,0.371-0.55,0.353
			c-0.28-0.018-0.404,0.09-0.506,0.368c-0.64,1.75-1.313,3.489-1.971,5.233c-0.259,0.689-0.509,1.382-0.76,2.074
			c-0.2,0.55-0.506,1.039-0.896,1.474c-0.255,0.283-0.46,0.136-0.595-0.122c-0.225-0.43-0.437-0.87-0.629-1.316
			c-1.023-2.394-2.045-4.789-3.047-7.192c-0.164-0.391-0.303-0.675-0.812-0.528c-0.2,0.057-0.411-0.024-0.44-0.301
			c-0.027-0.266,0.118-0.328,0.353-0.394C78.201,13.127,78.79,13.248,79.372,13.231"/>
		<path fill="#FFFFFF" d="M112.898,41.659c-0.966-0.139-1.93,0.019-2.895,0.026c-0.315,0.002-0.514-0.126-0.511-0.42
			c0.004-0.293,0.233-0.374,0.51-0.345c0.141,0.015,0.286,0.007,0.429,0c0.334-0.017,0.546-0.179,0.53-0.526
			c-0.062-1.286,0.148-2.568,0.024-3.857c-0.066-0.682,0.018-1.379,0.008-2.068c-0.007-0.478-0.078-0.957-0.089-1.435
			c-0.008-0.342-0.197-0.43-0.488-0.431c-0.175,0-0.35-0.001-0.525-0.002c-0.295,0-0.457-0.158-0.434-0.439
			c0.023-0.283,0.261-0.425,0.505-0.389c0.998,0.145,1.996,0.041,2.993,0.044c0.048,0.001,0.097-0.002,0.143,0.005
			c0.291,0.043,0.681,0.009,0.683,0.419c0.002,0.462-0.428,0.364-0.691,0.345c-0.491-0.035-0.571,0.086-0.574,0.6
			c-0.004,0.66,0.096,1.334-0.079,2.002c-0.133,0.513,0.045,1.052,0.01,1.59c-0.061,0.929,0.019,1.865,0.039,2.799
			c0.003,0.142-0.009,0.284,0.003,0.425c0.024,0.28-0.011,0.596,0.11,0.832c0.152,0.294,0.498,0.023,0.748,0.1
			c0.205,0.062,0.478,0.041,0.472,0.356c-0.004,0.318-0.229,0.376-0.495,0.371C113.185,41.657,113.042,41.659,112.898,41.659"/>
	</g>
</g>
</svg>
