<?xml version="1.0" encoding="utf-8"?>
<!-- Generator: Adobe Illustrator 17.0.2, SVG Export Plug-In . SVG Version: 6.00 Build 0)  -->
<!DOCTYPE svg PUBLIC "-//W3C//DTD SVG 1.1 Basic//EN" "http://www.w3.org/Graphics/SVG/1.1/DTD/svg11-basic.dtd">
<svg version="1.1" baseProfile="basic" id="Layer_1"
	 xmlns="http://www.w3.org/2000/svg" xmlns:xlink="http://www.w3.org/1999/xlink" x="0px" y="0px" width="304px" height="44px"
	 viewBox="0 0 304 44" xml:space="preserve">
<g>
	<rect x="6" y="6.5" width="292" height="31"/>
	<path d="M0,0v44h304V0H0z M299,38.5H5v-33h294V38.5z"/>
</g>
<g>
	<path fill="#FFFFFF" d="M43.357,21.956c-0.422-1.246-0.812-2.485-1.27-3.698c-0.119-0.313-0.335-0.079-0.418,0.121
		c-0.469,1.128-0.926,2.261-1.391,3.39c-0.14,0.34-0.057,0.472,0.324,0.48c0.818,0.015,1.639-0.086,2.456,0.065
		C43.298,22.357,43.365,22.153,43.357,21.956 M41.721,23.026c-0.467,0-0.935,0.013-1.401-0.005c-0.303-0.011-0.486,0.092-0.596,0.39
		c-0.39,1.058-0.802,2.109-1.194,3.166c-0.112,0.305-0.114,0.565,0.339,0.552c0.2-0.005,0.407,0.05,0.601,0.111
		c0.232,0.073,0.299,0.27,0.275,0.499c-0.027,0.245-0.202,0.288-0.405,0.288c-1.065-0.001-2.129,0.005-3.194-0.004
		c-0.308-0.003-0.412-0.223-0.397-0.503c0.015-0.28,0.167-0.413,0.448-0.356c0.598,0.121,0.957-0.177,1.191-0.693
		c0.846-1.866,1.663-3.745,2.372-5.672c0.226-0.613,0.569-1.183,0.779-1.802c0.334-0.984,0.943-1.831,1.302-2.796
		c0.109-0.292,0.29-0.442,0.571-0.447c0.303-0.006,0.554,0.145,0.665,0.435c0.282,0.737,0.549,1.48,0.81,2.225
		c0.34,0.972,0.661,1.951,1.005,2.922c0.444,1.255,0.904,2.505,1.355,3.758c0.145,0.405,0.291,0.809,0.423,1.218
		c0.153,0.471,0.37,0.791,0.954,0.711c0.283-0.039,0.566,0.15,0.525,0.515c-0.036,0.316-0.23,0.506-0.575,0.487
		c-0.279-0.016-0.565,0.014-0.837-0.034c-0.741-0.136-1.478-0.111-2.214,0.013c-0.259,0.044-0.484-0.002-0.682-0.164
		c-0.142-0.116-0.191-0.283-0.148-0.46c0.046-0.194,0.187-0.266,0.379-0.258c0.149,0.007,0.3-0.013,0.448,0.003
		c0.389,0.041,0.473-0.187,0.377-0.487c-0.337-1.052-0.694-2.099-1.052-3.144c-0.126-0.369-0.381-0.517-0.78-0.487
		c-0.445,0.035-0.896,0.008-1.344,0.008C41.721,23.018,41.721,23.022,41.721,23.026"/>
	<path fill="#FFFFFF" d="M55.563,19.706c0,0.618-0.001,1.073,0,1.528c0.002,0.439,0.132,0.717,0.655,0.662
		c0.423-0.045,0.853-0.052,1.279-0.076c0.836-0.048,1.588-0.379,1.864-1.124c0.311-0.84,0.296-1.8-0.318-2.588
		c-0.748-0.962-1.834-0.971-2.898-0.974c-0.272-0.001-0.433,0.217-0.477,0.536C55.566,18.401,55.537,19.133,55.563,19.706
		 M54.715,28.022c-0.523,0-1.046-0.003-1.569,0.001c-0.317,0.003-0.557-0.102-0.599-0.453c-0.041-0.34,0.216-0.375,0.457-0.451
		c0.906-0.288,0.906-0.295,0.905-1.291c-0.002-1.458-0.008-2.917-0.007-4.376c0.001-1.315-0.009-2.631,0.022-3.946
		c0.011-0.48-0.166-0.604-0.596-0.524c-0.2,0.036-0.409,0.025-0.614,0.027c-0.188,0.002-0.33-0.08-0.37-0.275
		c-0.042-0.201,0.078-0.326,0.242-0.399c0.117-0.053,0.248-0.097,0.374-0.099c1.903-0.035,3.808-0.033,5.693,0.265
		c1.321,0.21,2.48,1.32,2.653,2.437c0.177,1.137-0.593,2.412-1.862,3.078c-0.082,0.044-0.177,0.068-0.25,0.123
		c-0.154,0.117-0.186,0.235,0.026,0.331c0.17,0.077,0.335,0.167,0.508,0.239c1.565,0.653,2.103,2.337,2.039,3.648
		c-0.008,0.168-0.002,0.339,0.012,0.507c0.031,0.365,0.243,0.499,0.578,0.415c0.194-0.05,0.366-0.056,0.532,0.065
		c0.188,0.137,0.373,0.302,0.325,0.552c-0.048,0.248-0.302,0.272-0.497,0.273c-0.689,0.004-1.379,0.007-2.065-0.041
		c-0.398-0.027-0.611-0.268-0.609-0.724c0.006-1.038,0.025-2.079-0.206-3.103c-0.16-0.709-0.99-1.415-1.697-1.412
		c-0.654,0.003-1.308,0.03-1.962,0.02c-0.347-0.005-0.511,0.095-0.506,0.483c0.014,1.095-0.01,2.189,0.114,3.281
		c0.04,0.354,0.262,0.423,0.537,0.448c0.3,0.027,0.684,0.025,0.664,0.424c-0.021,0.415-0.391,0.489-0.758,0.482
		C55.725,28.015,55.22,28.022,54.715,28.022"/>
	<path fill="#FFFFFF" d="M68.147,16.093c0.467,0,0.934,0.005,1.4-0.002c0.371-0.005,0.672,0.16,0.667,0.529
		c-0.006,0.377-0.379,0.277-0.623,0.283c-0.773,0.022-0.807,0.07-0.503,0.866c0.894,2.339,1.82,4.664,2.798,6.967
		c0.073,0.172,0.124,0.358,0.214,0.52c0.078,0.141,0.022,0.402,0.233,0.413c0.251,0.012,0.328-0.249,0.379-0.433
		c0.423-1.524,1.051-2.975,1.519-4.484c0.305-0.982,0.772-1.915,1.007-2.928c0.177-0.763,0.158-0.796-0.608-0.81
		c-0.131-0.003-0.264-0.003-0.39-0.03c-0.179-0.038-0.398-0.061-0.375-0.327c0.022-0.244,0.128-0.449,0.404-0.458
		c0.928-0.029,1.856-0.072,2.783-0.054c0.235,0.004,0.619,0.042,0.612,0.443c-0.008,0.425-0.331,0.447-0.647,0.426
		c-0.328-0.022-0.475,0.107-0.594,0.442c-0.752,2.104-1.543,4.194-2.316,6.291c-0.305,0.827-0.598,1.661-0.893,2.492
		c-0.235,0.662-0.595,1.249-1.054,1.772c-0.3,0.34-0.541,0.163-0.699-0.147c-0.264-0.517-0.514-1.044-0.738-1.582
		c-1.202-2.878-2.404-5.757-3.581-8.645c-0.192-0.47-0.356-0.812-0.954-0.636c-0.235,0.069-0.483-0.028-0.517-0.361
		c-0.032-0.32,0.14-0.394,0.415-0.474C66.771,15.967,67.462,16.114,68.147,16.093"/>
	<path fill="#FFFFFF" d="M85.142,22.24c0.242,0,0.391-0.003,0.541,0c0.717,0.018,0.668,0.02,0.45-0.704
		c-0.293-0.974-0.737-1.895-0.965-2.89c-0.047-0.204-0.074-0.52-0.352-0.514c-0.221,0.004-0.268,0.284-0.334,0.476
		c-0.378,1.104-0.724,2.22-1.23,3.274c-0.178,0.371-0.047,0.463,0.313,0.457C84.123,22.331,84.671,22.158,85.142,22.24
		 M88.934,28.022c-0.504,0-1.009,0-1.513,0c-0.35,0-0.66-0.093-0.664-0.512c-0.004-0.447,0.369-0.347,0.624-0.349
		c0.778-0.007,0.75,0.009,0.534-0.743c-0.298-1.033-0.706-2.022-1.088-3.021c-0.142-0.369-0.366-0.426-0.697-0.362
		c-0.905,0.175-1.82,0.115-2.727,0.049c-0.316-0.023-0.52,0.044-0.651,0.289c-0.605,1.138-0.839,2.411-1.236,3.624
		c-0.07,0.213,0.102,0.3,0.296,0.305c0.206,0.006,0.411,0.005,0.617,0.007c0.272,0.003,0.402,0.135,0.416,0.419
		c0.018,0.374-0.241,0.316-0.455,0.318c-0.709,0.005-1.419-0.012-2.128,0.007c-0.332,0.008-0.662,0.092-0.994,0.123
		c-0.308,0.029-0.573-0.039-0.578-0.431c-0.005-0.377,0.291-0.552,0.554-0.488c0.848,0.206,1.082-0.384,1.324-0.965
		c0.844-2.026,1.702-4.046,2.502-6.09c0.502-1.281,1.128-2.502,1.659-3.768c0.134-0.32,0.27-0.598,0.712-0.586
		c0.426,0.013,0.535,0.305,0.637,0.602c0.537,1.563,1.08,3.125,1.664,4.672c0.657,1.74,1.264,3.5,1.906,5.246
		c0.154,0.419,0.286,0.873,0.933,0.707c0.213-0.055,0.436,0.173,0.455,0.475c0.02,0.314-0.149,0.472-0.423,0.482
		c-0.559,0.021-1.119,0.007-1.679,0.007V28.022z"/>
	<path fill="#FFFFFF" d="M98.503,20.006c0,0.483-0.009,0.879,0.003,1.273c0.009,0.344,0.112,0.631,0.499,0.719
		c0.527,0.12,1.076,0.09,1.58,0.009c0.999-0.161,1.65-0.769,1.83-1.848c0.211-1.272-0.417-3.065-2.198-3.066
		c-0.355,0-0.711,0.012-1.065-0.004c-0.488-0.023-0.724,0.24-0.663,0.689C98.594,18.554,98.446,19.323,98.503,20.006 M98.734,28.037
		c-0.83-0.091-1.661-0.022-2.491,0.006c-0.22,0.008-0.399-0.053-0.545-0.228c-0.099-0.119-0.215-0.231-0.148-0.397
		c0.06-0.151,0.197-0.203,0.353-0.242c0.323-0.08,0.782,0.203,0.952-0.222c0.117-0.294,0.029-0.672,0.032-1.014
		c0.022-2.219,0.051-4.439,0.06-6.658c0.002-0.506-0.108-1.015-0.087-1.519c0.022-0.549-0.224-0.715-0.704-0.67
		c-0.31,0.029-0.677,0.056-0.678-0.362c0-0.436,0.382-0.534,0.736-0.494c1.523,0.175,3.047-0.104,4.574,0.057
		c1.226,0.129,3.17,1.11,3.43,2.481c0.186,0.984,0.046,1.81-0.714,2.498c-0.35,0.317-0.717,0.606-1.12,0.842
		c-0.329,0.192-0.243,0.306,0.033,0.44c0.587,0.284,1.174,0.555,1.591,1.109c0.687,0.914,0.716,2.005,0.812,3.066
		c0.042,0.457,0.139,0.58,0.593,0.519c0.677-0.091,0.749,0.025,0.681,0.601c-0.036,0.298-0.189,0.335-0.41,0.329
		c-0.577-0.011-1.155-0.011-1.731-0.047c-0.596-0.036-0.864-0.345-0.871-0.951c-0.01-0.943,0.057-1.888-0.242-2.811
		c-0.316-0.976-1.08-1.534-2.09-1.491c-0.577,0.024-1.156,0.011-1.734,0.015c-0.29,0.002-0.462,0.129-0.447,0.444
		c0.05,1.055,0.115,2.11,0.146,3.166c0.014,0.464,0.176,0.691,0.662,0.688c0.274-0.001,0.529,0.16,0.513,0.484
		c-0.015,0.322-0.283,0.353-0.54,0.351c-0.037,0-0.074,0.008-0.112,0.009C99.07,28.038,98.902,28.037,98.734,28.037"/>
	<path fill="#FFFFFF" d="M113.48,23.492c0,1.02,0,2.039-0.001,3.058c0,0.241,0.109,0.458,0.346,0.418
		c0.679-0.115,1.353,0.038,2.039-0.051c1.661-0.215,2.928-1.015,3.692-2.49c0.574-1.109,0.583-2.354,0.39-3.587
		c-0.084-0.539-0.23-1.06-0.454-1.558c-0.446-0.994-1.217-1.584-2.23-1.905c-1.094-0.348-2.19-0.586-3.345-0.357
		c-0.296,0.059-0.49,0.169-0.513,0.488c-0.085,1.167-0.084,2.341-0.091,3.504C113.308,21.828,113.299,22.668,113.48,23.492
		 M111.575,24.773c0.066-2.315,0.138-4.708,0.109-7.104c-0.009-0.743-0.034-0.771-0.75-0.762c-0.131,0.001-0.262-0.002-0.393,0.001
		c-0.233,0.005-0.489,0.001-0.501-0.306c-0.01-0.274,0.175-0.458,0.438-0.513c0.272-0.056,0.57-0.159,0.824-0.099
		c0.888,0.212,1.774-0.005,2.661,0.041c0.586,0.03,1.183,0.024,1.774,0.039c2.046,0.047,3.861,0.703,5.148,2.39
		c0.923,1.211,1.28,2.639,1.171,4.18c-0.043,0.609-0.134,1.203-0.428,1.74c-1.023,1.867-2.534,3.063-4.636,3.455
		c-0.505,0.094-0.989-0.046-1.487-0.034c-1.523,0.034-3.046,0.014-4.569,0.01c-0.185,0-0.379-0.001-0.551-0.057
		c-0.215-0.069-0.326-0.261-0.298-0.489c0.028-0.23,0.167-0.374,0.416-0.373c0.018,0,0.038,0,0.055-0.006
		c0.317-0.108,0.75,0.317,0.952-0.117c0.132-0.284,0.056-0.668,0.064-1.008C111.581,25.457,111.575,25.154,111.575,24.773"/>
	<path fill="#FFFFFF" d="M20.58,20.481c0-1.022-0.017-2.044,0.008-3.066c0.01-0.404-0.075-0.622-0.518-0.547
		c-0.072,0.012-0.149,0.004-0.224,0.001c-0.274-0.01-0.626,0.056-0.638-0.357c-0.011-0.38,0.321-0.561,0.613-0.516
		c0.988,0.151,1.967-0.052,2.949-0.012c0.071,0.003,0.147,0.029,0.212,0.062c0.267,0.139,0.719,0.188,0.651,0.566
		c-0.065,0.357-0.493,0.28-0.775,0.246c-0.416-0.05-0.514,0.128-0.519,0.509c-0.012,1.12-0.044,2.24-0.087,3.36
		c-0.019,0.493,0.134,0.729,0.668,0.718c1.251-0.027,2.503-0.005,3.755-0.011c0.466-0.002,0.926,0.05,1.389,0.089
		c0.622,0.054,0.797-0.234,0.776-0.858c-0.036-1.068-0.143-2.137-0.054-3.206c0.039-0.475-0.119-0.679-0.6-0.56
		c-0.071,0.018-0.149,0.008-0.224,0.004c-0.259-0.013-0.569,0.021-0.545-0.383c0.019-0.326,0.247-0.449,0.539-0.448
		c0.935,0.005,1.869,0.019,2.803,0.03c0.258,0.004,0.522-0.024,0.771,0.025c0.272,0.055,0.508,0.246,0.438,0.555
		c-0.063,0.279-0.328,0.319-0.594,0.289c-0.822-0.092-0.786-0.088-0.788,0.755c-0.003,1.393-0.086,2.787-0.088,4.18
		c-0.002,1.586,0.05,3.171,0.074,4.757c0.005,0.335,0.156,0.488,0.488,0.459c0.111-0.01,0.224,0,0.336-0.002
		c0.255-0.003,0.522-0.002,0.503,0.36c-0.016,0.295-0.214,0.424-0.495,0.424c-1.046,0-2.093-0.002-3.139-0.002
		c-0.15,0-0.3,0.008-0.449,0c-0.295-0.016-0.454-0.209-0.444-0.48c0.008-0.255,0.222-0.314,0.452-0.303
		c0.167,0.008,0.337,0.013,0.504-0.005c0.272-0.027,0.426-0.149,0.432-0.47c0.022-1.262,0.059-2.523,0.112-3.785
		c0.019-0.433-0.137-0.575-0.558-0.523c-1.459,0.179-2.927,0.101-4.391,0.105c-0.407,0.001-0.813-0.064-1.22-0.09
		c-0.331-0.022-0.494,0.138-0.445,0.479c0.176,1.235-0.053,2.48,0.086,3.718c0.042,0.371,0.16,0.52,0.536,0.394
		c0.195-0.066,0.407-0.076,0.601,0.019c0.218,0.106,0.353,0.272,0.322,0.54c-0.034,0.29-0.247,0.3-0.455,0.3
		c-1.288,0.003-2.576,0.003-3.864-0.002c-0.322-0.001-0.495-0.203-0.465-0.508c0.028-0.287,0.261-0.455,0.526-0.367
		c0.59,0.196,0.796-0.081,0.828-0.612c0.08-1.28,0.182-2.559,0.175-3.842c-0.003-0.663,0-1.326,0-1.989
		C20.558,20.481,20.569,20.481,20.58,20.481"/>
	<path fill="#FFFFFF" d="M277.402,16.397c0.98-0.011,1.962,0.005,2.938-0.105c0.303-0.033,0.524,0.078,0.593,0.382
		c0.064,0.287,0.031,0.544-0.363,0.529c-0.149-0.005-0.298-0.002-0.447-0.001c-0.667,0.004-0.796,0.152-0.631,0.821
		c0.387,1.574,0.859,3.122,1.426,4.64c0.295,0.79,0.528,1.604,0.774,2.412c0.05,0.164,0.048,0.367,0.249,0.393
		c0.23,0.03,0.322-0.182,0.382-0.352c0.292-0.813,0.554-1.636,0.848-2.449c0.344-0.953,0.653-1.917,1.023-2.863
		c0.255-0.653,0.422-1.355,0.64-2.034c0.088-0.276-0.033-0.482-0.372-0.469c-0.242,0.008-0.485,0-0.728,0.002
		c-0.307,0.002-0.572-0.054-0.571-0.447c0-0.385,0.255-0.515,0.577-0.56c0.11-0.015,0.224,0.002,0.336-0.005
		c0.686-0.041,1.376,0.047,2.062-0.113c0.341-0.078,0.706-0.041,1.01,0.206c0.191,0.155,0.188,0.36,0.155,0.569
		c-0.034,0.218-0.207,0.258-0.383,0.242c-0.608-0.052-0.886,0.213-1.095,0.82c-0.721,2.101-1.548,4.164-2.297,6.254
		c-0.451,1.257-1.029,2.447-1.662,3.614c-0.118,0.218-0.27,0.422-0.562,0.394c-0.292-0.026-0.41-0.26-0.483-0.492
		c-0.311-0.985-0.592-1.981-0.908-2.964c-0.437-1.362-0.896-2.716-1.343-4.075c-0.045-0.137-0.11-0.248-0.26-0.258
		c-0.186-0.011-0.248,0.137-0.303,0.282c-0.374,0.984-0.734,1.975-1.126,2.951c-0.538,1.338-0.848,2.771-1.635,4.006
		c-0.154,0.241-0.266,0.531-0.597,0.514c-0.326-0.017-0.461-0.29-0.553-0.568c-0.426-1.287-0.829-2.581-1.274-3.861
		c-0.582-1.671-1.198-3.329-1.796-4.995c-0.108-0.299-0.213-0.601-0.298-0.908c-0.14-0.508-0.329-0.924-0.975-0.838
		c-0.256,0.033-0.364-0.185-0.367-0.405c-0.004-0.271,0.121-0.456,0.42-0.506c0.424-0.07,0.843,0.046,1.26,0.057
		c0.686,0.017,1.362-0.123,2.044-0.061c0.145,0.013,0.298-0.019,0.422,0.102c0.194,0.19,0.25,0.424,0.19,0.676
		c-0.066,0.275-0.303,0.229-0.504,0.237c-0.773,0.029-0.81,0.041-0.603,0.782c0.298,1.067,0.624,2.125,1.017,3.164
		c0.485,1.284,0.904,2.592,1.346,3.891c0.06,0.177,0.065,0.385,0.331,0.373c0.232-0.011,0.317-0.173,0.375-0.361
		c0.587-1.889,1.244-3.75,2.052-5.555c0.099-0.223,0.114-0.465,0.142-0.712c0.117-1.045-0.498-1.52-1.373-1.436
		c-0.339,0.032-0.611-0.049-0.607-0.455c0.005-0.391,0.252-0.499,0.607-0.473C276.803,16.414,277.103,16.397,277.402,16.397"/>
	<path fill="#FFFFFF" d="M182.285,16.296c0.505,0,1.01-0.011,1.514,0.004c0.364,0.01,0.625,0.21,0.613,0.591
		c-0.012,0.381-0.288,0.491-0.626,0.408c-0.627-0.154-0.719,0.305-0.892,0.736c-0.708,1.762-1.435,3.515-2.165,5.268
		c-0.547,1.311-0.874,2.719-1.671,3.921c-0.177,0.266-0.344,0.539-0.537,0.793c-0.342,0.447-0.706,0.402-0.891-0.139
		c-0.193-0.569-0.309-1.164-0.486-1.739c-0.552-1.799-1.036-3.62-1.703-5.381c-0.051-0.134-0.085-0.337-0.265-0.316
		c-0.131,0.015-0.128,0.205-0.181,0.322c-0.894,1.97-1.568,4.028-2.381,6.029c-0.12,0.295-0.282,0.581-0.473,0.834
		c-0.355,0.471-0.866,0.398-1.068-0.154c-0.483-1.325-0.965-2.65-1.414-3.986c-0.659-1.962-1.295-3.931-1.925-5.902
		c-0.127-0.398-0.391-0.42-0.697-0.337c-0.362,0.097-0.61-0.021-0.673-0.376c-0.076-0.429,0.232-0.568,0.581-0.575
		c1.038-0.022,2.078,0.001,3.114-0.108c0.157-0.017,0.333,0.04,0.484,0.103c0.17,0.073,0.345,0.182,0.302,0.42
		c-0.042,0.234-0.198,0.34-0.431,0.373c-1.002,0.147-0.993,0.148-0.704,1.144c0.667,2.295,1.396,4.568,2.242,6.803
		c0.061,0.16,0.089,0.363,0.286,0.378c0.19,0.013,0.275-0.153,0.329-0.325c0.609-1.961,1.364-3.864,2.219-5.726
		c0.337-0.733-0.184-1.293-0.349-1.923c-0.046-0.174-0.25-0.122-0.396-0.135c-0.218-0.02-0.432,0.005-0.658-0.071
		c-0.305-0.102-0.294-0.308-0.274-0.534c0.022-0.239,0.196-0.302,0.404-0.292c1.062,0.056,2.112-0.087,3.164-0.203
		c0.158-0.017,0.326,0.055,0.49,0.079c0.304,0.047,0.58,0.162,0.525,0.526c-0.056,0.369-0.317,0.362-0.637,0.294
		c-0.403-0.086-0.638,0.096-0.591,0.562c0.076,0.755,0.317,1.471,0.525,2.191c0.511,1.768,1.071,3.522,1.61,5.282
		c0.042,0.14,0.039,0.334,0.224,0.343c0.179,0.008,0.219-0.172,0.273-0.314c0.537-1.425,1.083-2.848,1.611-4.277
		c0.397-1.073,0.757-2.16,1.162-3.23c0.128-0.336,0.069-0.46-0.278-0.455c-0.261,0.004-0.525-0.015-0.784,0.009
		c-0.312,0.028-0.465-0.128-0.489-0.41c-0.027-0.312,0.13-0.512,0.452-0.518c0.505-0.01,1.01-0.003,1.515-0.003
		C182.285,16.285,182.285,16.29,182.285,16.296"/>
	<path fill="#FFFFFF" d="M200.921,18.574c0.003,0,0.006,0,0.008,0c-0.044,0.885-0.106,1.769-0.126,2.655
		c-0.017,0.75,0.149,0.895,0.875,0.881c0.355-0.007,0.711,0.012,1.064-0.018c1.337-0.115,2.122-0.979,2.09-2.351
		c-0.031-1.297-1.085-2.399-2.62-2.509c-1.128-0.081-1.351-0.077-1.279,1.115C200.938,18.422,200.925,18.498,200.921,18.574
		 M200.042,16.269c1.23-0.007,2.463,0.048,3.667,0.283c1.656,0.323,2.793,1.251,2.816,3.104c0.013,1.023-0.616,1.717-1.343,2.299
		c-0.689,0.552-0.693,0.488,0.052,0.959c1.091,0.69,1.758,1.662,1.752,3.023c-0.002,0.321,0.035,0.642,0.05,0.963
		c0.02,0.433,0.225,0.639,0.652,0.506c0.233-0.073,0.445-0.122,0.593,0.117c0.116,0.186,0.116,0.401,0.012,0.596
		c-0.139,0.259-0.365,0.174-0.592,0.158c-0.558-0.042-1.119-0.055-1.678-0.064c-0.713-0.012-0.75-0.078-0.739-0.781
		c0.016-1.072,0.083-2.145-0.277-3.196c-0.325-0.945-0.838-1.407-1.824-1.453c-0.504-0.022-1.009-0.024-1.513-0.024
		c-0.648,0-0.927,0.25-0.835,0.889c0.138,0.962,0.084,1.924,0.093,2.884c0.005,0.477,0.167,0.669,0.627,0.6
		c0.074-0.011,0.148-0.02,0.222-0.028c0.306-0.035,0.584-0.006,0.596,0.395c0.01,0.367-0.238,0.493-0.548,0.501
		c-0.523,0.013-1.047,0.009-1.57,0.004c-0.615-0.006-1.228,0.021-1.842,0.073c-0.336,0.028-0.684-0.137-0.668-0.524
		c0.016-0.372,0.386-0.446,0.686-0.408c0.589,0.076,0.716-0.16,0.715-0.733c-0.003-1.912,0.067-3.824,0.095-5.735
		c0.015-1-0.018-1.999,0.006-2.998c0.011-0.479-0.16-0.672-0.626-0.598c-0.091,0.014-0.187,0.002-0.28,0
		c-0.253-0.005-0.385-0.164-0.393-0.391c-0.009-0.26,0.13-0.424,0.412-0.423C198.921,16.27,199.481,16.269,200.042,16.269"/>
	<path fill="#FFFFFF" d="M258.411,24.742c0,0.621,0.001,1.244,0,1.865c-0.001,0.389,0.178,0.567,0.564,0.482
		c0.59-0.131,1.177-0.152,1.769-0.009c0.206,0.05,0.404-0.031,0.6-0.093c0.472-0.15,0.944-0.156,1.431-0.049
		c0.763,0.169,0.895,0.045,0.87-0.723c-0.01-0.302,0.002-0.605,0.014-0.908c0.013-0.322,0.182-0.549,0.494-0.59
		c0.322-0.042,0.412,0.236,0.436,0.48c0.07,0.707,0.154,1.416,0.149,2.125c-0.004,0.564-0.388,0.762-0.945,0.739
		c-1.304-0.055-2.611-0.062-3.916-0.072c-1.358-0.011-2.717-0.002-4.075-0.003c-0.185,0-0.367,0.009-0.546-0.079
		c-0.209-0.102-0.325-0.268-0.316-0.484c0.009-0.206,0.163-0.343,0.359-0.386c0.161-0.036,0.333-0.053,0.497-0.042
		c0.67,0.044,0.761-0.017,0.795-0.731c0.026-0.567-0.003-1.135-0.001-1.703c0.009-2.131,0.032-4.261,0.026-6.391
		c-0.003-1.035-0.026-1.037-1.031-1.086c-0.192-0.009-0.391,0.002-0.451-0.235c-0.052-0.203-0.071-0.411,0.07-0.596
		c0.084-0.109,0.178-0.2,0.328-0.173c1.206,0.216,2.421,0.042,3.631,0.097c0.714,0.033,1.429,0.115,2.14,0.084
		c0.55-0.024,1.185,0.134,1.543-0.579c0.168-0.333,0.589-0.22,0.625,0.188c0.076,0.865,0.343,1.705,0.29,2.585
		c-0.017,0.282-0.138,0.423-0.401,0.439c-0.282,0.018-0.522-0.053-0.599-0.376c-0.013-0.054-0.005-0.114-0.011-0.169
		c-0.107-1.013-0.104-1.043-1.086-1.134c-0.888-0.083-1.784-0.085-2.676-0.134c-0.484-0.026-0.656,0.19-0.652,0.675
		c0.01,1.104-0.027,2.208-0.036,3.312c-0.002,0.325,0.149,0.571,0.494,0.561c0.947-0.026,1.89-0.13,2.842-0.072
		c0.344,0.02,0.405-0.29,0.37-0.571c-0.048-0.388-0.011-0.719,0.471-0.695c0.449,0.02,0.488,0.329,0.472,0.727
		c-0.029,0.718,0.004,1.438,0.027,2.156c0.011,0.326-0.105,0.493-0.44,0.508c-0.342,0.016-0.524-0.132-0.57-0.473
		c-0.111-0.821-0.113-0.796-0.964-0.79c-0.631,0.004-1.263-0.084-1.895-0.096c-0.619-0.012-0.738,0.135-0.738,0.776
		c0.001,0.548,0,1.097,0,1.645C258.383,24.742,258.397,24.742,258.411,24.742"/>
	<path fill="#FFFFFF" d="M218.761,26.963c0.777,0.157,1.693-0.204,2.633-0.027c0.379,0.071,0.88-0.009,0.777-0.702
		c-0.051-0.344,0.058-0.71,0.081-1.066c0.017-0.274,0.172-0.449,0.413-0.437c0.236,0.012,0.432,0.135,0.487,0.447
		c0.134,0.775,0.018,1.54-0.009,2.31c-0.014,0.409-0.303,0.413-0.598,0.412c-1.207-0.002-2.415-0.001-3.622,0
		c-1.514,0-3.028-0.004-4.542,0.002c-0.296,0.001-0.6,0.008-0.619-0.383c-0.019-0.36,0.269-0.45,0.555-0.51
		c0.862-0.18,0.858-0.18,0.86-1.059c0.005-1.738-0.048-3.479,0.048-5.212c0.053-0.961-0.043-1.906-0.047-2.858
		c-0.002-0.685-0.123-0.777-0.779-0.802c-0.267-0.01-0.677,0.146-0.669-0.349c0.008-0.475,0.387-0.57,0.759-0.561
		c0.622,0.014,1.251,0.152,1.864,0.092c1.071-0.104,2.135,0.115,3.211-0.031c0.406-0.055,0.881,0.053,1.326,0.071
		c0.258,0.01,0.436-0.068,0.463-0.362c0.022-0.232,0.144-0.415,0.375-0.421c0.275-0.007,0.458,0.193,0.503,0.449
		c0.148,0.84,0.061,1.688,0.032,2.534c-0.006,0.166-0.123,0.272-0.299,0.28c-0.188,0.008-0.369,0.018-0.49-0.186
		c-0.146-0.244-0.133-0.507-0.119-0.769c0.019-0.37-0.15-0.595-0.505-0.61c-1.153-0.048-2.308,0.02-3.46-0.101
		c-0.163-0.017-0.39,0.061-0.425,0.355c-0.15,1.262-0.123,2.521,0.012,3.781c0.026,0.241,0.167,0.395,0.41,0.365
		c0.764-0.094,1.532,0,2.295-0.051c0.448-0.03,0.984,0.003,0.831-0.761c-0.033-0.167,0.043-0.428,0.336-0.433
		c0.27-0.005,0.521-0.008,0.637,0.322c0.111,0.315,0.05,0.638,0.076,0.955c0.037,0.469-0.007,0.941,0.095,1.411
		c0.072,0.328,0.008,0.694-0.422,0.714c-0.393,0.018-0.61-0.201-0.561-0.645c0.056-0.498-0.158-0.733-0.682-0.694
		c-0.764,0.056-1.524-0.078-2.287-0.105c-0.647-0.024-0.889,0.21-0.809,0.837c0.129,1.019,0.052,2.038,0.075,3.056
		c0.018,0.764,0.043,0.782,0.803,0.746C218.053,26.952,218.333,26.963,218.761,26.963"/>
	<path fill="#FFFFFF" d="M155.731,22.225c0.464-0.02,0.931-0.087,1.391,0.019c0.407,0.094,0.47-0.105,0.373-0.431
		c-0.313-1.04-0.593-2.094-1.068-3.076c-0.07-0.145-0.07-0.374-0.294-0.345c-0.181,0.023-0.27,0.204-0.316,0.366
		c-0.247,0.874-0.755,1.626-1.097,2.455c-0.403,0.978-0.374,1.013,0.675,1.011C155.507,22.225,155.619,22.225,155.731,22.225
		 M151.91,27.972c-0.542,0-1.085,0.016-1.626-0.006c-0.329-0.014-0.655-0.097-0.638-0.543c0.018-0.469,0.376-0.494,0.686-0.44
		c0.663,0.116,0.991-0.215,1.252-0.773c0.812-1.735,1.512-3.526,2.366-5.235c0.834-1.668,1.398-3.449,2.256-5.099
		c0.099-0.191,0.189-0.433,0.475-0.416c0.259,0.016,0.384,0.214,0.496,0.413c0.299,0.531,0.381,1.138,0.57,1.706
		c0.562,1.696,1.2,3.367,1.754,5.065c0.4,1.23,0.997,2.385,1.301,3.651c0.104,0.433,0.352,0.795,0.913,0.712
		c0.397-0.058,0.552,0.21,0.527,0.554c-0.025,0.337-0.185,0.528-0.594,0.48c-1.041-0.123-2.091-0.06-3.137-0.061
		c-0.13,0-0.263,0.024-0.39,0.003c-0.192-0.032-0.356-0.122-0.383-0.35c-0.016-0.134-0.028-0.275,0.098-0.362
		c0.16-0.111,0.358-0.204,0.515-0.052c0.288,0.279,0.427-0.09,0.633-0.135c0.177-0.038,0.082-0.243,0.041-0.388
		c-0.312-1.098-0.52-2.225-0.973-3.284c-0.157-0.367-0.311-0.535-0.73-0.52c-0.877,0.03-1.756,0.002-2.634-0.016
		c-0.458-0.01-0.772,0.13-0.944,0.61c-0.336,0.939-0.733,1.855-1.079,2.791c-0.249,0.675-0.116,0.849,0.584,0.847
		c0.092-0.001,0.185-0.033,0.277-0.029c0.252,0.011,0.589-0.055,0.597,0.328c0.007,0.352-0.243,0.543-0.586,0.552
		c-0.542,0.013-1.085,0.004-1.627,0.004C151.91,27.976,151.91,27.974,151.91,27.972"/>
	<path fill="#FFFFFF" d="M237.743,16.277c0.552-0.067,1.111,0.066,1.668-0.081c0.343-0.091,0.62,0.1,0.675,0.495
		c0.062,0.448-0.23,0.508-0.56,0.48c-0.401-0.034-0.567,0.148-0.724,0.527c-1.01,2.452-2.05,4.894-2.989,7.376
		c-0.351,0.929-0.658,1.875-1.101,2.766c-0.146,0.292-0.319,0.514-0.679,0.478c-0.354-0.035-0.493-0.273-0.585-0.592
		c-0.68-2.36-1.763-4.553-2.735-6.793c-0.412-0.947-0.786-1.912-1.135-2.884c-0.208-0.579-0.579-0.849-1.165-0.838
		c-0.294,0.005-0.545-0.052-0.544-0.405c0.001-0.31,0.238-0.377,0.503-0.411c1.019-0.129,2.035-0.159,3.057-0.008
		c0.25,0.038,0.508,0.016,0.77-0.062c0.277-0.082,0.526,0.053,0.573,0.381c0.047,0.337-0.136,0.489-0.456,0.493
		c-0.056,0.001-0.112,0.001-0.168,0.002c-1.006,0.015-1.002,0.014-0.628,1.012c0.886,2.358,1.835,4.691,2.812,7.012
		c0.063,0.15,0.063,0.379,0.275,0.362c0.163-0.012,0.168-0.221,0.222-0.358c0.632-1.612,1.32-3.204,1.88-4.84
		c0.283-0.83,0.654-1.639,0.8-2.518c0.081-0.487-0.076-0.726-0.586-0.67c-0.11,0.011-0.224,0-0.336,0.001
		c-0.317,0-0.634-0.033-0.637-0.451c-0.004-0.456,0.339-0.472,0.672-0.471C236.996,16.278,237.369,16.277,237.743,16.277"/>
	<path fill="#FFFFFF" d="M143.846,27.973c-1.434,0-2.707,0.036-3.978-0.013c-0.818-0.031-1.636-0.071-2.455-0.076
		c-0.4-0.002-0.785,0.135-1.204,0.019c-0.319-0.088-0.539-0.225-0.523-0.535c0.016-0.307,0.247-0.496,0.571-0.515
		c0.074-0.004,0.149-0.003,0.224-0.003c0.82,0,0.934-0.108,0.957-0.97c0.013-0.484-0.004-0.967,0.004-1.451
		c0.034-2.078,0.074-4.158,0.108-6.236c0.004-0.246-0.032-0.494-0.016-0.738c0.027-0.402-0.159-0.548-0.533-0.528
		c-0.204,0.011-0.413,0.014-0.615-0.012c-0.317-0.042-0.539-0.249-0.526-0.564c0.015-0.367,0.32-0.417,0.622-0.404
		c0.875,0.039,1.75,0.086,2.626,0.111c0.315,0.008,0.631-0.045,0.946-0.058c0.261-0.011,0.52-0.008,0.76,0.132
		c0.197,0.116,0.325,0.285,0.296,0.5c-0.034,0.251-0.262,0.279-0.475,0.297c-1.285,0.111-1.272,0.112-1.273,1.413
		c-0.003,2.549-0.019,5.098-0.037,7.646c-0.005,0.805,0.049,0.884,0.817,0.884c1.151-0.001,2.303-0.014,3.455-0.023
		c0.621-0.006,0.889-0.212,1.01-0.824c0.07-0.357,0.198-0.682,0.377-0.994c0.122-0.214,0.3-0.29,0.519-0.198
		c0.201,0.085,0.278,0.242,0.277,0.488c-0.003,0.894-0.509,1.65-0.644,2.506c-0.029,0.184-0.214,0.26-0.448,0.213
		C144.361,27.975,144.02,27.986,143.846,27.973"/>
	<path fill="#FFFFFF" d="M248.863,27.973c-1.135-0.167-2.268,0.023-3.402,0.03c-0.371,0.003-0.604-0.15-0.6-0.505
		c0.004-0.352,0.274-0.449,0.598-0.414c0.167,0.018,0.337,0.008,0.505-0.001c0.392-0.02,0.642-0.214,0.622-0.633
		c-0.072-1.545,0.174-3.085,0.029-4.635c-0.077-0.821,0.022-1.658,0.009-2.486c-0.008-0.576-0.09-1.151-0.104-1.726
		c-0.009-0.411-0.231-0.517-0.573-0.518c-0.205,0-0.411-0.002-0.617-0.002c-0.346-0.001-0.537-0.191-0.51-0.528
		c0.027-0.341,0.308-0.511,0.594-0.468c1.172,0.174,2.345,0.049,3.517,0.054c0.056,0,0.113-0.003,0.168,0.005
		c0.342,0.052,0.8,0.011,0.803,0.504c0.003,0.557-0.503,0.438-0.811,0.415c-0.577-0.042-0.671,0.104-0.675,0.722
		c-0.005,0.794,0.112,1.603-0.093,2.407c-0.157,0.617,0.054,1.264,0.012,1.911c-0.071,1.116,0.023,2.242,0.047,3.364
		c0.003,0.17-0.011,0.342,0.003,0.511c0.029,0.338-0.013,0.718,0.13,1c0.178,0.354,0.584,0.028,0.878,0.12
		c0.241,0.075,0.562,0.05,0.556,0.429c-0.006,0.382-0.27,0.452-0.581,0.446C249.199,27.97,249.031,27.973,248.863,27.973"/>
</g>
</svg>
