<?xml version="1.0" encoding="utf-8"?>
<!-- Generator: Adobe Illustrator 17.0.2, SVG Export Plug-In . SVG Version: 6.00 Build 0)  -->
<!DOCTYPE svg PUBLIC "-//W3C//DTD SVG 1.1//EN" "http://www.w3.org/Graphics/SVG/1.1/DTD/svg11.dtd">
<svg version="1.1" id="Layer_1" xmlns="http://www.w3.org/2000/svg" xmlns:xlink="http://www.w3.org/1999/xlink" x="0px" y="0px"
	 width="611.588px" height="611.62px" viewBox="0.001 0 611.588 611.62" enable-background="new 0.001 0 611.588 611.62"
	 xml:space="preserve">
<path d="M143.81,472.194c-91.784-89.341-93.73-236.654-4.419-328.457c89.349-91.726,236.663-93.631,328.399-4.339
	c91.742,89.352,93.666,236.703,4.399,328.392c-45.476,46.685-105.921,70.149-166.43,70.149
	C247.338,537.939,188.863,516.078,143.81,472.194 M86.571,92.283c-117.639,120.972-115.076,315.01,5.802,432.735
	c120.854,117.695,314.858,115.097,432.65-5.785C642.638,398.42,640.106,204.3,519.24,86.592C459.861,28.765,382.755,0,305.759,0
	C226.049-0.021,146.442,30.84,86.571,92.283"/>
<path d="M371.67,315.036l30.285,30.281L240.189,507.081c21.55,7.03,44.56,10.806,68.462,10.468c3.228-0.041,6.413-0.187,9.585-0.356
	l127.812-127.788l30.07,30.063l-0.339-104.465L371.67,315.036 M340.119,167.638l30.279,30.307L136.063,432.244
	c6.132,8.213,12.818,15.958,20.029,23.15c7.525,7.559,15.611,14.469,24.179,20.81l234.205-234.203l30.091,30.095l-0.37-104.492
	L340.119,167.638 M191.998,135.361l30.285,30.289L94.465,293.487c-0.3,5.005-0.492,10.056-0.411,15.13
	c0.301,21.983,3.966,43.108,10.467,62.965L266.35,209.721l30.091,30.102l-0.353-104.481L191.998,135.361"/>
</svg>
