<?xml version="1.0" encoding="utf-8"?>
<!-- Generator: Adobe Illustrator 15.0.2, SVG Export Plug-In  -->
<!DOCTYPE svg PUBLIC "-//W3C//DTD SVG 1.1//EN" "http://www.w3.org/Graphics/SVG/1.1/DTD/svg11.dtd" [
	<!ENTITY ns_flows "http://ns.adobe.com/Flows/1.0/">
]>
<svg version="1.1"
	 xmlns="http://www.w3.org/2000/svg" xmlns:xlink="http://www.w3.org/1999/xlink" xmlns:a="http://ns.adobe.com/AdobeSVGViewerExtensions/3.0/"
	 x="0px" y="0px" width="396px" height="198px" viewBox="-9.228 -8.5 396 198"
	 overflow="visible" enable-background="new -9.228 -8.5 396 198" xml:space="preserve">
<defs>
</defs>
<path d="M111.967,50.637c7.72,0,12.182-3.612,13.952-9.065l-2.195-0.779c-1.998,4.567-5.561,7.011-11.332,7.011
	c-8.923,0-14.164-6.161-14.164-15.793v-0.708h28.116c0.07-0.496,0.07-1.629,0.07-2.266c0-7.791-4.887-15.793-15.084-15.793
	c-9.986,0-16.572,7.648-16.572,18.696S101.415,50.637,111.967,50.637z M111.259,16.076c5.736,0,11.544,3.754,11.756,12.464H98.44
	C99.503,20.963,104.318,16.076,111.259,16.076z M268.196,6.091c1.699,0,3.115-1.346,3.115-3.045S269.896,0,268.196,0
	c-1.7,0-3.046,1.346-3.046,3.045S266.496,6.091,268.196,6.091z M102.052,107.93c0,5.312,4.108,8.853,10.553,8.853
	c5.808,0,10.516-2.867,13.385-5.736c0.619,3.097,2.833,4.674,5.878,4.674c3.329,0,5.524-1.771,6.232-5.453l-1.629-0.708
	c-0.566,2.195-1.629,3.399-3.541,3.399c-2.479,0-3.611-1.274-3.611-5.808V91.783c0-7.082-2.904-12.323-12.323-12.323
	c-5.523,0-8.711,1.629-10.906,3.612c-1.912,1.771-2.479,3.399-2.479,4.391c0,1.204,0.85,2.054,2.125,2.054
	c1.699,0,1.912-1.629,2.903-3.47c1.204-2.125,3.045-3.754,8.073-3.754c5.666,0,9.065,3.045,9.065,9.136v3.966
	C110.621,95.536,102.052,99.856,102.052,107.93z M125.777,108.213c-2.479,2.763-7.365,5.736-12.606,5.736
	c-4.179,0-7.648-1.982-7.648-6.02c0-5.028,4.32-9.702,20.255-9.985V108.213z M176.13,55.807c0,5.453,5.17,9.985,15.651,9.985
	c10.978,0,16.714-4.604,16.714-10.693c0-6.729-7.859-8.51-15.581-9.136c-5.736-0.496-11.048-0.708-11.048-3.541
	c0-1.417,1.417-2.762,7.72-2.762h2.337c8.498,0,13.951-5.807,13.951-13.314c0-3.399-1.274-6.586-3.47-8.923
	c0.495-6.444,6.161-3.258,6.161-6.586c0-1.417-0.85-2.125-2.267-2.125c-3.257,0-5.736,3.258-6.161,6.799
	c-2.124-1.417-4.745-2.266-7.79-2.266c-8.64,0-14.234,5.807-14.234,13.102c0,5.312,2.69,9.348,6.586,11.473
	c-3.824,0.354-5.878,2.337-5.878,5.028c0,1.912,1.204,3.753,4.391,4.816C179.103,48.725,176.13,52.053,176.13,55.807z
	 M181.371,26.487c0-5.736,4.319-10.481,10.765-10.481c6.231,0,10.48,4.745,10.48,10.623c0,5.524-4.036,10.34-10.693,10.34
	C185.903,36.968,181.371,32.223,181.371,26.487z M187.178,48.512l7.082,0.638c8.285,0.745,10.836,3.116,10.836,6.232
	c0,4.319-4.392,7.648-13.244,7.648c-7.932,0-12.464-3.188-12.464-7.437C179.388,52.407,182.078,49.362,187.178,48.512z
	 M201.413,79.46c-9.915,0-16.572,7.72-16.572,18.909c0,10.978,5.878,18.413,15.722,18.413c5.383,0,9.934-2.513,12.252-6.799
	l0.071,6.091l0.212,0.142l11.189-1.062v-1.912h-8.002v-50.99l-1.912-0.566c-3.092,3.975-6.87,6.091-11.261,6.02v1.558
	c3.379,0.743,7.294,0.01,9.632-1.62v17.271C210.194,81.443,206.229,79.46,201.413,79.46z M212.744,106.018
	c-1.771,5.028-6.161,7.932-11.614,7.932c-8.003,0-12.748-6.09-12.748-15.722c0-9.419,5.312-15.935,13.456-15.935
	c4.745,0,8.853,2.408,10.906,6.374V106.018z M138.241,18.414v28.044l-8.428,0.708v2.054h20.042v-1.983l-8.073-0.708V24.858
	c2.903-4.886,8.003-8.569,13.598-8.569s8.711,3.683,8.711,9.348v20.892l-8.216,0.708v1.983h19.334v-2.054l-7.577-0.708V25.283
	c0-6.445-3.116-12.04-11.544-12.04c-6.02,0-11.298,3.385-14.376,8.073v-7.648l-1.983-0.566c-2.903,3.187-6.728,4.674-11.331,4.603
	v1.558C131.797,19.9,135.408,19.83,138.241,18.414z M217.418,18.626v19.971c0,6.374,3.045,12.04,11.614,12.04
	c6.02,0,11.209-3.356,14.235-7.861l0.07,7.153l0.213,0.142l11.048-1.062v-1.912h-7.79V13.668l-1.983-0.566
	c-3.045,3.187-6.94,4.674-11.402,4.603v1.558c3.329,0.637,6.94,0.567,9.773-0.85v21.033c-2.975,4.674-8.073,8.215-13.598,8.215
	c-5.523,0-8.64-3.683-8.64-9.277V13.668l-1.912-0.566c-2.975,3.187-6.02,4.674-10.41,4.603v1.558
	C211.61,19.9,214.868,19.83,217.418,18.626z M177.546,146.031l-1.982-0.566c-3.045,3.187-6.94,4.674-11.402,4.603v1.559
	c3.329,0.638,6.94,0.566,9.773-0.85v21.033c-2.975,4.674-8.073,8.215-13.598,8.215c-5.523,0-8.64-3.683-8.64-9.277v-24.716
	l-1.912-0.566c-2.975,3.187-6.02,4.674-10.411,4.603v1.559c2.975,0.638,6.232,0.566,8.782-0.638v19.972
	c0,6.374,3.045,12.039,11.614,12.039c6.02,0,11.208-3.356,14.234-7.861l0.071,7.153l0.213,0.142l11.048-1.062v-1.912h-7.791V146.031
	z M241.001,79.46c-10.41,0-17.139,7.507-17.139,18.626c0,11.048,6.729,18.696,17.068,18.696c10.41,0,17.209-7.648,17.209-18.696
	C258.14,86.967,251.341,79.46,241.001,79.46z M241.001,113.949c-8.286,0-13.598-6.373-13.598-15.863
	c0-9.561,5.312-15.793,13.598-15.793c8.356,0,13.668,6.303,13.668,15.793S249.357,113.949,241.001,113.949z M238.451,145.606
	c-9.985,0-16.571,7.648-16.571,18.696s6.657,18.696,17.209,18.696c7.72,0,12.181-3.611,13.951-9.064l-2.195-0.779
	c-1.998,4.566-5.56,7.011-11.331,7.011c-8.923,0-14.164-6.161-14.164-15.793v-0.708h28.116c0.07-0.495,0.07-1.629,0.07-2.266
	C253.536,153.608,248.649,145.606,238.451,145.606z M225.562,160.903c1.062-7.578,5.878-12.464,12.818-12.464
	c5.736,0,11.544,3.753,11.756,12.464H225.562z M258.14,47.167v2.054h20.184v-2.054l-8.215-0.708V13.739l-1.983-0.637
	c-3.045,3.187-6.94,4.674-11.401,4.603v1.558c3.328,0.637,7.011,0.496,9.844-0.92v28.115L258.14,47.167z M319.115,91.146
	c0-6.444-2.69-11.686-10.198-11.686c-5.736,0-10.236,3.035-13.243,7.72c-0.975-4.315-3.824-7.72-9.702-7.72
	c-5.17,0-10.022,3.314-12.96,7.79v-7.365l-1.983-0.566c-2.974,3.188-6.798,4.604-11.331,4.604v1.487
	c3.329,0.638,7.012,0.496,9.845-0.921v28.115l-8.428,0.709v2.054h18.483v-1.983l-6.515-0.708V90.649
	c2.69-4.674,7.152-8.144,12.039-8.144c5.665,0,7.507,3.824,7.507,9.631v20.538l-6.94,0.708v1.983h17.492v-1.983l-7.011-0.708V91.712
	c0-0.425,0-0.921-0.071-1.416c2.975-5.028,7.082-7.79,11.898-7.79c5.736,0,7.577,3.895,7.577,9.561v20.608l-6.444,0.708v1.983
	h17.705v-1.983l-7.72-0.779V91.146z M202.829,162.391c-4.604-1.133-10.41-2.691-10.41-7.72c0-3.328,2.407-6.303,8.498-6.303
	c5.453,0,8.286,2.408,10.836,6.869l2.266,3.966l1.771-0.354l-2.267-13.385h-1.912l-0.07,5.878
	c-1.983-3.188-5.524-5.736-11.119-5.736c-7.082,0-11.331,3.966-11.331,9.136c0,7.152,8.145,9.348,13.031,10.623
	c6.657,1.699,11.189,3.328,11.189,8.144c0,4.25-3.612,6.799-9.065,6.799c-5.665,0-9.206-2.832-12.677-8.498l-2.195-3.612
	l-1.841,0.354l2.337,13.81h1.982l-0.212-6.656c2.691,4.461,6.799,7.294,13.031,7.294c7.223,0,11.968-3.824,11.968-9.773
	C216.639,166.356,210.619,164.373,202.829,162.391z M319.257,46.458V25.283c0-6.445-3.115-12.04-11.543-12.04
	c-5.949,0-11.228,3.385-14.306,8.073v-7.648l-1.983-0.566c-2.903,3.187-6.728,4.674-11.331,4.603v1.558
	c3.399,0.637,7.011,0.567,9.844-0.85v28.044l-8.428,0.708v2.054h20.042v-1.983l-8.073-0.708V24.858
	c2.903-4.886,8.003-8.569,13.526-8.569c5.596,0,8.711,3.683,8.711,9.348v20.892l-8.215,0.708v1.983h19.334v-2.054L319.257,46.458z
	 M74.007,113.171l-10.977-0.708V94.262h14.589l10.34,21.104h12.96v-2.195l-10.552-1.062l-8.782-17.847
	c8.286-0.425,13.173-6.374,13.173-14.094c0-7.932-5.524-13.597-14.022-13.597H48.938v2.195l10.339,0.779v42.917l-10.339,0.708v2.195
	h25.069V113.171z M63.03,69.404h16.501c7.012,0,11.473,4.249,11.473,10.764c0,6.516-3.753,11.19-11.331,11.19H63.03V69.404z
	 M139.021,113.312v2.054h20.042v-1.983l-8.073-0.708V91.004c2.903-4.887,8.002-8.498,13.597-8.498s8.711,3.611,8.711,9.277v20.892
	l-8.215,0.708v1.983h19.334v-2.054l-7.578-0.709V91.429c0-6.444-3.116-11.969-11.543-11.969c-6.021,0-11.298,3.385-14.377,8.003
	v-7.578l-1.983-0.566c-2.903,3.188-6.728,4.604-11.331,4.604v1.487c3.399,0.638,7.012,0.566,9.845-0.85v28.044L139.021,113.312z
	 M74.007,47.025L63.03,46.316V28.966h16.784c8.782,0,13.881-6.232,13.881-14.589c0-8.215-5.382-14.022-14.234-14.022H48.938V2.55
	l10.269,0.779v42.988l-10.269,0.708v2.195h25.069V47.025z M63.03,3.187h15.723c6.939,0,11.189,4.462,11.189,11.119
	c0,6.728-3.683,11.827-10.623,11.827H63.03V3.187z M94.475,135.691l10.41-0.779v-2.195H80.239v2.195l10.481,0.708v19.122h-27.62
	V135.62l10.482-0.708v-2.195H48.938v2.195l10.339,0.779v42.987l-10.339,0.709v2.195h24.646v-2.195l-10.482-0.709v-21.104h27.62
	v21.104l-10.481,0.709v2.195h24.646v-2.195l-10.41-0.709V135.691z M121.669,145.606c-10.41,0-17.138,7.577-17.138,18.696
	c0,11.048,6.728,18.696,17.067,18.696c10.41,0,17.209-7.648,17.209-18.696C138.808,153.184,132.009,145.606,121.669,145.606z
	 M121.669,180.166c-8.285,0-13.597-6.373-13.597-15.863c0-9.561,5.312-15.863,13.597-15.863c8.357,0,13.669,6.373,13.669,15.863
	S130.026,180.166,121.669,180.166z"/>
<polygon fill="#FF6600" points="0,181.58 3.754,181.58 3.754,90.854 3.754,0.239 0,0.239 0,90.943 "/>
<polygon fill="#FF6600" points="372.019,181.58 375.772,181.58 375.772,90.854 375.772,0.239 372.019,0.239 372.019,90.943 "/>
</svg>
