<?xml version="1.0" encoding="utf-8"?>
<!-- Generator: Adobe Illustrator 15.0.2, SVG Export Plug-In  -->
<!DOCTYPE svg PUBLIC "-//W3C//DTD SVG 1.1//EN" "http://www.w3.org/Graphics/SVG/1.1/DTD/svg11.dtd" [
	<!ENTITY ns_flows "http://ns.adobe.com/Flows/1.0/">
]>
<svg version="1.1"
	 xmlns="http://www.w3.org/2000/svg" xmlns:xlink="http://www.w3.org/1999/xlink" xmlns:a="http://ns.adobe.com/AdobeSVGViewerExtensions/3.0/"
	 x="0px" y="0px" width="445px" height="214px" viewBox="0 0 445 214" overflow="visible" enable-background="new 0 0 445 214"
	 xml:space="preserve">
<defs>
</defs>
<path d="M0,0v214.28h444.69v-5.479V0L0,0z M10.958,10.958l422.775,0v192.366H10.958V10.958z"/>
<path d="M100.929,63.889c8.323,0.979,9.56,1.679,9.56,13.093v23.279H79.373V76.982c0-11.414,1.088-12.254,9.265-13.093v-2.93H54.802
	v2.93c9.014,0.839,10.232,1.679,10.232,13.093v57.263c0,11.139-1.219,12.117-9.821,12.954v2.93h33.703v-2.93
	c-8.455-0.837-9.543-1.679-9.543-12.954v-28.966h31.115v28.966c0,11.006-1.092,12.117-9.969,12.954v2.93h34.125v-2.93
	c-8.732-0.974-9.834-1.948-9.834-13.091V76.982c0-11.414,1.102-12.114,10.102-13.093v-2.93h-33.983V63.889z"/>
<path d="M185.195,142.756c-2.334,0-4.234-2.091-4.234-8.081v-26.336c0-6.828-1.101-12.252-5.455-16.156
	c-2.865-2.52-6.691-4.332-11.735-4.332c-7.38,1.406-15.29,6.283-19.802,9.621c-2.869,2.09-4.357,3.902-4.357,5.992
	c0,3.197,4.224,5.717,7.223,5.717c2.045,0,3.279-1.111,3.822-3.768c0.82-4.176,1.781-6.967,3.146-9.055
	c1.5-2.088,3.144-2.924,5.322-2.924c4.779,0,8.457,4.445,8.457,13.359v6.152c-2.857,2.766-13.646,6.53-19.657,9.043
	c-6.402,2.635-9.134,6.831-9.134,13.23c0,7.806,6.132,16.587,15.822,16.587c3.424,0,9.559-4.879,13.515-7.939
	c0.554,1.652,1.366,3.467,3.141,5.148c1.372,1.543,4.093,2.791,6.55,2.791l12.422-7.103l-0.955-2.927
	C188.195,142.323,186.826,142.756,185.195,142.756z M167.582,140.099c-1.635,1.679-3.955,2.79-6.278,2.79
	c-3.688,0-8.324-4.039-8.324-10.871c0-5.148,1.911-7.394,5.867-9.892c2.457-1.541,6.279-3.49,8.735-5.01V140.099z"/>
<path d="M237.199,135.92c-4.09,8.218-8.323,10.305-17.057,10.305h-9.145c9.69-19.789,18.012-36.364,27.701-55.312l-0.676-1.385
	h-29.334c-4.378,0-5.733-0.838-6.693-2.924h-2.731c-1.088,5.984-3,14.906-4.234,19.217l2.868,0.973l1.777-3.744
	c3.136-6.963,6.001-9.615,14.325-9.615c2.732,0,5.601,0,8.469,0c-9.014,17.969-18.025,36.362-28.527,55.173l0.81,1.521h41.758
	c1.778-5.015,3.422-10.732,5.47-16.587l-2.868-1.387L237.199,135.92z"/>
<path d="M267.354,136.334V52.742c-6.276,2.096-14.745,4.043-21.289,4.748v2.357c7.501,0.979,7.646,1.68,7.646,10.303v66.183
	c0,9.346-0.546,10.166-7.923,11.002v2.794h29.492v-2.791C268.033,146.499,267.354,145.954,267.354,136.334z"/>
<path d="M301.161,136.196V87.851c-7.233,2.518-14.47,4.336-20.471,5.441v2.363c6.135,1.406,6.822,1.818,6.822,10.324v30.216
	c0,9.758-0.821,10.303-7.643,11.142v2.791h29.203v-2.791C301.981,146.499,301.161,145.819,301.161,136.196z"/>
<path d="M383.492,142.457c-1.63,0.845-3.688,1.685-6.688,1.685c-3.545,0-7.226-2.225-7.226-12.96V94.41h12.139
	c1.644-0.699,1.908-3.336,0.82-4.881h-12.959v-19.08l-1.644-0.433l-12,9.351v10.162h-21.216h-0.011v-6.422
	c0-9.257-1.171-16.34-5.197-20.413c-6.142-6.214-13.086-6.973-16.491-6.973c-8.116,0-20.687,9.485-23.596,13.382
	c-0.42,0.562-0.974,1.651-1.142,3.11c-0.044,0.29-0.074,0.58-0.074,0.866c0,0.578,0.073,1.136,0.199,1.672
	c0.006,0.03,0.007,0.058,0.014,0.089c0.006,0.026,0.018,0.044,0.023,0.07c0.742,2.87,3.195,4.978,6.322,4.978
	c3.374,0,6.166-2.457,6.706-5.678c0.038-0.132,0.079-0.266,0.102-0.391c0.312-1.723,0.406-3.339,0.809-5.047
	c0.387-1.641,0.838-3.37,1.849-4.751c1.257-1.716,3.216-2.304,5.229-2.63c0.28-0.045,0.571-0.112,0.854-0.13
	c4.434-0.277,8.337,1.547,9.955,6.006c0.896,2.468,0.802,9.038,0.802,15.076c0,2.088,0,5.098,0,7.185h-4.779l-3.277,3.764
	l0.409,1.117h7.647v40.675c0,11.708,5.188,16.723,13.78,16.723c1.366,0,3.01-0.566,4.924-1.406l9.957-4.881l-1.093-3.063
	c-1.645,0.845-3.687,1.685-6.688,1.685c-3.558,0-7.233-2.225-7.233-12.96V94.41h21.216v40.675c0,11.708,5.178,16.723,13.777,16.723
	c1.357,0,3.002-0.566,4.913-1.406l9.954-4.881L383.492,142.457z"/>
</svg>
