<?xml version="1.0" encoding="utf-8"?>
<!-- Generator: Adobe Illustrator 15.0.0, SVG Export Plug-In . SVG Version: 6.00 Build 0)  -->
<!DOCTYPE svg PUBLIC "-//W3C//DTD SVG 1.1//EN" "http://www.w3.org/Graphics/SVG/1.1/DTD/svg11.dtd">
<svg version="1.1"
	 id="svg2" xmlns:svg="http://www.w3.org/2000/svg" xmlns:sodipodi="http://sodipodi.sourceforge.net/DTD/sodipodi-0.dtd" inkscape:version="0.48.4 r9939" xmlns:inkscape="http://www.inkscape.org/namespaces/inkscape" xmlns:rdf="http://www.w3.org/1999/02/22-rdf-syntax-ns#" xmlns:cc="http://creativecommons.org/ns#" xmlns:dc="http://purl.org/dc/elements/1.1/" sodipodi:docname="Twitter_bird_logo_2012.svg"
	 xmlns="http://www.w3.org/2000/svg" xmlns:xlink="http://www.w3.org/1999/xlink" x="0px" y="0px" width="27.255px"
	 height="20.574px" viewBox="-2.097 -0.745 27.255 20.574" enable-background="new -2.097 -0.745 27.255 20.574"
	 xml:space="preserve">
<sodipodi:namedview  inkscape:window-maximized="1" fit-margin-bottom="0" bordercolor="#666666" inkscape:current-layer="layer1" inkscape:window-width="1280" inkscape:cx="101.29413" inkscape:window-y="-8" inkscape:window-height="962" inkscape:zoom="3.7200571" inkscape:document-units="px" inkscape:window-x="-8" inkscape:pageopacity="0.0" inkscape:pageshadow="2" inkscape:cy="50.181142" fit-margin-right="0" borderopacity="1.0" pagecolor="#ffffff" fit-margin-left="0" showgrid="false" fit-margin-top="0" id="base">
	</sodipodi:namedview>
<g id="layer1" transform="translate(-282.32053,-396.30734)" inkscape:label="Layer 1" inkscape:groupmode="layer">
	<path id="path5" inkscape:connector-curvature="0" fill="none" stroke="#000000" stroke-miterlimit="10" d="M306.104,398.595
		c-0.875,0.388-1.815,0.65-2.802,0.768c1.007-0.604,1.781-1.56,2.146-2.699c-0.943,0.56-1.987,0.965-3.099,1.184
		c-0.89-0.948-2.158-1.541-3.562-1.541c-2.694,0-4.879,2.185-4.879,4.88c0,0.382,0.043,0.754,0.127,1.112
		c-4.056-0.204-7.651-2.146-10.058-5.099c-0.42,0.721-0.66,1.559-0.66,2.453c0,1.693,0.861,3.187,2.17,4.061
		c-0.8-0.025-1.552-0.245-2.209-0.61c-0.001,0.021-0.001,0.041-0.001,0.062c0,2.364,1.682,4.336,3.915,4.785
		c-0.41,0.111-0.841,0.171-1.286,0.171c-0.314,0-0.62-0.031-0.917-0.088c0.621,1.939,2.423,3.35,4.559,3.389
		c-1.67,1.309-3.774,2.089-6.061,2.089c-0.395,0-0.782-0.023-1.164-0.068c2.16,1.384,4.724,2.192,7.48,2.192
		c8.976,0,13.883-7.436,13.883-13.883c0-0.212-0.005-0.422-0.014-0.632C304.623,400.433,305.45,399.574,306.104,398.595
		L306.104,398.595z"/>
</g>
</svg>
